<svg width="346" height="213" viewBox="0 0 346 213" fill="none" xmlns="http://www.w3.org/2000/svg">
<g clip-path="url(#clip0_221_5646)">
<path d="M95 148.073V139.487H77.8871V113.51H77.8432V87.8638H52.1629V113.642H60.8182V147.984H69.3636V156.68H103.611V148.073H95Z" fill="#96D400"/>
<path d="M171.909 70.7147V79.3443H163.364V87.974H154.818V96.5595H146.273V105.145H120.636H112.091V79.3885H103.502V70.803H95.0001V45.0464H86.4546V36.4609H18.091V45.0464H1.00006V79.3885H69.3637V105.145H77.8433V139.487H95.0001V148.073H103.48V165.244H112.091V173.829H120.636V165.244V156.658H146.273V130.902H154.818V122.316H163.364V105.145H171.909V96.6699H180.521V70.7147H171.909Z" fill="#52A316"/>
<path d="M9.74317 62.3276H1L1 53.5435H9.74317L9.74317 62.3276Z" fill="#2C4C13"/>
<path d="M35.3795 62.3276H26.6364V53.5435H35.3795V62.3276Z" fill="#2C4C13"/>
<path d="M69.3636 70.8027H60.8181V53.6317H69.3636V70.8027Z" fill="#2C4C13"/>
<path d="M77.8871 70.8027H67.1229V62.1731H77.8871V70.8027Z" fill="#2C4C13"/>
<path d="M69.3636 87.9741L9.54541 87.9741L9.54541 79.3886H69.3636V87.9741Z" fill="#428113"/>
<path d="M52.2727 122.316H43.7273V105.145H52.2727V122.316Z" fill="#428113"/>
<path d="M86.4545 122.316H77.9091V105.145H86.4545V122.316Z" fill="#428113"/>
<path d="M95 113.73H86.4546V96.5595H95V113.73Z" fill="#428113"/>
<path d="M95 53.6318H86.4546V45.0463H95V53.6318Z" fill="#428113"/>
<path d="M103.545 70.9355H95V53.6321H103.545V70.9355Z" fill="#428113"/>
<path d="M112.354 87.9741H103.479V70.7369H112.354V87.9741Z" fill="#428113"/>
<path d="M120.636 105.145H112.091V87.974H120.636V105.145Z" fill="#428113"/>
<path d="M189 96.5596H180.455V62.1734H189V96.5596Z" fill="#428113"/>
<path d="M180.455 105.145H171.909V96.5595H180.455V105.145Z" fill="#428113"/>
<path d="M171.909 122.316H163.364V105.145H171.909V122.316Z" fill="#428113"/>
<path d="M163.364 130.901H154.818V122.316H163.364V130.901Z" fill="#428113"/>
<path d="M154.818 148.073H146.273V130.902H154.818V148.073Z" fill="#428113"/>
<path d="M146.273 156.658H129.182V148.073H146.273V156.658Z" fill="#428113"/>
<path d="M129.182 191H120.636V156.658H129.182V191Z" fill="#428113"/>
<path d="M120.636 191H112.091V182.415H120.636V191Z" fill="#428113"/>
<path d="M95 191H77.9091V182.415H95V191Z" fill="#428113"/>
<path d="M95 191H86.4546V156.658H95V191Z" fill="#428113"/>
<path d="M95 165.266H69.3636V156.658H95V165.266Z" fill="#428113"/>
<path d="M95 173.829H77.9091V165.266H95V173.829Z" fill="#428113"/>
<path d="M72.549 42.2212L31.6011 42.2212V33.1943L72.549 33.1943V42.2212Z" fill="#E83030"/>
<path d="M52.0751 33.7683H35.116L43.5955 19.003L52.0751 4.25977L60.5546 19.003L69.0342 33.7683H52.0751Z" fill="#FFD400"/>
<path d="M56.6882 9.29199L47.4398 9.29199V0.000219345L56.6882 0.000219345V9.29199Z" fill="white"/>
</g>
<g clip-path="url(#clip1_221_5646)">
<path d="M14.3571 198.567V184.135H28.7143V169.716H43.0714V155.284H57.4286H71.7857V169.716H86.1429V184.135H100.5V169.716H114.857V155.284H129.214V140.851H143.571V126.433H157.929V112H172.286H186.643H201H215.357V126.433H229.714V140.851H244.071V155.284H258.429V169.716H272.786V155.284H287.143H301.5H315.857V169.716H330.214H344.571H358.929H373.286V184.135H387.643V198.567H402V213H387.643H373.286H358.929H344.571H330.214H315.857H301.5H287.143H272.786H258.429H244.071H229.714H215.357H201H186.643H172.286H157.929H143.571H129.214H114.857H100.5H86.1429H71.7857H57.4286H43.0714H28.7143H14.3571H0V198.567H14.3571Z" fill="white"/>
<path d="M272.786 169.716H258.429V184.149H272.786V169.716Z" fill="#CEEEFF"/>
<path d="M157.929 126.433H143.571V140.865H157.929V126.433Z" fill="#CEEEFF"/>
<path d="M14.3571 198.567V184.135H28.7143V169.702H43.0714V184.135H57.4286V198.567H100.5V169.716H114.857V155.284H129.214V140.851H143.571V184.135H172.286V198.567H272.786V184.135H301.5V198.567H402V213H0V198.567H14.3571Z" fill="#CEEEFF"/>
</g>
<defs>
<clipPath id="clip0_221_5646">
<rect width="188" height="191" fill="white" transform="matrix(-1 0 0 1 189 0)"/>
</clipPath>
<clipPath id="clip1_221_5646">
<rect width="402" height="101" fill="white" transform="translate(0 112)"/>
</clipPath>
</defs>
</svg>
