<svg width="295" height="158" viewBox="0 0 295 158" fill="none" xmlns="http://www.w3.org/2000/svg">
<path d="M72.1943 130.959H78.7429V137.507H72.1943V130.959Z" fill="#5E3346"/>
<path d="M104.937 130.959H111.486V137.507H104.937V130.959Z" fill="#5E3346"/>
<path d="M72.1943 124.411H78.7429V130.959H72.1943V124.411Z" fill="#90471D"/>
<path d="M104.937 124.411H111.486V130.959H104.937V124.411Z" fill="#90471D"/>
<path d="M72.1943 117.863H111.486V124.411H72.1943V117.863Z" fill="#83381B"/>
<path d="M59.0972 104.767H65.6458V117.863H59.0972V104.767Z" fill="#E69D6A"/>
<path d="M72.1943 111.315H98.3887V117.863H72.1943V111.315Z" fill="#5E3346"/>
<path d="M104.937 104.767H111.486V98.2192H118.034V104.767H124.583V117.863H104.937V104.767Z" fill="#F1EEE9"/>
<path d="M72.1943 104.767H98.3887V111.315H72.1943V104.767Z" fill="#90471D"/>
<path d="M98.3887 104.767H104.937V117.863H98.3887V104.767Z" fill="#E69D6A"/>
<path d="M65.6458 98.2192H72.1943V117.863H65.6458V98.2192Z" fill="#F1EEE9"/>
<path d="M72.1943 98.2192H111.486V104.767H72.1943V98.2192Z" fill="#83381B"/>
<path d="M111.486 91.6714H118.034V98.2193H111.486V91.6714Z" fill="#DB8153"/>
<path d="M118.034 72.0273H131.132V78.5753H124.583V91.6712H118.034V72.0273Z" fill="#DB8153"/>
<path d="M124.583 78.5757H131.132V85.1236H124.583V78.5757Z" fill="#83381B"/>
<path d="M91.8401 78.5754V85.1233H78.7429V78.5754H72.1943V65.4795H98.3887V78.5754H91.8401Z" fill="#F1EEE9"/>
<path d="M104.937 58.9316H111.486V72.0275H104.937V58.9316Z" fill="#1F1119"/>
<path d="M124.583 65.4795H131.132V72.0274H124.583V65.4795Z" fill="#E69D6A"/>
<path d="M59.0972 58.9316H65.6458V72.0275H59.0972V58.9316Z" fill="#1F1119"/>
<path d="M111.486 52.3833H118.034V58.9312H111.486V52.3833Z" fill="#DB8153"/>
<path d="M46 45.8359H52.5486V52.3839H46V45.8359Z" fill="#83381B"/>
<path d="M91.8401 45.8359V52.3839H111.486V58.9318H104.937V72.0277H111.486V58.9318H118.034V91.6716H111.486V98.2195H59.0972V91.6716H52.5486V45.8359H91.8401ZM98.3887 65.4798H72.1943V78.5757H78.7429V85.1236H91.8401V78.5757H98.3887V65.4798ZM59.0972 72.0277H65.6458V58.9318H59.0972V72.0277Z" fill="#E69D6A"/>
<path d="M91.8401 45.8359H111.486V52.3839H91.8401V45.8359Z" fill="#DB8153"/>
<path d="M131.132 45.8359H137.68V52.3839H131.132V45.8359Z" fill="#90471D"/>
<path d="M72.1943 39.2876H91.8401V45.8355H72.1943V39.2876Z" fill="#DB8153"/>
<path d="M52.5486 26.1919H72.1943V32.7398H65.6458V39.2878H52.5486V45.8357H46V32.7398H52.5486V26.1919Z" fill="#90471D"/>
<path d="M91.8401 26.1919V32.7398H118.034V39.2878H131.132V52.3837H137.68V78.5755H131.132V65.4796H124.583V72.0275H118.034V52.3837H111.486V45.8357H91.8401V39.2878H72.1944V45.8357H52.5486V39.2878H65.6458V32.7398H72.1944V26.1919H91.8401Z" fill="#83381B"/>
<path d="M111.486 26.1916H118.034V19.6436H124.583V26.1916H131.132V39.2875H118.034V32.7395H91.8401V26.1916H59.0972V19.6436H72.1943V13.0957H111.486V26.1916Z" fill="#5E3346"/>
<path d="M124.583 13.0963V6.54834H131.132V13.0963H137.68V19.6442H118.034V26.1922H111.486V13.0963H124.583Z" fill="#B22724"/>
<path d="M137.68 13.0959H131.132V6.54795H124.583V13.0959H111.486V6.54795H118.034V0H137.68V6.54795H144.229V19.6438H137.68V13.0959Z" fill="#CC3429"/>
<g clip-path="url(#clip0_221_5645)">
<path d="M10.5357 147.426V136.851H21.0714V126.287H31.6071V115.713H42.1429H52.6786V126.287H63.2143V136.851H73.75V126.287H84.2857V115.713H94.8214V105.139H105.357V94.5743H115.893V84H126.429H136.964H147.5H158.036V94.5743H168.571V105.139H179.107V115.713H189.643V126.287H200.179V115.713H210.714H221.25H231.786V126.287H242.321H252.857H263.393H273.929V136.851H284.464V147.426H295V158H284.464H273.929H263.393H252.857H242.321H231.786H221.25H210.714H200.179H189.643H179.107H168.571H158.036H147.5H136.964H126.429H115.893H105.357H94.8214H84.2857H73.75H63.2143H52.6786H42.1429H31.6071H21.0714H10.5357H0V147.426H10.5357Z" fill="white"/>
<path d="M200.179 126.287H189.643V136.861H200.179V126.287Z" fill="#CEEEFF"/>
<path d="M115.893 94.5742H105.357V105.149H115.893V94.5742Z" fill="#CEEEFF"/>
<path d="M10.5357 147.425V136.851H21.0714V126.277H31.6071V136.851H42.1429V147.425H73.75V126.287H84.2857V115.713H94.8214V105.138H105.357V136.851H126.429V147.425H200.179V136.851H221.25V147.425H295V158H0V147.425H10.5357Z" fill="#CEEEFF"/>
</g>
<defs>
<clipPath id="clip0_221_5645">
<rect width="295" height="74" fill="white" transform="translate(0 84)"/>
</clipPath>
</defs>
</svg>
