<svg width="410" height="189" viewBox="0 0 410 189" fill="none" xmlns="http://www.w3.org/2000/svg">
<path d="M297.014 143.651V130.591H290.483V143.651H277.423V124.062H283.953V117.532H264.363V143.651H251.302V137.121H244.772V143.651H238.242V150.18H303.544V143.651H297.014Z" fill="#CC378E"/>
<path d="M290.483 137.121H277.423V143.651H290.483V137.121Z" fill="#B53190"/>
<path d="M264.362 137.121H251.302V143.651H264.362V137.121Z" fill="#B53190"/>
<path d="M290.483 130.591H283.953V137.121H290.483V130.591Z" fill="#E69865"/>
<path d="M257.832 130.591H251.302V137.121H257.832V130.591Z" fill="#E69865"/>
<path d="M251.302 130.591H244.772V137.121H251.302V130.591Z" fill="#B53190"/>
<path d="M297.014 124.062H290.483V130.592H297.014V124.062Z" fill="#E69865"/>
<path d="M251.302 124.062H244.772V130.592H251.302V124.062Z" fill="#E69865"/>
<path d="M290.483 117.532H283.953V124.062H277.423V137.121H283.953V130.591H290.483V117.532Z" fill="#F2AE80"/>
<path d="M257.832 117.532H251.302V130.591H257.832V137.121H264.362V124.062H257.832V117.532Z" fill="#F2AE80"/>
<path d="M251.302 111.003H244.772V124.062H251.302V111.003Z" fill="#CC378E"/>
<path d="M251.302 111.003V117.533H257.832V124.062H264.362V117.533H290.483V124.062H297.014V111.003H251.302Z" fill="#B53190"/>
<path d="M251.302 104.473H244.772V111.003H251.302V104.473Z" fill="#E69865"/>
<path d="M244.772 104.473H238.242V91.4141H231.712V97.9436H225.181V104.473H218.651V111.003H225.181V117.532H244.772V104.473Z" fill="#D4730D"/>
<path d="M244.772 91.4141H238.242V104.473H244.772V91.4141Z" fill="#E69865"/>
<path d="M323.134 84.8843H316.604V91.4139H323.134V84.8843Z" fill="#E68C0E"/>
<path d="M316.604 71.8257H310.074V104.474H303.544V111.003H297.014V117.533H316.604V111.003H323.134V91.4144H316.604V71.8257Z" fill="#D4730D"/>
<path d="M270.893 91.4141V97.9437H283.953V91.4141H290.483V78.355H264.363V91.4141H270.893Z" fill="#F1EEE9"/>
<path d="M238.242 84.8843H231.711V91.4139H238.242V84.8843Z" fill="#E69865"/>
<path d="M303.544 84.8841H297.014V65.2954H251.302V71.825H257.832V84.8841H251.302V71.825H244.772V84.8841H238.242V91.4137H244.772V104.473H251.302V111.002H303.544V104.473H310.074V78.3546H303.544V84.8841ZM264.363 78.3546H290.483V91.4137H283.953V97.9433H270.893V91.4137H264.363V78.3546Z" fill="#F2AE80"/>
<path d="M257.832 71.8257H251.302V84.8848H257.832V71.8257Z" fill="#1F1119"/>
<path d="M244.772 65.2954H238.242V84.8841H244.772V65.2954Z" fill="#D4730D"/>
<path d="M238.242 78.355H231.711V84.8846H238.242V78.355Z" fill="#F2AE80"/>
<path d="M310.074 71.8257H303.544V78.3553H310.074V71.8257Z" fill="#E69865"/>
<path d="M303.544 71.8257H297.014V84.8848H303.544V71.8257Z" fill="#1F1119"/>
<path d="M310.074 65.2954H303.544V71.825H310.074V65.2954Z" fill="#D4730D"/>
<path d="M303.544 65.2954H297.014V71.825H303.544V65.2954Z" fill="#E69865"/>
<path d="M251.302 65.2954H244.772V71.825H251.302V65.2954Z" fill="#E69865"/>
<path d="M283.953 58.7661H251.302V65.2957H283.953V58.7661Z" fill="#E69865"/>
<path d="M251.302 58.7661H244.772V65.2957H251.302V58.7661Z" fill="#D4730D"/>
<path d="M283.953 58.7662V65.2958H303.544V58.7662H290.483V52.2366H277.423V45.707H264.362V52.2366H251.302V58.7662H283.953Z" fill="#D4730D"/>
<path d="M231.711 52.2368H225.181V58.7664H231.711V52.2368Z" fill="#F2AB1D"/>
<path d="M316.604 45.707H310.074V52.2366H316.604V45.707Z" fill="#F2AB1D"/>
<path d="M297.014 45.7071V39.1775H277.423V32.6479H251.302V39.1775H238.242V45.7071H231.712V58.7663H225.181V91.4142H218.651V104.473H225.181V97.9437H231.712V78.355H238.242V65.2958H244.772V58.7663H251.302V52.2367H264.363V45.7071H277.423V52.2367H290.483V58.7663H303.544V65.2958H310.074V71.8254H316.604V52.2367H310.074V45.7071H297.014Z" fill="#E68C0E"/>
<path d="M238.242 39.1777H231.711V45.7073H238.242V39.1777Z" fill="#F2AB1D"/>
<path d="M251.302 32.6479H238.242V39.1775H251.302V32.6479Z" fill="#F2AB1D"/>
<path d="M251.302 26.1182V32.6477H277.423V39.1773H297.014V45.7069H310.074V39.1773H303.544V32.6477H290.483V26.1182H251.302Z" fill="#F2AB1D"/>
<path d="M192.53 26.118H199.06V32.6476H205.591V39.1772H212.121V32.6476H218.651V26.118H225.181V19.5885H231.711V6.5293H225.181V13.0589H186V19.5885H192.53V26.118Z" fill="#E080BA"/>
<path d="M231.711 39.1775H238.242V32.6479H251.302V26.1183H264.363V19.5887H257.832V13.0592H251.302V6.52958H244.772V0H231.711V39.1775Z" fill="#CC378E"/>
<g clip-path="url(#clip0_221_5647)">
<path d="M14.6429 174.425V159.849H29.2857V145.288H43.9286V130.712H58.5714H73.2143V145.288H87.8571V159.849H102.5V145.288H117.143V130.712H131.786V116.137H146.429V101.575H161.071V87H175.714H190.357H205H219.643V101.575H234.286V116.137H248.929V130.712H263.571V145.288H278.214V130.712H292.857H307.5H322.143V145.288H336.786H351.429H366.071H380.714V159.849H395.357V174.425H410V189H395.357H380.714H366.071H351.429H336.786H322.143H307.5H292.857H278.214H263.571H248.929H234.286H219.643H205H190.357H175.714H161.071H146.429H131.786H117.143H102.5H87.8571H73.2143H58.5714H43.9286H29.2857H14.6429H0V174.425H14.6429Z" fill="white"/>
<path d="M278.214 145.288H263.571V159.863H278.214V145.288Z" fill="#CEEEFF"/>
<path d="M161.071 101.575H146.429V116.151H161.071V101.575Z" fill="#CEEEFF"/>
<path d="M14.6429 174.424V159.849H29.2857V145.274H43.9286V159.849H58.5714V174.424H102.5V145.288H117.143V130.712H131.786V116.137H146.429V159.849H175.714V174.424H278.214V159.849H307.5V174.424H410V189H0V174.424H14.6429Z" fill="#CEEEFF"/>
</g>
<defs>
<clipPath id="clip0_221_5647">
<rect width="410" height="102" fill="white" transform="translate(0 87)"/>
</clipPath>
</defs>
</svg>
