<svg width="328" height="215" viewBox="0 0 328 215" fill="none" xmlns="http://www.w3.org/2000/svg">
<path d="M241.672 165.792H248.881V173H241.672V165.792Z" fill="#221F24"/>
<path d="M205.627 165.792H212.836V173H205.627V165.792Z" fill="#221F24"/>
<path d="M205.627 151.375V165.792H212.836V158.583H241.672V165.792H248.881V151.375H205.627Z" fill="#374C75"/>
<path d="M263.299 129.75H270.508V144.167H263.299V129.75Z" fill="#DB8153"/>
<path d="M184 129.75H191.209V144.167H184V129.75Z" fill="#E69D6A"/>
<path d="M248.881 129.75V136.958H205.627V129.75H191.209V144.167H205.627V151.375H248.881V144.167H263.299V129.75H248.881Z" fill="#312D36"/>
<path d="M205.627 129.75H248.881V136.958H205.627V129.75Z" fill="#221F24"/>
<path d="M198.418 122.542H205.627V129.75H198.418V122.542Z" fill="#DB8153"/>
<path d="M191.209 122.541H198.418V100.917H184V108.125H191.209V122.541Z" fill="#DB8153"/>
<path d="M184 108.125H191.209V115.333H184V108.125Z" fill="#615D5D"/>
<path d="M227.254 108.125V115.333H241.672V108.125H248.881V93.7085H220.045V108.125H227.254Z" fill="#F1EEE9"/>
<path d="M256.09 86.5H263.299V100.917H256.09V86.5Z" fill="#1F1119"/>
<path d="M205.627 86.5H212.836V100.917H205.627V86.5Z" fill="#1F1119"/>
<path d="M191.209 100.917H198.418V86.5H205.627V79.2917H292.136V72.0833H191.209V64.875H184V93.7083H191.209V100.917Z" fill="#615D5D"/>
<path d="M184 93.7085H191.209V100.917H184V93.7085Z" fill="#E69D6A"/>
<path d="M263.299 86.5H270.508V122.542H263.299V129.75H205.627V122.542H198.418V93.7083H205.627V100.917H212.836V86.5H256.09V100.917H263.299V86.5ZM220.045 108.125H227.254V115.333H241.672V108.125H248.881V93.7083H220.045V108.125Z" fill="#E69D6A"/>
<path d="M198.418 86.5H205.627V93.7083H198.418V86.5Z" fill="#DB8153"/>
<path d="M205.627 79.2915H270.508V86.4998H205.627V79.2915Z" fill="#DB8153"/>
<path d="M292.136 64.875H299.345V72.0833H292.136V64.875Z" fill="#615D5D"/>
<path d="M306.554 50.4583V64.875H292.136V72.0833H191.209V64.875H184V7.20833H191.209V21.625H198.418V7.20833H191.209V0H205.627V21.625H241.672V0H256.09V7.20833H248.881V21.625H256.09V7.20833H263.299V36.0417H284.927V43.25H292.136V50.4583H306.554ZM241.672 28.8333V43.25H248.881V28.8333H241.672ZM205.627 28.8333V43.25H212.836V28.8333H205.627Z" fill="#7D7878"/>
<path d="M284.927 36.0415V43.2498H292.136V50.4582H306.554V36.0415H284.927Z" fill="#312D36"/>
<path d="M241.672 28.8335H248.881V43.2502H241.672V28.8335Z" fill="#312D36"/>
<path d="M205.627 28.8335H212.836V43.2502H205.627V28.8335Z" fill="#312D36"/>
<path d="M191.209 7.2085H198.418V21.6252H191.209V7.2085Z" fill="#615D5D"/>
<path d="M248.881 7.2085H256.09V21.6252H248.881V7.2085Z" fill="#615D5D"/>
<g clip-path="url(#clip0_221_5648)">
<path d="M-59.6429 200.567V186.135H-45.2857V171.716H-30.9286V157.284H-16.5714H-2.21429V171.716H12.1429V186.135H26.5V171.716H40.8571V157.284H55.2143V142.851H69.5714V128.433H83.9286V114H98.2857H112.643H127H141.357V128.433H155.714V142.851H170.071V157.284H184.429V171.716H198.786V157.284H213.143H227.5H241.857V171.716H256.214H270.571H284.929H299.286V186.135H313.643V200.567H328V215H313.643H299.286H284.929H270.571H256.214H241.857H227.5H213.143H198.786H184.429H170.071H155.714H141.357H127H112.643H98.2857H83.9286H69.5714H55.2143H40.8571H26.5H12.1429H-2.21429H-16.5714H-30.9286H-45.2857H-59.6429H-74V200.567H-59.6429Z" fill="white"/>
<path d="M198.786 171.716H184.429V186.149H198.786V171.716Z" fill="#CEEEFF"/>
<path d="M83.9286 128.433H69.5714V142.865H83.9286V128.433Z" fill="#CEEEFF"/>
<path d="M-59.6429 200.567V186.135H-45.2857V171.702H-30.9286V186.135H-16.5714V200.567H26.5V171.716H40.8571V157.284H55.2143V142.851H69.5714V186.135H98.2857V200.567H198.786V186.135H227.5V200.567H328V215H-74V200.567H-59.6429Z" fill="#CEEEFF"/>
</g>
<defs>
<clipPath id="clip0_221_5648">
<rect width="402" height="101" fill="white" transform="translate(-74 114)"/>
</clipPath>
</defs>
</svg>
