<svg width="24" height="101" viewBox="0 0 24 101" fill="none" xmlns="http://www.w3.org/2000/svg">
<mask id="mask0_190_130" style="mask-type:alpha" maskUnits="userSpaceOnUse" x="0" y="0" width="24" height="101">
<rect width="24" height="101" fill="#D9D9D9"/>
</mask>
<g mask="url(#mask0_190_130)">
<path d="M427.012 12.6342H423.002V6.32624H415.026V0.000244141H407.05H167.624H159.626H151.65H143.674H135.699H127.7H119.725H111.749H103.774H95.7754H87.7998H79.8243H71.8487H63.8504H55.8748H47.8992H39.9237H31.9253H23.9497H15.9742V6.32624H7.9986V12.6342H0.000244141V18.9422V25.2502V31.5762V37.8841V82.076V88.3839H7.9986V94.6919H15.9742V95.9715V101H23.9497H31.9253H39.9237H47.8992H55.8748H63.8504H71.8487H79.8243H119.725H127.7H135.699H143.674H151.65H159.626H167.624H407.05H415.026V94.6919H423.002V88.3839H427.012H431V82.076V37.8841V31.5762V25.2502V18.9422V12.6342H427.012Z" fill="#FF953E"/>
<path d="M15.9731 6.32666H7.99756V12.6346H15.9731V6.32666Z" fill="black"/>
<path d="M0 18.9423V25.2502V31.5762V75.75V82.076V88.384H7.99836V82.076V75.75V31.5762V25.2502V18.9423V12.6343H0V18.9423Z" fill="black"/>
<path d="M8 18.9423V25.2502V31.5762V75.75V82.076V88.384H15.9984V82.076V75.75V31.5762V25.2502V18.9423V12.6343H8V18.9423Z" fill="#FFB374"/>
<path d="M381.774 89L348.547 89L315.226 89L82.5475 89L49.2263 89L16 89L16 95L49.2263 95L82.5475 95L315.226 95L348.547 95L381.774 95L415 95L415 89L381.774 89Z" fill="#AF4628"/>
<path d="M16 17.9174V16.8349V15.7492V8.16821V7.08256V6H24V7.08256V8.16821V15.7492V16.8349V17.9174V19H16V17.9174Z" fill="#FFB374"/>
<path d="M15.9731 88.3843H7.99756V94.6923H15.9731V88.3843Z" fill="black"/>
<path d="M415.025 0H407.049H399.074H391.075H383.1H375.124H103.772H95.7741H87.7986H79.823H71.8474H63.8491H55.8735H47.898H39.9224H31.924H23.9485H15.9729V6.326H23.9485H31.924H39.9224H47.898H55.8735H63.8491H71.8474H79.823H87.7986H95.7741H103.772H375.124H383.1H391.075H399.074H407.049H415.025H391.075H399.074V0H391.075H415.025Z" fill="black"/>
<path d="M23.9485 101H31.924H39.9224H47.898H55.8735H63.8491H71.8474H79.823H375.124H383.1H391.075H395.086H399.074H407.049H415.025H391.075H399.074V94.6921H391.075H415.025H407.049H399.074H395.086H391.075H383.1H375.124H79.823H71.8474H63.8491H55.8735H47.898H39.9224H31.924H23.9485H15.9729V101H23.9485Z" fill="black"/>
</g>
</svg>
