<svg width="24" height="101" viewBox="0 0 24 101" fill="none" xmlns="http://www.w3.org/2000/svg">
<mask id="mask0_190_227" style="mask-type:alpha" maskUnits="userSpaceOnUse" x="0" y="0" width="24" height="101">
<rect width="24" height="101" fill="#D9D9D9"/>
</mask>
<g mask="url(#mask0_190_227)">
<path d="M50.0121 12.6342H46.0015V6.32624H38.026V0.000244141H30.0504H-209.376H-217.374H-225.35H-233.326H-241.301H-249.3H-257.275H-265.251H-273.226H-281.225H-289.2H-297.176H-305.151H-313.15H-321.125H-329.101H-337.076H-345.075H-353.05H-361.026V6.32624H-369.001V12.6342H-377V18.9422V25.2502V31.5762V37.8841V82.076V88.3839H-369.001V94.6919H-361.026V95.9715V101H-353.05H-345.075H-337.076H-329.101H-321.125H-313.15H-305.151H-297.176H-257.275H-249.3H-241.301H-233.326H-225.35H-217.374H-209.376H30.0504H38.026V94.6919H46.0015V88.3839H50.0121H53.9999V82.076V37.8841V31.5762V25.2502V18.9422V12.6342H50.0121Z" fill="#FF953E"/>
<path d="M5.43992 5L-27.1202 5L-59.7733 5L-287.787 4.99999L-320.44 4.99998L-353 4.99998L-353 13L-320.44 13L-287.787 13L-59.7733 13L-27.1202 13L5.43992 13L38 13L38 5L5.43992 5Z" fill="#FFB374"/>
<path d="M4.77373 89L-28.4525 89L-61.7737 89L-294.453 89L-327.774 89L-361 89L-361 95L-327.774 95L-294.453 95L-61.7737 95L-28.4525 95L4.77373 95L38 95L38 89L4.77373 89Z" fill="#AF4628"/>
<path d="M38.0251 6.326V0H30.0495H22.074V6.326H30.0495H38.0251V12.634H46.0007V6.326H38.0251Z" fill="black"/>
<path d="M38.0249 94.6923H30.0493H22.0737V101H30.0493H38.0249V94.6923H46.0004V88.3843H38.0249V94.6923Z" fill="black"/>
<path d="M38.025 0H30.0494H22.0738H14.0755H6.0999H-1.87567H-273.227H-281.226H-289.201H-297.177H-305.152H-313.151H-321.126H-329.102H-337.077H-345.076H-353.051H-361.027V6.326H-353.051H-345.076H-337.077H-329.102H-321.126H-313.151H-305.152H-297.177H-289.201H-281.226H-273.227H-1.87567H6.0999H14.0755H22.0738H30.0494H38.025H14.0755H22.0738V0H14.0755H38.025Z" fill="black"/>
<path d="M-353.051 101H-345.076H-337.077H-329.102H-321.126H-313.151H-305.152H-297.177H-1.87567H6.0999H14.0755H18.0861H22.0738H30.0494H38.025H14.0755H22.0738V94.6921H14.0755H38.025H30.0494H22.0738H18.0861H14.0755H6.0999H-1.87567H-297.177H-305.152H-313.151H-321.126H-329.102H-337.077H-345.076H-353.051H-361.027V101H-353.051Z" fill="black"/>
</g>
</svg>
