<svg width="24" height="101" viewBox="0 0 24 101" fill="none" xmlns="http://www.w3.org/2000/svg">
<mask id="mask0_190_194" style="mask-type:alpha" maskUnits="userSpaceOnUse" x="0" y="0" width="24" height="101">
<rect width="24" height="101" fill="#D9D9D9"/>
</mask>
<g mask="url(#mask0_190_194)">
<path d="M20.0121 12.6342H16.0015V6.32624H8.02598V0.000244141H0.0504217H-239.376H-247.374H-255.35H-263.326H-271.301H-279.3H-287.275H-295.251H-303.226H-311.225H-319.2H-327.176H-335.151H-343.15H-351.125H-359.101H-367.076H-375.075H-383.05H-391.026V6.32624H-399.001V12.6342H-407V18.9422V25.2502V31.5762V37.8841V82.076V88.3839H-399.001V94.6919H-391.026V95.9715V101H-383.05H-375.075H-367.076H-359.101H-351.125H-343.15H-335.151H-327.176H-287.275H-279.3H-271.301H-263.326H-255.35H-247.374H-239.376H0.0504217H8.02598V94.6919H16.0015V88.3839H20.0121H23.9999V82.076V37.8841V31.5762V25.2502V18.9422V12.6342H20.0121Z" fill="#FF953E"/>
<path d="M8 18.9423V25.2502V31.5762V75.75V82.076V88.384H15.9984V82.076V75.75V31.5762V25.2502V18.9423V12.6343H8V18.9423Z" fill="#FFB374"/>
<path d="M-24.5601 5L-57.1202 5L-89.7733 5L-317.787 4.99999L-350.44 4.99998L-383 4.99998L-383 13L-350.44 13L-317.787 13L-89.7733 13L-57.1202 13L-24.5601 13L8 13L8 5L-24.5601 5Z" fill="#FFB374"/>
<path d="M-25.2263 89L-58.4525 89L-91.7737 89L-324.453 89L-357.774 89L-391 89L-391 95L-357.774 95L-324.453 95L-91.7737 95L-58.4525 95L-25.2263 95L8 95L8 89L-25.2263 89Z" fill="#AF4628"/>
<path d="M0 17.9174V16.8349V15.7492V8.16821V7.08256V6H8V7.08256V8.16821V15.7492V16.8349V17.9174V19H0V17.9174Z" fill="#FFB374"/>
<path d="M8.02511 6.326V0H0.0495418H-7.92603V6.326H0.0495418H8.02511V12.634H16.0007V6.326H8.02511Z" fill="black"/>
<path d="M16.001 12.6338V18.9418V25.2497V31.5757V75.7496V82.0756V88.3835H23.9993V82.0756V75.7496V31.5757V25.2497V18.9418V12.6338H16.001Z" fill="black"/>
<path d="M8.02486 94.6923H0.0492977H-7.92627V101H0.0492977H8.02486V94.6923H16.0004V88.3843H8.02486V94.6923Z" fill="black"/>
<path d="M8.02498 0H0.0494101H-7.92616H-15.9245H-23.9001H-31.8757H-303.227H-311.226H-319.201H-327.177H-335.152H-343.151H-351.126H-359.102H-367.077H-375.076H-383.051H-391.027V6.326H-383.051H-375.076H-367.077H-359.102H-351.126H-343.151H-335.152H-327.177H-319.201H-311.226H-303.227H-31.8757H-23.9001H-15.9245H-7.92616H0.0494101H8.02498H-15.9245H-7.92616V0H-15.9245H8.02498Z" fill="black"/>
<path d="M-383.051 101H-375.076H-367.077H-359.102H-351.126H-343.151H-335.152H-327.177H-31.8757H-23.9001H-15.9245H-11.9139H-7.92616H0.0494101H8.02498H-15.9245H-7.92616V94.6921H-15.9245H8.02498H0.0494101H-7.92616H-11.9139H-15.9245H-23.9001H-31.8757H-327.177H-335.152H-343.151H-351.126H-359.102H-367.077H-375.076H-383.051H-391.027V101H-383.051Z" fill="black"/>
</g>
</svg>
