<svg  viewBox="0 0 292 73" fill="none" xmlns="http://www.w3.org/2000/svg">
<g clip-path="url(#clip0_161_1736)">
<path d="M10.4 62.5V52.08H20.8V41.67H31.2V31.25H41.6H52V41.67H62.4V52.08H72.8V41.67H83.2V31.25H93.6V20.83H104V10.42H114.4V0H124.8H135.2H145.6H156V10.42H166.4V20.83H176.8V31.25H187.2V41.67H197.6V31.25H208H218.4H228.8V41.67H239.2H249.6H260H270.4V52.08H280.8V62.5H291.2V72.92H280.8H270.4H260H249.6H239.2H228.8H218.4H208H197.6H187.2H176.8H166.4H156H145.6H135.2H124.8H114.4H104H93.6H83.2H72.8H62.4H52H41.6H31.2H20.8H10.4H0V62.5H10.4Z" fill="white"/>
<path d="M197.6 41.67H187.2V52.09H197.6V41.67Z" fill="#CEEEFF"/>
<path d="M114.4 10.42H104V20.84H114.4V10.42Z" fill="#CEEEFF"/>
<path d="M10.4 62.5V52.08H20.8V41.66H31.2V52.08H41.6V62.5H72.8V41.67H83.2V31.25H93.6V20.83H104V52.08H124.8V62.5H197.6V52.08H218.4V62.5H291.2V72.92H0V62.5H10.4Z" fill="#CEEEFF"/>
</g>
<defs>
<clipPath id="clip0_161_1736">
<rect width="291.2" height="72.92" fill="white"/>
</clipPath>
</defs>
</svg>
