<svg  viewBox="0 0 55 55" fill="none" xmlns="http://www.w3.org/2000/svg">
<g clip-path="url(#clip0_211_126)">
<path d="M36.7185 41.2501H41.2501V36.7185H36.7185V41.2501Z" fill="#FCF100"/>
<path d="M41.2502 36.7186H45.7818V18.2808H41.2502V36.7186Z" fill="#FCF100"/>
<path d="M32.0312 45.9376H36.7186V41.2502H32.0312V45.9376Z" fill="#FCF100"/>
<path d="M41.2501 18.2813V13.7498H36.7185V18.2813H41.2501Z" fill="#FCF100"/>
<path d="M9.06256 41.2502V45.9376H13.7499V50.4692H41.2502V45.9376H45.7818V41.2502H50.4692V13.7499H45.7818V9.21837H41.2502V4.53101H13.7499V9.21837H9.06256V13.7499H4.53101V41.2502H9.06256ZM9.06256 18.2815H13.7499V13.7499H18.2815V9.21837H36.7193V13.7499H41.2509V18.2815H45.7824V36.7193H41.2509V41.2509H36.7193V45.9382H18.2815V41.2509H13.7499V36.7193H9.06256V18.2815Z" fill="#FEC100"/>
<path d="M22.8124 18.2814H18.2808V22.9688H13.7493V36.7187H18.2808V41.2502H27.4997V36.7187H32.0313V32.0313H36.7187V27.4997H41.2502V18.2808H36.7187V13.7493H22.8124V18.2808V18.2814Z" fill="#FEC100"/>
<path d="M45.7817 45.9376H50.4691V41.2502H45.7817V45.9376Z" fill="#633B14"/>
<path d="M41.2501 0H13.7498V4.53155H41.2501V0Z" fill="#633B14"/>
<path d="M55.0001 41.2501V13.7498H50.4685V41.2501H55.0001Z" fill="#633B14"/>
<path d="M4.53149 41.2502V45.9376H9.06305V41.2502H4.53149Z" fill="#633B14"/>
<path d="M13.7498 55.0001H41.2501V50.4685H13.7498V55.0001Z" fill="#633B14"/>
<path d="M9.0625 45.9375V50.4691H13.7499V45.9375H9.0625Z" fill="#633B14"/>
<path d="M9.06256 9.21899H4.53101V13.7505H9.06256V9.21899Z" fill="#633B14"/>
<path d="M45.7818 9.21886V4.53149H41.2502V9.21886H45.7818Z" fill="#633B14"/>
<path d="M50.4691 13.7498V9.21826H45.7817V13.7498H50.4691Z" fill="#633B14"/>
<path d="M4.53155 13.7498H0V41.2501H4.53155V13.7498Z" fill="#633B14"/>
<path d="M13.7499 4.53149H9.0625V9.21886H13.7499V4.53149Z" fill="#633B14"/>
<path d="M41.2502 50.4691H45.7818V45.9375H41.2502V50.4691Z" fill="#633B14"/>
<path d="M18.2813 22.9689V18.2815H13.7498V22.9689H18.2813Z" fill="white"/>
<path d="M22.8123 18.2813V13.7498H18.2808V18.2813H22.8123Z" fill="white"/>
<path d="M36.7187 27.5002V32.0318H32.0313V36.7192H27.4998V41.2507H36.7187V36.7192H41.2502V27.5002H36.7187Z" fill="white"/>
<path d="M27.5004 41.2502H18.2815V45.9376H32.0313V41.2502H27.4998H27.5004Z" fill="#D88600"/>
<path d="M36.7186 13.7498V9.21826H18.2808V13.7498H36.7186Z" fill="#D88600"/>
<path d="M18.2813 13.7498H13.7498V18.2813H18.2813V13.7498Z" fill="#D88600"/>
<path d="M13.7499 22.9689V18.2815H9.0625V36.7193H13.7499V22.9695V22.9689Z" fill="#D88600"/>
<path d="M13.7498 36.7185V41.2501H18.2813V36.7185H13.7498Z" fill="#D88600"/>
</g>
<defs>
<clipPath id="clip0_211_126">
<rect width="55" height="55" fill="white"/>
</clipPath>
</defs>
</svg>
