<svg  viewBox="0 0 746 564" fill="none" xmlns="http://www.w3.org/2000/svg">
<path d="M288.587 229.423H295.504V222.506H288.587V229.423ZM302.421 91.1582V215.601H309.338V91.1582H302.421ZM295.504 222.506H302.421V215.589H295.504V222.506ZM281.683 236.327H288.6V229.41H281.683V236.327ZM247.11 91.1582H240.193V187.946H247.11V91.1582ZM226.372 243.244H281.683V236.327H226.372V243.244Z" fill="white"/>
<path d="M260.932 194.851H233.289V84.2415H198.717V208.672H205.634V215.589H212.55V222.506H219.455V229.423H274.766V222.506H281.683V215.589H288.587V208.672H295.504V84.2415H260.932V194.851Z" fill="#0900FF"/>
<path d="M288.587 194.85V187.933H281.671V194.85H288.587ZM288.587 167.195V160.278H281.671V167.195H288.587ZM219.455 132.635H226.372V111.897H219.455V118.814H212.538V125.73H219.455V132.647V132.635ZM288.587 111.897V104.98H281.671V111.897H288.587ZM233.289 194.85V187.933H226.372V194.85H233.289ZM219.455 104.98H226.372V91.1582H212.551V98.0751H219.467V104.992L219.455 104.98ZM240.194 201.767V194.85H233.277V201.767H240.194ZM219.455 139.54V132.623H212.538V125.706H205.621V146.444H212.538V139.527H219.455V139.54ZM205.634 208.672V215.589H212.551V208.672H205.634ZM212.551 222.506H219.467V215.589H212.551V222.506ZM219.455 111.897V104.98H212.538V98.0627H205.621V118.801H212.538V111.884H219.455V111.897ZM288.587 139.54V132.623H281.671V139.54H288.587ZM267.849 160.29V167.207H274.766V160.29H267.849ZM274.766 146.457H267.849V153.374H274.766V160.29H281.683V153.374H288.6V146.457H281.683V139.54H274.766V146.457ZM274.766 174.112H267.849V181.029H274.766V187.946H281.683V181.029H288.6V174.112H281.683V167.195H274.766V174.112ZM267.849 132.635V139.552H274.766V132.635H267.849ZM288.587 98.0627V91.1458H267.849V98.0627H274.766V104.98H281.683V98.0627H288.6H288.587ZM267.849 187.933V194.85H274.766V187.933H267.849ZM267.849 104.98V111.897H274.766V104.98H267.849ZM274.766 118.801H267.849V125.718H274.766V132.635H281.683V125.718H288.6V118.801H281.683V111.884H274.766V118.801ZM219.455 187.933H226.372V167.195H219.455V174.112H212.538V181.029H219.455V187.946V187.933ZM219.455 160.29H226.372V139.552H219.455V146.469H212.538V153.386H219.455V160.303V160.29ZM219.455 194.85V187.933H212.538V181.017H205.621V201.755H212.538V194.838H219.455V194.85ZM233.289 208.672V201.755H226.372V194.838H219.455V201.755H212.538V208.672H219.455V215.589H226.372V208.672H233.289ZM274.766 201.767H267.849V208.684H274.766V215.601H281.683V208.684H288.6V201.767H281.683V194.85H274.766V201.767ZM219.455 167.195V160.278H212.538V153.361H205.621V174.1H212.538V167.183H219.455V167.195ZM240.194 208.672H233.277V215.589H226.36V222.506H247.098V215.589H240.181V208.672H240.194ZM267.849 208.672H260.932V215.589H254.015V222.506H274.754V215.589H267.837V208.672H267.849ZM260.932 208.672V201.755H240.194V208.672H247.111V215.589H254.027V208.672H260.944H260.932Z" fill="#004DFF"/>
<path d="M233.289 84.2413H226.372V187.934H233.289V84.2413ZM219.455 229.423H274.766V222.506H219.455V229.423ZM274.766 222.506H281.683V215.589H274.766V222.506ZM281.683 215.589H288.6V208.672H281.683V215.589ZM288.587 84.2413V208.684H295.504V84.2413H288.587Z" fill="#000793"/>
<g style="mix-blend-mode:screen" opacity="0.9">
<path d="M198.717 208.672H205.634V91.1458H233.289V84.2289H198.729V208.672H198.717ZM260.932 84.2412V194.85H240.194V201.767H267.849V91.1582H295.504V84.2412H260.944H260.932Z" fill="white"/>
</g>
<path d="M173.305 111.884V146.444H159.484V153.361H180.222V111.884H173.305ZM152.567 236.315H159.484V229.398H152.567V236.315ZM124.911 125.706H117.995V132.623H124.911V125.706ZM97.2561 243.232H152.567V236.315H97.2561V243.232ZM159.484 229.41H166.401V222.493H159.484V229.41ZM173.305 215.576H180.222V167.183H173.305V215.576ZM166.388 222.493H173.305V215.576H166.388V222.493Z" fill="white"/>
<path d="M76.5182 215.577H83.4351V222.494H90.352V229.41H145.65V222.494H152.567V215.577H159.484V208.66H166.389V160.278H152.567V153.361H138.746V146.444H124.912V139.527H111.09V132.623H104.174V118.789H131.829V139.527H166.389V104.967H159.484V98.0505H152.567V91.1459H145.65V84.2289H90.352V91.1459H83.4351V98.0505H76.5182V104.967H69.6135V153.361H83.4351V160.278H97.2566V167.183H111.09V174.1H124.912V181.017H131.829V194.838H104.174V174.1H69.6135V208.66H76.5182V215.577Z" fill="#0900FF"/>
<path d="M83.4345 132.623V139.54H90.3514V146.457H97.2684V139.54H104.185V132.623H97.2684V125.706H90.3514V132.623H83.4345ZM97.256 146.444V153.361H104.173V160.278H111.09V153.361H118.007V146.444H111.09V139.527H104.173V146.444H97.256ZM83.4345 111.884H76.5176V132.623H83.4345V125.706H90.3514V118.789H83.4345V111.872V111.884ZM111.09 160.278V167.195H131.828V160.278H124.911V153.361H117.995V160.278H111.078H111.09ZM145.65 187.921H138.733V194.838H145.65V201.755H152.567V194.838H159.484V187.921H152.567V181.004H145.65V187.921ZM159.484 208.66V201.743H152.567V208.66H159.484ZM138.745 222.493H145.662V215.577H138.745V222.493ZM145.65 167.183V174.1H152.567V160.278H138.745V167.195H145.662L145.65 167.183ZM97.256 98.0504H90.3391V104.967H83.4221V111.884H90.3391V118.801H97.256V111.884H104.173V104.967H97.256V98.0504ZM159.484 181.017V174.1H152.567V181.017H159.484ZM138.745 153.361H131.828V160.278H138.745V153.361ZM145.65 181.017V174.1H138.733V167.183H131.816V174.1H124.899V181.017H131.816V187.934H138.733V181.017H145.65ZM138.745 118.789V111.872H131.828V125.693H145.65V118.777H138.733L138.745 118.789ZM76.5176 139.527V146.444H83.4345V139.527H76.5176ZM159.484 125.706V118.789H152.567V125.706H159.484ZM145.65 132.623H152.567V125.706H145.65V132.623ZM76.5176 181.017V187.934H83.4345V181.017H76.5176ZM83.4345 153.361H90.3514V146.444H83.4345V153.361ZM97.256 208.66H90.3391V215.577H83.4221V222.493H104.161V215.577H97.2437V208.66H97.256ZM124.911 104.967V98.0504H117.995V104.967H111.078V111.884H131.816V104.967H124.899H124.911ZM118.007 98.0504V91.1335H97.2684V98.0504H104.185V104.967H111.102V98.0504H118.019H118.007ZM131.828 104.967H138.745V98.0504H145.662V91.1335H124.924V98.0504H131.841V104.967H131.828ZM159.484 111.884V104.967H152.567V98.0504H145.65V104.967H138.733V111.884H145.65V118.801H152.567V111.884H159.484ZM145.65 215.577H152.567V208.66H145.65V215.577ZM90.3514 208.66V201.743H83.4345V194.826H76.5176V215.564H83.4345V208.647H90.3514V208.66ZM118.007 208.66V201.743H111.09V194.826H104.173V201.743H97.256V208.66H104.173V215.577H111.09V208.66H118.007ZM145.65 208.66V201.743H124.911V208.66H131.828V215.577H138.745V208.66H145.662H145.65ZM124.911 208.66H117.995V215.577H111.078V222.493H131.816V215.577H124.899V208.66H124.911ZM90.3514 201.755H97.2684V194.838H104.185V187.921H97.2684V181.004H90.3514V187.921H83.4345V194.838H90.3514V201.755Z" fill="#004DFF"/>
<path d="M97.2563 160.278V153.361H83.4347V160.278H97.2563ZM97.2563 187.921H104.173V174.1H97.2563V187.921ZM111.09 167.183V160.266H97.2686V167.183H111.09ZM145.65 222.493H152.567V215.577H145.65V222.493ZM90.3516 229.41H145.662V222.493H90.3516V229.41ZM159.484 104.967V132.623H131.829V139.54H166.389V104.98H159.472L159.484 104.967ZM104.173 118.789H124.912V111.872H97.2563V125.693H104.173V118.777V118.789ZM124.912 174.1V167.183H111.09V174.1H124.912ZM152.567 215.577H159.484V208.66H152.567V215.577ZM159.484 208.66H166.401V160.266H159.484V208.66ZM69.6132 146.444V153.361H83.4347V146.444H69.6132Z" fill="#000793"/>
<g style="mix-blend-mode:screen" opacity="0.9">
<path d="M83.4347 98.0504H76.5177V104.967H83.4347V98.0504ZM76.5177 104.967H69.6008V153.361H76.5177V104.967ZM152.567 160.278V167.195H166.389V160.278H152.567ZM90.3516 91.1458H83.4347V98.0627H90.3516V91.1458ZM145.65 84.2289H90.3392V91.1458H145.65V84.2289ZM111.09 139.527V146.444H124.912V139.527H111.09ZM138.745 139.527V125.706H131.828V139.527H138.745ZM124.912 146.444V153.361H138.733V146.444H124.912ZM138.745 153.361V160.278H152.567V153.361H138.745ZM131.828 194.838H111.09V201.755H138.745V187.933H131.828V194.85V194.838ZM69.6131 208.66H76.5301V181.004H104.185V174.087H69.6254V208.647L69.6131 208.66Z" fill="white"/>
</g>
<path d="M607.749 139.552H614.666V132.635H621.583V125.718H607.762V139.54L607.749 139.552ZM669.965 236.34H635.405V243.257H676.882V181.041H669.965V236.352V236.34ZM663.048 167.207H669.965V160.29H663.048V167.207ZM669.965 111.909V160.303H676.882V111.909H669.965ZM607.749 236.34H573.189V243.257H614.666V194.863H621.583V187.946H607.762V236.34H607.749Z" fill="white"/>
<path d="M600.832 181.041H628.488V229.435H663.048V174.124H656.131V167.207H649.214V160.29H656.131V153.374H663.048V104.98H656.131V98.0627H649.214V91.1458H642.297V84.2289H566.248V229.41H600.808V181.017L600.832 181.041ZM600.832 118.814H628.488V146.469H600.832V118.814Z" fill="#0900FF"/>
<path d="M621.57 118.814H628.487V111.897H621.57V118.814ZM621.57 104.992H628.487V98.0751H635.404V91.1582H614.666V98.0751H621.583V104.992H621.57ZM628.487 125.731H635.404V118.814H628.487V125.731ZM573.177 201.78V208.697H580.094V201.78H573.177ZM580.094 187.946H573.177V194.863H580.094V201.78H587.011V194.863H593.927V187.946H587.011V181.029H580.094V187.946ZM573.177 174.124V181.041H580.094V174.124H573.177ZM593.915 208.684V201.767H586.998V208.684H593.915ZM580.094 215.601H573.177V222.518H593.915V215.601H586.998V208.684H580.081V215.601H580.094ZM573.177 146.469V153.386H580.094V146.469H573.177ZM649.226 91.1705H642.309V98.0875H649.226V91.1705ZM656.143 104.992V98.0751H649.226V104.992H656.143ZM600.832 104.992V111.909H621.57V104.992H614.654V98.0751H607.737V104.992H600.82H600.832ZM573.177 91.1705V98.0875H580.094V91.1705H573.177ZM573.177 118.814V125.731H580.094V118.814H573.177ZM642.309 174.124V181.041H649.226V187.958H656.143V167.22H649.226V174.137H642.309V174.124ZM593.915 104.992H600.832V98.0751H607.749V91.1582H587.011V98.0751H593.927V104.992H593.915ZM642.309 181.041H635.392V201.78H642.309V194.863H649.226V187.946H642.309V181.029V181.041ZM642.309 208.684H635.392V222.506H649.214V215.589H642.297V208.672L642.309 208.684ZM642.309 201.78V208.697H649.226V215.614H656.143V194.875H649.226V201.792H642.309V201.78ZM642.309 118.814V125.731H649.226V132.647H656.143V111.909H649.226V118.826H642.309V118.814ZM642.309 146.469V153.386H656.13V139.564H649.214V146.481H642.297L642.309 146.469ZM628.487 174.124V167.207H621.57V181.029H635.392V174.112H628.475L628.487 174.124ZM642.309 104.992V98.0751H635.392V104.992H628.475V111.909H635.392V118.826H642.309V111.909H649.226V104.992H642.309ZM642.309 125.731H635.392V146.469H642.309V139.552H649.226V132.635H642.309V125.718V125.731ZM635.392 160.303H628.475V167.22H635.392V174.137H642.309V167.22H649.226V160.303H642.309V153.386H635.392V160.303ZM587.011 139.552H593.927V132.635H587.011V125.718H580.094V132.635H573.177V139.552H580.094V146.469H587.011V139.552ZM587.011 146.469V153.386H593.927V160.303H600.844V153.386H607.761V146.469H600.844V139.552H593.927V146.469H587.011ZM593.915 125.731V118.814H586.998V125.731H593.915ZM628.487 153.386H621.57V160.303H628.487V153.386ZM587.011 111.909H593.927V104.992H587.011V98.0751H580.094V104.992H573.177V111.909H580.094V118.826H587.011V111.909ZM593.915 174.124H600.832V167.207H593.915V174.124ZM614.654 160.303V153.386H607.737V160.303H600.82V167.22H607.737V174.137H614.654V167.22H621.57V160.303H614.654ZM587.011 181.041H593.927V174.124H587.011V181.041ZM587.011 167.207H593.927V160.291H587.011V153.374H580.094V160.291H573.177V167.207H580.094V174.124H587.011V167.207Z" fill="#004DFF"/>
<path d="M649.226 160.303H656.143V153.386H649.226V160.303ZM656.143 222.518H628.488V229.435H663.047V174.124H656.131V222.518H656.143ZM593.915 139.552H600.832V118.814H621.571V111.897H593.915V139.552ZM656.143 104.992V153.386H663.06V104.992H656.143ZM593.915 222.518H566.26V229.435H600.82V181.041H621.558V174.124H593.903V222.518H593.915Z" fill="#000793"/>
<g style="mix-blend-mode:screen" opacity="0.9">
<path d="M566.272 84.2536V229.435H573.189V91.1705H642.321V84.2536H566.272ZM628.487 146.469H607.749V153.386H635.404V125.731H628.487V146.469ZM628.487 229.435H635.404V187.958H628.487V229.435Z" fill="white"/>
</g>
<path d="M376.239 132.647H383.156V125.73H369.335V139.552H376.252V132.635L376.239 132.647ZM424.633 174.124H431.55V167.207H424.633V174.124ZM417.716 181.041H424.633V174.124H417.716V181.041ZM410.812 187.946H417.728V181.029H410.812V187.946ZM431.55 111.909V167.22H438.467V111.909H431.55ZM369.322 236.34H334.762V243.257H376.239V194.863H410.799V187.946H369.322V236.34Z" fill="white"/>
<path d="M327.845 84.2535V229.435H362.405V181.041H403.882V174.124H410.799V167.207H417.716V160.29H424.633V104.98H417.716V98.0627H410.799V91.1458H403.882V84.2289H327.833L327.845 84.2535ZM390.073 146.469H362.417V118.814H390.073V146.469Z" fill="#0900FF"/>
<path d="M390.073 125.731H396.99V118.814H390.073V125.731ZM355.501 118.814H348.584V125.731H355.501V118.814ZM334.762 91.1705V98.0875H341.679V91.1705H334.762ZM334.762 174.124V181.041H341.679V174.124H334.762ZM334.762 146.469V153.386H341.679V146.469H334.762ZM334.762 118.814V125.731H341.679V118.814H334.762ZM383.156 153.386V160.303H390.073V153.386H383.156ZM410.812 91.1705H403.895V98.0875H410.812V91.1705ZM362.418 146.469V139.552H355.501V146.469H348.584V153.386H355.501V160.303H362.418V153.386H369.335V146.469H362.418ZM355.501 208.684V201.767H348.584V208.684H355.501ZM341.679 187.946H334.762V194.863H341.679V201.78H348.596V194.863H355.513V187.946H348.596V181.029H341.679V187.946ZM341.679 215.601H334.762V222.518H355.501V215.601H348.584V208.684H341.667V215.601H341.679ZM334.762 201.78V208.697H341.679V201.78H334.762ZM383.156 174.124H390.073V167.207H383.156V174.124ZM417.716 104.992V98.0751H410.799V104.992H417.716ZM403.895 153.386H396.978V160.303H390.061V167.22H396.978V174.137H403.895V167.22H410.812V160.303H403.895V153.386ZM403.895 125.731H396.978V146.469H403.895V139.552H410.812V132.635H403.895V125.718V125.731ZM403.895 146.469V153.386H410.812V160.303H417.728V139.564H410.812V146.481H403.895V146.469ZM376.239 160.303V153.386H369.322V160.303H362.405V167.22H369.322V174.137H376.239V167.22H383.156V160.303H376.239ZM355.501 174.124H362.418V167.207H355.501V174.124ZM403.895 104.992V98.0751H396.978V104.992H390.061V111.909H396.978V118.826H403.895V111.909H410.812V104.992H403.895ZM403.895 118.814V125.731H410.812V132.647H417.728V111.909H410.812V118.826H403.895V118.814ZM362.418 104.992V111.909H383.156V104.992H376.239V98.0751H369.322V104.992H362.405H362.418ZM348.584 181.041H355.501V174.124H348.584V181.041ZM383.156 118.814H390.073V111.897H383.156V118.814ZM383.156 104.992H390.073V98.0751H396.99V91.1582H376.252V98.0751H383.168V104.992H383.156ZM348.584 139.552H355.501V132.635H348.584V125.718H341.667V132.635H334.75V139.552H341.667V146.469H348.584V139.552ZM348.584 167.207H355.501V160.291H348.584V153.374H341.667V160.291H334.75V167.207H341.667V174.124H348.584V167.207ZM348.584 111.909H355.501V104.992H348.584V98.0751H341.667V104.992H334.75V111.909H341.667V118.826H348.584V111.909ZM355.501 104.992H362.418V98.0751H369.335V91.1582H348.596V98.0751H355.513V104.992H355.501Z" fill="#004DFF"/>
<path d="M362.418 118.814H383.156V111.897H355.501V139.552H362.418V118.814ZM355.501 222.518H327.845V229.435H362.405V181.041H403.882V174.124H355.488V222.518H355.501ZM403.894 174.124H410.811V167.207H403.894V174.124ZM417.716 104.992V160.303H424.633V104.992H417.716ZM410.811 167.207H417.728V160.29H410.811V167.207Z" fill="#000793"/>
<g style="mix-blend-mode:screen" opacity="0.9">
<path d="M390.073 146.469H369.334V153.386H396.99V125.73H390.073V146.469ZM327.845 84.2534V229.435H334.762V91.1703H403.894V84.2534H327.845Z" fill="white"/>
</g>
<path d="M540.837 91.1458V125.706H492.443V132.623H547.754V91.1458H540.837ZM540.837 236.315H457.883V243.232H547.754V201.755H540.837V236.315ZM540.837 181.017H492.443V187.934H547.754V146.457H540.837V181.017Z" fill="white"/>
<path d="M533.92 194.838H485.526V174.1H533.92V139.54H485.526V118.789H533.92V84.2289H450.966V229.41H533.92V194.838Z" fill="#0900FF"/>
<path d="M506.264 98.0504H499.347V104.967H492.43V111.884H513.169V104.967H506.252V98.0504H506.264ZM478.621 146.444V153.361H485.538V160.278H492.455V153.361H499.372V146.444H492.455V139.527H485.538V146.444H478.621ZM527.002 98.0504V91.1335H506.264V98.0504H513.181V104.967H520.098V98.0504H527.015H527.002ZM492.442 160.278V167.195H513.181V160.278H506.264V153.361H499.347V160.278H492.43H492.442ZM471.704 98.0504V91.1335H457.882V104.955H464.799V98.0381H471.716L471.704 98.0504ZM478.621 98.0504H471.704V104.967H464.787V111.884H471.704V118.801H478.621V111.884H485.538V104.967H478.621V98.0504ZM499.359 98.0504V91.1335H478.621V98.0504H485.538V104.967H492.455V98.0504H499.372H499.359ZM513.181 160.278H520.098V153.361H527.015V146.444H506.276V153.361H513.193V160.278H513.181ZM513.181 215.577H520.098V208.66H527.015V201.743H506.276V208.66H513.193V215.577H513.181ZM492.442 215.577V222.493H513.181V215.577H506.264V208.66H499.347V215.577H492.43H492.442ZM527.002 167.183V160.266H520.086V167.183H527.002ZM527.002 222.493V215.577H520.086V222.493H527.002ZM478.621 208.672H471.704V215.589H464.787V222.506H485.525V215.589H478.609V208.672H478.621ZM478.621 153.361H471.704V160.278H464.787V167.195H471.704V174.112H478.621V167.195H485.538V160.278H478.621V153.361ZM471.704 153.361V146.444H464.787V139.527H457.87V160.266H464.787V153.349H471.704V153.361ZM464.787 132.623V139.54H471.704V146.457H478.621V139.54H485.538V132.623H478.621V125.706H471.704V132.623H464.787ZM464.787 111.884H457.87V132.623H464.787V125.706H471.704V118.789H464.787V111.872V111.884ZM464.787 187.921V194.838H471.704V201.755H478.621V194.838H485.538V187.921H478.621V181.004H471.704V187.921H464.787ZM471.704 208.672V201.755H464.787V194.838H457.87V215.577H464.787V208.66H471.704V208.672ZM527.002 111.884V104.967H520.086V111.884H527.002ZM464.787 167.183H457.87V187.921H464.787V181.004H471.704V174.087H464.787V167.17V167.183ZM478.621 201.755V208.672H485.538V215.589H492.455V208.672H499.372V201.755H492.455V194.838H485.538V201.755H478.621Z" fill="#004DFF"/>
<path d="M527.002 167.183H478.609V187.921H485.526V174.1H533.919V139.54H527.002V167.195V167.183ZM527.002 84.2289V111.884H478.609V132.623H485.526V118.801H533.919V84.2289H527.002ZM527.002 222.493H450.953V229.41H533.907V194.85H526.99V222.506L527.002 222.493Z" fill="#000793"/>
<g style="mix-blend-mode:screen" opacity="0.9">
<path d="M492.443 201.755H533.92V194.838H492.443V201.755ZM492.443 146.444H533.92V139.527H492.443V146.444ZM450.966 84.2289V229.41H457.883V91.1458H533.932V84.2289H450.978H450.966Z" fill="white"/>
</g>
<path d="M76.0492 413.646H41.4891V420.562H82.9661V337.609H76.0492V413.658V413.646ZM82.9661 337.609H89.883V323.787H82.9661V337.609ZM103.704 296.119H110.622V282.298H103.704V296.119ZM110.609 268.476V282.298H117.526V268.476H110.609ZM96.7875 309.953H103.704V296.132H96.7875V309.953ZM89.8706 323.775H96.7875V309.953H89.8706V323.775Z" fill="white"/>
<path d="M69.1324 275.381H62.2278V289.215H55.3107V303.036H48.3938V289.215H41.4769V275.381H34.5724V261.56H0V275.381H6.91691V289.215H13.834V303.036H20.7385V316.858H27.6554V330.692H34.5724V406.741H69.1324V330.692H76.0493V316.858H82.9662V303.036H89.8708V289.215H96.7877V275.381H103.705V261.56H69.1324V275.381Z" fill="#0900FF"/>
<path d="M48.3937 316.858V323.775H55.3106V316.858H62.2276V309.941H55.3106V303.024H48.3937V309.941H41.4768V316.858H48.3937ZM76.0491 316.858V309.941H69.1322V316.858H76.0491ZM62.2276 385.99V379.073H55.3106V385.99H62.2276ZM62.2276 358.347V351.43H55.3106V358.347H62.2276ZM48.3937 365.252H41.4768V372.169H48.3937V379.086H55.3106V372.169H62.2276V365.252H55.3106V358.335H48.3937V365.252ZM6.91675 268.476V275.393H20.7384V268.476H6.91675ZM27.6553 309.953V316.87H34.5722V309.953H27.6553ZM34.5722 289.215V282.298H27.6553V275.381H20.7384V282.298H13.8215V289.215H20.7384V296.132H27.6553V289.215H34.5722ZM41.4768 289.215H34.5599V296.132H27.6429V303.049H34.5599V309.966H41.4768V289.227V289.215ZM41.4768 379.086V386.002H48.3937V379.086H41.4768ZM48.3937 392.907H41.4768V399.824H62.2153V392.907H55.2982V385.99H48.3813V392.907H48.3937ZM48.3937 337.609H41.4768V344.526H48.3937V351.442H55.3106V344.526H62.2276V337.609H55.3106V330.692H48.3937V337.609ZM41.4768 351.43V358.347H48.3937V351.43H41.4768ZM69.1322 289.215H62.2153V309.953H69.1322V303.036H76.0491V296.119H69.1322V289.202V289.215ZM62.2276 323.775H55.3106V330.692H69.1322V316.87H62.2153V323.787L62.2276 323.775ZM76.0491 275.381V282.298H69.1322V289.215H76.0491V296.132H82.966V289.215H89.8829V282.298H82.966V275.381H76.0491ZM96.7875 268.476H82.966V275.393H96.7875V268.476ZM41.4768 323.775V316.858H34.5599V330.679H48.3813V323.762H41.4644L41.4768 323.775Z" fill="#004DFF"/>
<path d="M41.477 289.215V275.393H34.5601V289.215H41.477ZM48.3939 303.036V289.215H41.477V303.036H48.3939ZM96.7877 261.559V275.381H103.705V261.559H96.7877ZM69.1324 330.692H76.0494V316.87H69.1324V330.692ZM89.8708 289.215H96.7877V275.393H89.8708V289.215ZM82.9663 303.036H89.8832V289.215H82.9663V303.036ZM76.0494 316.858H82.9663V303.036H76.0494V316.858ZM62.2279 399.824H34.5724V406.741H69.1324V330.692H62.2155V399.824H62.2279ZM34.5724 261.559H27.6555V275.381H34.5724V261.559Z" fill="#000793"/>
<g style="mix-blend-mode:screen" opacity="0.9">
<path d="M13.8342 289.215V303.036H20.7511V289.215H13.8342ZM69.1326 261.559V275.381H76.0495V268.464H103.705V261.547H69.145L69.1326 261.559ZM62.228 289.215H69.145V275.393H62.228V289.215ZM27.6557 316.858V330.679H34.5726V316.858H27.6557ZM55.311 309.953H62.228V289.215H55.311V309.953ZM34.5726 268.476V261.559H0.0125732V275.381H6.92948V268.464H34.5849L34.5726 268.476ZM20.7388 303.036V316.858H27.6557V303.036H20.7388ZM6.91714 275.381V289.202H13.8342V275.381H6.91714ZM34.5726 406.741H41.4895V330.692H34.5726V406.741Z" fill="white"/>
</g>
<path d="M219.574 406.741H226.491V399.824H219.574V406.741ZM233.408 268.476V392.919H240.324V268.476H233.408ZM226.491 399.824H233.408V392.907H226.491V399.824ZM212.669 413.645H219.586V406.728H212.669V413.645ZM178.097 268.476H171.18V365.264H178.097V268.476ZM157.358 420.562H212.669V413.645H157.358V420.562Z" fill="white"/>
<path d="M191.918 372.169H164.275V261.56H129.703V385.99H136.62V392.907H143.537V399.824H150.441V406.741H205.752V399.824H212.669V392.907H219.574V385.99H226.49V261.56H191.918V372.169Z" fill="#0900FF"/>
<path d="M219.574 372.169V365.252H212.657V372.169H219.574ZM219.574 344.513V337.596H212.657V344.513H219.574ZM150.441 309.953H157.358V289.215H150.441V296.132H143.524V303.049H150.441V309.966V309.953ZM219.574 289.215V282.298H212.657V289.215H219.574ZM164.275 372.169V365.252H157.358V372.169H164.275ZM150.441 282.298H157.358V268.476H143.537V275.393H150.454V282.31L150.441 282.298ZM171.18 379.085V372.169H164.263V379.085H171.18ZM150.441 316.858V309.941H143.524V303.024H136.607V323.762H143.524V316.845H150.441V316.858ZM136.62 385.99V392.907H143.537V385.99H136.62ZM143.537 399.824H150.454V392.907H143.537V399.824ZM150.441 289.215V282.298H143.524V275.381H136.607V296.119H143.524V289.202H150.441V289.215ZM219.574 316.858V309.941H212.657V316.858H219.574ZM198.835 337.609V344.525H205.752V337.609H198.835ZM205.752 323.775H198.835V330.692H205.752V337.609H212.669V330.692H219.586V323.775H212.669V316.858H205.752V323.775ZM205.752 351.43H198.835V358.347H205.752V365.264H212.669V358.347H219.586V351.43H212.669V344.513H205.752V351.43ZM198.835 309.953V316.87H205.752V309.953H198.835ZM219.574 275.381V268.464H198.835V275.381H205.752V282.298H212.669V275.381H219.586H219.574ZM198.835 365.252V372.169H205.752V365.252H198.835ZM198.835 282.298V289.215H205.752V282.298H198.835ZM205.752 296.119H198.835V303.036H205.752V309.953H212.669V303.036H219.586V296.119H212.669V289.202H205.752V296.119ZM150.441 365.252H157.358V344.513H150.441V351.43H143.524V358.347H150.441V365.264V365.252ZM150.441 337.609H157.358V316.87H150.441V323.787H143.524V330.704H150.441V337.621V337.609ZM150.441 372.169V365.252H143.524V358.335H136.607V379.073H143.524V372.156H150.441V372.169ZM164.275 385.99V379.073H157.358V372.156H150.441V379.073H143.524V385.99H150.441V392.907H157.358V385.99H164.275ZM205.752 379.085H198.835V386.002H205.752V392.919H212.669V386.002H219.586V379.085H212.669V372.169H205.752V379.085ZM150.441 344.513V337.596H143.524V330.679H136.607V351.418H143.524V344.501H150.441V344.513ZM171.18 385.99H164.263V392.907H157.346V399.824H178.084V392.907H171.167V385.99H171.18ZM198.835 385.99H191.918V392.907H185.001V399.824H205.74V392.907H198.823V385.99H198.835ZM191.918 385.99V379.073H171.18V385.99H178.097V392.907H185.014V385.99H191.93H191.918Z" fill="#004DFF"/>
<path d="M164.275 261.559H157.358V365.252H164.275V261.559ZM150.441 406.741H205.752V399.824H150.441V406.741ZM205.752 399.824H212.669V392.907H205.752V399.824ZM212.669 392.907H219.586V385.99H212.669V392.907ZM219.574 261.559V386.002H226.49V261.559H219.574Z" fill="#000793"/>
<g style="mix-blend-mode:screen" opacity="0.9">
<path d="M129.703 385.99H136.62V268.464H164.275V261.547H129.715V385.99H129.703ZM191.918 261.559V372.169H171.18V379.085H198.835V268.476H226.49V261.559H191.93H191.918Z" fill="white"/>
</g>
<path d="M609.797 268.476V303.036H582.142V413.646H547.582V420.562H589.059V309.953H616.714V268.476H609.797ZM519.914 309.953H533.735V303.036H519.914V309.953Z" fill="white"/>
<path d="M513.009 296.119H540.664V406.741H575.224V296.119H602.88V261.56H513.009V296.119Z" fill="#0900FF"/>
<path d="M589.046 275.381V268.464H568.307V275.381H575.224V282.298H582.141V275.381H589.058H589.046ZM554.486 344.513H547.569V365.252H554.486V358.335H561.403V351.418H554.486V344.501V344.513ZM589.046 275.381V282.298H582.129V289.215H595.951V275.393H589.034L589.046 275.381ZM554.486 316.858H547.569V337.596H554.486V330.679H561.403V323.762H554.486V316.846V316.858ZM554.486 337.609V344.526H561.403V351.442H568.32V330.704H561.403V337.621H554.486V337.609ZM554.486 289.215H547.569V296.132H540.652V303.049H547.569V309.966H554.486V303.049H561.403V296.132H554.486V289.215ZM554.486 309.953V316.87H561.403V323.787H568.32V303.049H561.403V309.966H554.486V309.953ZM568.307 275.381H561.39V282.298H554.474V289.215H561.39V296.132H568.307V289.215H575.224V282.298H568.307V275.381ZM554.486 365.252V372.169H561.403V379.086H568.32V358.347H561.403V365.264H554.486V365.252ZM554.486 392.907V399.824H568.307V386.002H561.39V392.919H554.474L554.486 392.907ZM547.569 289.215V282.298H540.652V275.381H533.735V282.298H526.818V289.215H533.735V296.132H540.652V289.215H547.569ZM554.486 372.169H547.569V392.907H554.486V385.99H561.403V379.073H554.486V372.156V372.169ZM533.747 275.381V268.464H519.926V282.286H526.843V275.369H533.76L533.747 275.381ZM547.569 282.298H554.486V275.381H561.403V268.464H540.664V275.381H547.581V282.298H547.569Z" fill="#004DFF"/>
<path d="M595.963 261.56V289.215H568.307V399.824H540.652V406.741H575.212V296.132H602.867V261.572H595.95L595.963 261.56ZM513.009 296.119H533.747V289.203H513.009V296.119Z" fill="#000793"/>
<g style="mix-blend-mode:screen" opacity="0.9">
<path d="M540.665 406.741H547.582V303.049H540.665V406.741ZM513.009 261.559V296.119H519.926V268.464H602.88V261.547H513.009V261.559Z" fill="white"/>
</g>
<path d="M430.102 413.645H395.542V420.562H437.019V386.002H430.102V413.658V413.645ZM492.318 268.476V413.658H457.758V420.575H499.235V268.489H492.318V268.476Z" fill="white"/>
<path d="M423.185 351.43H430.102V365.252H437.019V379.086H443.936V392.907H450.84V406.741H485.413V261.56H450.84V316.858H443.936V303.036H437.019V289.215H430.102V275.381H423.185V261.56H388.625V406.741H423.185V351.43Z" fill="#0900FF"/>
<path d="M443.936 337.609H437.019V344.525H443.936V351.442H450.853V344.525H457.77V337.609H450.853V330.692H443.936V337.609ZM416.281 372.169V365.252H409.364V372.169H416.281ZM416.281 399.824V392.907H409.364V399.824H416.281ZM402.447 351.43H395.53V358.347H402.447V365.264H409.364V358.347H416.281V351.43H409.364V344.513H402.447V351.43ZM437.019 309.953V303.036H430.102V309.953H437.019ZM395.542 282.298V289.215H402.459V282.298H395.542ZM395.542 309.953V316.87H402.459V309.953H395.542ZM450.841 316.858H443.924V323.775H450.841V316.858ZM402.447 379.085H395.53V386.002H402.447V392.919H409.364V386.002H416.281V379.085H409.364V372.169H402.447V379.085ZM395.542 365.252V372.169H402.459V365.252H395.542ZM395.542 399.824H402.459V392.907H395.542V399.824ZM395.542 337.609V344.525H402.459V337.609H395.542ZM430.102 344.513V351.43H437.019V344.513H430.102ZM457.758 372.169V365.252H450.841V358.335H443.924V379.073H450.841V372.156H457.758V372.169ZM464.675 296.119V289.202H457.758V309.941H464.675V303.024H471.591V296.107H464.675V296.119ZM471.579 275.381V268.464H457.758V282.285H464.675V275.369H471.591L471.579 275.381ZM471.579 296.119H478.496V275.381H471.579V282.298H464.662V289.215H471.579V296.132V296.119ZM464.675 316.858H457.758V323.775H450.841V330.692H457.758V337.609H464.675V330.692H471.591V323.775H464.675V316.858ZM464.675 309.953V316.87H471.591V323.787H478.508V303.049H471.591V309.966H464.675V309.953ZM464.675 392.907V399.824H478.496V386.002H471.579V392.919H464.662L464.675 392.907ZM464.675 372.169H457.758V379.085H450.841V386.002H457.758V392.919H464.675V386.002H471.591V379.085H464.675V372.169ZM464.675 365.252V372.169H471.591V379.085H478.508V358.347H471.591V365.264H464.675V365.252ZM464.675 337.609V344.525H471.591V351.442H478.508V330.704H471.591V337.621H464.675V337.609ZM464.675 344.513H457.758V351.43H450.841V358.347H457.758V365.264H464.675V358.347H471.591V351.43H464.675V344.513ZM409.364 330.692H416.281V323.775H409.364V316.858H402.447V323.775H395.53V330.692H402.447V337.609H409.364V330.692ZM423.185 337.609V330.692H416.268V337.609H409.351V344.525H430.09V337.609H423.173H423.185ZM423.185 323.775V330.692H430.102V337.609H437.019V330.692H443.936V323.775H437.019V316.858H430.102V323.775H423.185ZM437.019 351.43V358.347H443.936V351.43H437.019ZM409.364 303.036H416.281V296.119H409.364V289.202H402.447V296.119H395.53V303.036H402.447V309.953H409.364V303.036ZM423.185 303.036H416.268V309.953H409.351V316.87H416.268V323.787H423.185V316.87H430.102V309.953H423.185V303.036ZM430.102 303.036V296.119H423.185V303.036H430.102ZM409.364 275.381H416.281V268.464H395.542V275.381H402.459V282.298H409.376V275.381H409.364ZM409.364 282.298V289.215H416.281V296.132H423.198V275.393H416.281V282.31H409.364V282.298Z" fill="#004DFF"/>
<path d="M437.019 316.858H443.936V303.036H437.019V316.858ZM416.28 261.56V275.381H423.197V261.56H416.28ZM423.185 275.381V289.203H430.102V275.381H423.185ZM478.496 261.56V399.824H450.84V406.741H485.4V261.56H478.483H478.496ZM430.102 289.215V303.036H437.019V289.215H430.102ZM416.28 399.824H388.625V406.741H423.185V344.526H416.268V399.836L416.28 399.824Z" fill="#000793"/>
<g style="mix-blend-mode:screen" opacity="0.9">
<path d="M388.625 406.741H395.542V268.476H423.197V261.559H388.625V406.741ZM450.84 406.741H457.757V392.919H450.84V406.741ZM450.84 261.559V323.775H457.757V268.464H485.413V261.547H450.853L450.84 261.559ZM443.936 379.085V392.907H450.853V379.085H443.936ZM437.019 365.252V379.073H443.936V365.252H437.019ZM430.102 351.43V365.252H437.019V351.43H430.102Z" fill="white"/>
</g>
<path d="M676.574 413.633H642.014V420.55H683.491V379.073H690.408V372.156H676.586V413.633H676.574ZM676.574 323.762H683.491V309.941H690.408V303.024H676.586V323.762H676.574ZM738.802 289.202V413.646H704.242V420.562H745.719V289.202H738.802Z" fill="white"/>
<path d="M669.67 365.239H697.325V406.716H731.885V282.285H724.968V275.369H718.051V268.452H711.134V261.547H655.824V268.464H648.907V275.381H641.99V282.298H635.073V406.741H669.633V365.264L669.67 365.239ZM669.67 296.107H697.325V330.667H669.67V296.107Z" fill="#0900FF"/>
<path d="M662.753 268.464H655.836V275.381H662.753V268.464ZM662.753 372.156V365.239H655.836V372.156H662.753ZM662.753 399.812V392.895H655.836V399.812H662.753ZM711.147 282.285V289.202H718.064V296.119H724.981V275.369H718.064V282.285H711.147ZM704.23 282.285H711.147V275.369H718.064V268.452H697.325V275.369H704.242V282.285H704.23ZM683.491 282.285V289.202H690.408V296.119H697.325V289.202H704.242V282.285H697.325V275.369H690.408V282.285H683.491ZM676.574 282.285H683.491V275.369H690.408V268.452H669.67V275.369H676.587V282.285H676.574ZM711.147 296.107V289.19H704.23V296.107H697.313V303.024H704.23V309.941H711.147V303.024H718.064V296.107H711.147ZM711.147 316.858H704.23V337.596H711.147V330.679H718.064V323.762H711.147V316.845V316.858ZM655.836 282.285V289.202H676.574V282.285H669.657V275.369H662.741V282.285H655.824H655.836ZM711.147 337.596V344.513H718.064V351.43H724.981V330.692H718.064V337.609H711.147V337.596ZM711.147 309.941V316.858H718.064V323.775H724.981V303.036H718.064V309.953H711.147V309.941ZM642.014 399.812H648.931V392.895H642.014V399.812ZM711.147 344.501H704.23V351.418H697.313V358.335H704.23V365.252H711.147V358.335H718.064V351.418H711.147V344.501ZM655.836 275.369H648.919V282.285H655.836V275.369ZM642.014 282.285V289.202H648.931V282.285H642.014ZM655.836 344.501H648.919V351.418H642.002V358.335H648.919V365.252H655.836V358.335H662.753V351.418H655.836V344.501ZM662.753 309.941H655.836V316.858H662.753V309.941ZM655.836 303.024H662.753V296.107H655.836V289.19H648.919V296.107H642.002V303.024H648.919V309.941H655.836V303.024ZM655.836 330.679H662.753V323.762H655.836V316.845H648.919V323.762H642.002V330.679H648.919V337.596H655.836V330.679ZM683.491 344.501H690.408V351.418H697.325V344.501H704.242V337.584H683.504V344.501H683.491ZM642.014 365.239V372.156H648.931V365.239H642.014ZM648.931 379.073H642.014V385.99H648.931V392.907H655.848V385.99H662.765V379.073H655.848V372.156H648.931V379.073ZM642.014 337.596V344.513H648.931V337.596H642.014ZM642.014 309.941V316.858H648.931V309.941H642.014ZM690.408 358.335V365.252H697.325V358.335H690.408ZM711.147 392.895V399.812H724.968V385.99H718.051V392.907H711.134L711.147 392.895ZM711.147 372.156H704.23V392.895H711.147V385.978H718.064V379.061H711.147V372.144V372.156ZM711.147 365.239V372.156H718.064V379.073H724.981V358.335H718.064V365.252H711.147V365.239ZM697.325 365.239V372.156H704.242V365.239H697.325ZM676.574 344.501V337.584H669.657V330.667H662.741V337.584H655.824V344.501H662.741V351.418H669.657V344.501H676.574ZM683.491 351.418V344.501H676.574V351.418H669.657V358.335H690.396V351.418H683.479H683.491Z" fill="#004DFF"/>
<path d="M724.968 282.285V399.812H697.313V406.728H731.873V282.285H724.956H724.968ZM662.753 399.812H635.097V406.728H669.657V365.252H690.396V358.335H662.74V399.812H662.753ZM662.753 323.762H669.67V296.107H690.408V289.19H662.753V323.75V323.762Z" fill="#000793"/>
<g style="mix-blend-mode:screen" opacity="0.9">
<path d="M642.014 282.286H648.931V275.369H642.014V282.286ZM635.097 406.729H642.014V282.286H635.097V406.729ZM648.931 275.369H655.848V268.452H648.931V275.369ZM655.836 261.547V268.464H711.147V261.547H655.836ZM697.325 406.729H704.242V372.169H697.325V406.729ZM697.325 330.679H676.587V337.596H704.242V303.036H697.325V330.692V330.679Z" fill="white"/>
</g>
<path d="M300.665 413.633H266.105V420.55H307.582V379.073H314.499V372.156H300.678V413.633H300.665ZM300.665 323.762H307.582V309.941H314.499V303.024H300.678V323.762H300.665ZM362.893 289.202V413.645H328.333V420.562H369.81V289.202H362.893Z" fill="white"/>
<path d="M293.761 365.239H321.416V406.716H355.976V282.285H349.059V275.369H342.142V268.452H335.225V261.547H279.915V268.464H272.998V275.381H266.081V282.298H259.164V406.741H293.724V365.264L293.761 365.239ZM293.761 296.107H321.416V330.667H293.761V296.107Z" fill="#0900FF"/>
<path d="M286.844 268.464H279.927V275.381H286.844V268.464ZM286.844 372.156V365.239H279.927V372.156H286.844ZM286.844 399.812V392.895H279.927V399.812H286.844ZM335.238 282.285V289.202H342.155V296.119H349.072V275.368H342.155V282.285H335.238ZM328.321 282.285H335.238V275.368H342.155V268.452H321.416V275.368H328.333V282.285H328.321ZM307.582 282.285V289.202H314.499V296.119H321.416V289.202H328.333V282.285H321.416V275.368H314.499V282.285H307.582ZM300.665 282.285H307.582V275.368H314.499V268.452H293.761V275.368H300.678V282.285H300.665ZM335.238 296.107V289.19H328.321V296.107H321.404V303.024H328.321V309.941H335.238V303.024H342.155V296.107H335.238ZM335.238 316.858H328.321V337.596H335.238V330.679H342.155V323.762H335.238V316.845V316.858ZM279.927 282.285V289.202H300.665V282.285H293.749V275.368H286.832V282.285H279.915H279.927ZM335.238 337.596V344.513H342.155V351.43H349.072V330.692H342.155V337.608H335.238V337.596ZM335.238 309.941V316.858H342.155V323.775H349.072V303.036H342.155V309.953H335.238V309.941ZM266.105 399.812H273.022V392.895H266.105V399.812ZM335.238 344.501H328.321V351.418H321.404V358.335H328.321V365.252H335.238V358.335H342.155V351.418H335.238V344.501ZM279.927 275.368H273.01V282.285H279.927V275.368ZM266.105 282.285V289.202H273.022V282.285H266.105ZM279.927 344.501H273.01V351.418H266.093V358.335H273.01V365.252H279.927V358.335H286.844V351.418H279.927V344.501ZM286.844 309.941H279.927V316.858H286.844V309.941ZM279.927 303.024H286.844V296.107H279.927V289.19H273.01V296.107H266.093V303.024H273.01V309.941H279.927V303.024ZM279.927 330.679H286.844V323.762H279.927V316.845H273.01V323.762H266.093V330.679H273.01V337.596H279.927V330.679ZM307.582 344.501H314.499V351.418H321.416V344.501H328.333V337.584H307.595V344.501H307.582ZM266.105 365.239V372.156H273.022V365.239H266.105ZM273.022 379.073H266.105V385.99H273.022V392.907H279.939V385.99H286.856V379.073H279.939V372.156H273.022V379.073ZM266.105 337.596V344.513H273.022V337.596H266.105ZM266.105 309.941V316.858H273.022V309.941H266.105ZM314.499 358.335V365.252H321.416V358.335H314.499ZM335.238 392.895V399.812H349.059V385.99H342.142V392.907H335.225L335.238 392.895ZM335.238 372.156H328.321V392.895H335.238V385.978H342.155V379.061H335.238V372.144V372.156ZM335.238 365.239V372.156H342.155V379.073H349.072V358.335H342.155V365.252H335.238V365.239ZM321.416 365.239V372.156H328.333V365.239H321.416ZM300.665 344.501V337.584H293.749V330.667H286.832V337.584H279.915V344.501H286.832V351.418H293.749V344.501H300.665ZM307.582 351.418V344.501H300.665V351.418H293.749V358.335H314.487V351.418H307.57H307.582Z" fill="#004DFF"/>
<path d="M349.059 282.285V399.812H321.404V406.728H355.964V282.285H349.047H349.059ZM286.844 399.812H259.188V406.728H293.748V365.252H314.487V358.335H286.832V399.812H286.844ZM286.844 323.762H293.761V296.107H314.499V289.19H286.844V323.75V323.762Z" fill="#000793"/>
<g style="mix-blend-mode:screen" opacity="0.9">
<path d="M266.105 282.285H273.022V275.369H266.105V282.285ZM259.188 406.729H266.105V282.285H259.188V406.729ZM273.022 275.369H279.939V268.452H273.022V275.369ZM279.927 261.547V268.464H335.238V261.547H279.927ZM321.416 406.729H328.333V372.169H321.416V406.729ZM321.416 330.679H300.678V337.596H328.333V303.036H321.416V330.692V330.679Z" fill="white"/>
</g>
<g filter="url(#filter0_dd_5_14558)">
<path d="M240.507 539.357H224.086V530.783H215.869V525.119H224.086V516.545H232.29V505.073H221.31V513.648H213.093V522.223H207.652V513.648H199.449V505.073H188.456V516.545H196.673V525.119H204.876V530.783H196.673V539.357H180.238V547.932H163.818V559.389H183.014V550.829H199.449V542.254H207.652V533.679H213.093V542.254H221.31V550.829H237.731V559.389H256.927V547.932H240.507V539.357Z" fill="#005EFF"/>
<path d="M215.869 470.804V462.229H204.876V470.804H163.818V482.261H188.456V487.939H180.238V496.513H172.035V507.97H183.014V499.41H191.232V490.836H199.449V482.261H221.31V490.836H229.514V499.41H237.731V507.97H248.724V496.513H240.507V487.939H232.29V482.261H256.927V470.804H215.869Z" fill="#005EFF"/>
</g>
<g filter="url(#filter1_dd_5_14558)">
<path d="M305.302 504.396V498.728H354.512V453.069H286.131V498.728H294.338V504.396H286.131V512.955H277.925V521.514H269.719V532.965H280.697V524.406H288.904V515.846H302.53V530.059H294.324V538.618H286.117V550.069H297.096V541.51H305.302V532.95H313.509V515.846H327.135V530.059H318.929V538.618H310.722V550.069H321.701V541.51H329.907V532.95H338.114V515.846H351.74V538.618H335.341V550.069H354.512V541.51H362.719V504.396H305.302ZM343.548 481.624V487.292H297.11V481.624H343.548ZM343.548 470.173H297.11V464.505H343.548V470.173Z" fill="#005EFF"/>
</g>
<g filter="url(#filter2_dd_5_14558)">
<path d="M435.703 537.315H443.92V543.19H435.703V552.062H422.058V537.33H430.275V507.731H386.441V537.33H394.658V543.205H386.441V563.931H397.434V546.202H405.652V537.33H411.093V563.931H438.506V555.059H446.724V546.187H454.941V537.315H460.382V563.916H479.578V552.047H471.361V537.315H479.578V507.716H435.744V537.315H435.703ZM446.696 525.46V519.586H468.557V525.46H446.696ZM419.282 519.586V525.46H397.421V519.586H419.282Z" fill="#005EFF"/>
<path d="M479.551 484.112V472.243H463.13V463.385H452.137V472.258H435.716V484.127H443.934V490.002H422.072V484.127H430.289V472.258H413.869V463.385H402.875V472.258H386.455V484.127H394.672V490.002H386.455V501.871H479.564V490.002H471.347V484.127H479.564L479.551 484.112ZM460.34 484.112V489.987H454.899V484.112H460.34ZM411.065 484.112V489.987H405.624V484.112H411.065Z" fill="#005EFF"/>
</g>
<g filter="url(#filter3_dd_5_14558)">
<path d="M590.5 492.169V482.905H598.705V461.264H557.707V452H546.73V461.264H505.733V482.905H513.938V492.169H530.334V498.303H505.733V510.697H522.129V516.831H513.924V526.095H505.719V538.488H516.696V529.224H522.129V544.607H505.733V557H524.901V547.736H579.537V557H598.705V544.607H582.309V529.224H587.742V538.488H598.719V526.095H590.514V516.831H582.309V510.697H598.705V498.303H574.104V492.169H590.5ZM587.728 479.776H574.104V473.642H587.728V479.776ZM563.127 492.169V498.303H541.297V492.169H563.127ZM563.127 479.776H541.297V473.642H563.127V479.776ZM571.318 510.681V516.815H533.092V510.681H571.318ZM533.092 529.193H571.318V535.327H533.092V529.193ZM530.32 479.776H516.696V473.642H530.32V479.776Z" fill="#005EFF"/>
</g>
<g clip-path="url(#clip0_5_14558)">
<path d="M388.437 146.25H392.969V141.719H388.437V146.25Z" fill="#FCF100"/>
<path d="M392.969 141.719H397.5V123.281H392.969V141.719Z" fill="#FCF100"/>
<path d="M383.75 150.938H388.437V146.25H383.75V150.938Z" fill="#FCF100"/>
<path d="M392.969 123.281V118.75H388.437V123.281H392.969Z" fill="#FCF100"/>
<path d="M360.781 146.25V150.938H365.469V155.469H392.969V150.938H397.5V146.25H402.188V118.75H397.5V114.218H392.969V109.531H365.469V114.218H360.781V118.75H356.25V146.25H360.781ZM360.781 123.281H365.469V118.75H370V114.218H388.438V118.75H392.969V123.281H397.501V141.719H392.969V146.251H388.438V150.938H370V146.251H365.469V141.719H360.781V123.281Z" fill="#FEC100"/>
<path d="M374.531 123.281H370V127.969H365.468V141.719H370V146.25H379.218V141.719H383.75V137.031H388.437V132.5H392.969V123.281H388.437V118.749H374.531V123.281V123.281Z" fill="#FEC100"/>
<path d="M397.5 150.938H402.188V146.25H397.5V150.938Z" fill="#000793"/>
<path d="M392.969 105H365.469V109.532H392.969V105Z" fill="#000793"/>
<path d="M406.719 146.25V118.75H402.187V146.25H406.719Z" fill="#000793"/>
<path d="M356.25 146.25V150.938H360.782V146.25H356.25Z" fill="#000793"/>
<path d="M365.469 160H392.969V155.468H365.469V160Z" fill="#000793"/>
<path d="M360.781 150.938V155.469H365.469V150.938H360.781Z" fill="#000793"/>
<path d="M360.781 114.219H356.25V118.75H360.781V114.219Z" fill="#000793"/>
<path d="M397.5 114.219V109.532H392.969V114.219H397.5Z" fill="#000793"/>
<path d="M402.188 118.75V114.218H397.5V118.75H402.188Z" fill="#000793"/>
<path d="M356.25 118.75H351.719V146.25H356.25V118.75Z" fill="#000793"/>
<path d="M365.469 109.532H360.781V114.219H365.469V109.532Z" fill="#000793"/>
<path d="M392.969 155.469H397.5V150.938H392.969V155.469Z" fill="#000793"/>
<path d="M370 127.969V123.281H365.469V127.969H370Z" fill="white"/>
<path d="M374.531 123.281V118.75H370V123.281H374.531Z" fill="white"/>
<path d="M388.437 132.5V137.032H383.75V141.719H379.218V146.251H388.437V141.719H392.969V132.5H388.437Z" fill="white"/>
<path d="M379.219 146.25H370V150.938H383.75V146.25H379.218H379.219Z" fill="#D88600"/>
<path d="M388.437 118.75V114.218H370V118.75H388.437Z" fill="#D88600"/>
<path d="M370 118.75H365.469V123.281H370V118.75Z" fill="#D88600"/>
<path d="M365.469 127.969V123.281H360.781V141.719H365.469V127.969V127.969Z" fill="#D88600"/>
<path d="M365.469 141.719V146.25H370V141.719H365.469Z" fill="#D88600"/>
</g>
<g clip-path="url(#clip1_5_14558)">
<path d="M625.437 146.25H629.969V141.719H625.437V146.25Z" fill="#FCF100"/>
<path d="M629.969 141.719H634.5V123.281H629.969V141.719Z" fill="#FCF100"/>
<path d="M620.75 150.938H625.437V146.25H620.75V150.938Z" fill="#FCF100"/>
<path d="M629.969 123.281V118.75H625.437V123.281H629.969Z" fill="#FCF100"/>
<path d="M597.781 146.25V150.938H602.469V155.469H629.969V150.938H634.5V146.25H639.188V118.75H634.5V114.218H629.969V109.531H602.469V114.218H597.781V118.75H593.25V146.25H597.781ZM597.781 123.281H602.469V118.75H607V114.218H625.438V118.75H629.969V123.281H634.501V141.719H629.969V146.251H625.438V150.938H607V146.251H602.469V141.719H597.781V123.281Z" fill="#FEC100"/>
<path d="M611.531 123.281H607V127.969H602.468V141.719H607V146.25H616.218V141.719H620.75V137.031H625.437V132.5H629.969V123.281H625.437V118.749H611.531V123.281V123.281Z" fill="#FEC100"/>
<path d="M634.5 150.938H639.188V146.25H634.5V150.938Z" fill="#000793"/>
<path d="M629.969 105H602.469V109.532H629.969V105Z" fill="#000793"/>
<path d="M643.719 146.25V118.75H639.187V146.25H643.719Z" fill="#000793"/>
<path d="M593.25 146.25V150.938H597.782V146.25H593.25Z" fill="#000793"/>
<path d="M602.469 160H629.969V155.468H602.469V160Z" fill="#000793"/>
<path d="M597.781 150.938V155.469H602.469V150.938H597.781Z" fill="#000793"/>
<path d="M597.781 114.219H593.25V118.75H597.781V114.219Z" fill="#000793"/>
<path d="M634.5 114.219V109.532H629.969V114.219H634.5Z" fill="#000793"/>
<path d="M639.188 118.75V114.218H634.5V118.75H639.188Z" fill="#000793"/>
<path d="M593.25 118.75H588.719V146.25H593.25V118.75Z" fill="#000793"/>
<path d="M602.469 109.532H597.781V114.219H602.469V109.532Z" fill="#000793"/>
<path d="M629.969 155.469H634.5V150.938H629.969V155.469Z" fill="#000793"/>
<path d="M607 127.969V123.281H602.469V127.969H607Z" fill="white"/>
<path d="M611.531 123.281V118.75H607V123.281H611.531Z" fill="white"/>
<path d="M625.437 132.5V137.032H620.75V141.719H616.218V146.251H625.437V141.719H629.969V132.5H625.437Z" fill="white"/>
<path d="M616.219 146.25H607V150.938H620.75V146.25H616.218H616.219Z" fill="#D88600"/>
<path d="M625.437 118.75V114.218H607V118.75H625.437Z" fill="#D88600"/>
<path d="M607 118.75H602.469V123.281H607V118.75Z" fill="#D88600"/>
<path d="M602.469 127.969V123.281H597.781V141.719H602.469V127.969V127.969Z" fill="#D88600"/>
<path d="M602.469 141.719V146.25H607V141.719H602.469Z" fill="#D88600"/>
</g>
<g clip-path="url(#clip2_5_14558)">
<path d="M319.437 328.25H323.969V323.719H319.437V328.25Z" fill="#FCF100"/>
<path d="M323.969 323.719H328.5V305.281H323.969V323.719Z" fill="#FCF100"/>
<path d="M314.75 332.938H319.437V328.25H314.75V332.938Z" fill="#FCF100"/>
<path d="M323.969 305.281V300.75H319.437V305.281H323.969Z" fill="#FCF100"/>
<path d="M291.781 328.25V332.938H296.469V337.469H323.969V332.938H328.5V328.25H333.188V300.75H328.5V296.218H323.969V291.531H296.469V296.218H291.781V300.75H287.25V328.25H291.781ZM291.781 305.281H296.469V300.75H301V296.218H319.438V300.75H323.969V305.281H328.501V323.719H323.969V328.251H319.438V332.938H301V328.251H296.469V323.719H291.781V305.281Z" fill="#FEC100"/>
<path d="M305.531 305.281H301V309.969H296.468V323.719H301V328.25H310.218V323.719H314.75V319.031H319.437V314.5H323.969V305.281H319.437V300.749H305.531V305.281V305.281Z" fill="#FEC100"/>
<path d="M328.5 332.938H333.188V328.25H328.5V332.938Z" fill="#000793"/>
<path d="M323.969 287H296.469V291.532H323.969V287Z" fill="#000793"/>
<path d="M337.719 328.25V300.75H333.187V328.25H337.719Z" fill="#000793"/>
<path d="M287.25 328.25V332.938H291.782V328.25H287.25Z" fill="#000793"/>
<path d="M296.469 342H323.969V337.468H296.469V342Z" fill="#000793"/>
<path d="M291.781 332.938V337.469H296.469V332.938H291.781Z" fill="#000793"/>
<path d="M291.781 296.219H287.25V300.75H291.781V296.219Z" fill="#000793"/>
<path d="M328.5 296.219V291.532H323.969V296.219H328.5Z" fill="#000793"/>
<path d="M333.188 300.75V296.218H328.5V300.75H333.188Z" fill="#000793"/>
<path d="M287.25 300.75H282.719V328.25H287.25V300.75Z" fill="#000793"/>
<path d="M296.469 291.532H291.781V296.219H296.469V291.532Z" fill="#000793"/>
<path d="M323.969 337.469H328.5V332.938H323.969V337.469Z" fill="#000793"/>
<path d="M301 309.969V305.281H296.469V309.969H301Z" fill="white"/>
<path d="M305.531 305.281V300.75H301V305.281H305.531Z" fill="white"/>
<path d="M319.437 314.5V319.032H314.75V323.719H310.218V328.251H319.437V323.719H323.969V314.5H319.437Z" fill="white"/>
<path d="M310.219 328.25H301V332.938H314.75V328.25H310.218H310.219Z" fill="#D88600"/>
<path d="M319.437 300.75V296.218H301V300.75H319.437Z" fill="#D88600"/>
<path d="M301 300.75H296.469V305.281H301V300.75Z" fill="#D88600"/>
<path d="M296.469 309.969V305.281H291.781V323.719H296.469V309.969V309.969Z" fill="#D88600"/>
<path d="M296.469 323.719V328.25H301V323.719H296.469Z" fill="#D88600"/>
</g>
<g clip-path="url(#clip3_5_14558)">
<path d="M696.437 328.25H700.969V323.719H696.437V328.25Z" fill="#FCF100"/>
<path d="M700.969 323.719H705.5V305.281H700.969V323.719Z" fill="#FCF100"/>
<path d="M691.75 332.938H696.437V328.25H691.75V332.938Z" fill="#FCF100"/>
<path d="M700.969 305.281V300.75H696.437V305.281H700.969Z" fill="#FCF100"/>
<path d="M668.781 328.25V332.938H673.469V337.469H700.969V332.938H705.5V328.25H710.188V300.75H705.5V296.218H700.969V291.531H673.469V296.218H668.781V300.75H664.25V328.25H668.781ZM668.781 305.281H673.469V300.75H678V296.218H696.438V300.75H700.969V305.281H705.501V323.719H700.969V328.251H696.438V332.938H678V328.251H673.469V323.719H668.781V305.281Z" fill="#FEC100"/>
<path d="M682.531 305.281H678V309.969H673.468V323.719H678V328.25H687.218V323.719H691.75V319.031H696.437V314.5H700.969V305.281H696.437V300.749H682.531V305.281V305.281Z" fill="#FEC100"/>
<path d="M705.5 332.938H710.188V328.25H705.5V332.938Z" fill="#000793"/>
<path d="M700.969 287H673.469V291.532H700.969V287Z" fill="#000793"/>
<path d="M714.719 328.25V300.75H710.187V328.25H714.719Z" fill="#000793"/>
<path d="M664.25 328.25V332.938H668.782V328.25H664.25Z" fill="#000793"/>
<path d="M673.469 342H700.969V337.468H673.469V342Z" fill="#000793"/>
<path d="M668.781 332.938V337.469H673.469V332.938H668.781Z" fill="#000793"/>
<path d="M668.781 296.219H664.25V300.75H668.781V296.219Z" fill="#000793"/>
<path d="M705.5 296.219V291.532H700.969V296.219H705.5Z" fill="#000793"/>
<path d="M710.188 300.75V296.218H705.5V300.75H710.188Z" fill="#000793"/>
<path d="M664.25 300.75H659.719V328.25H664.25V300.75Z" fill="#000793"/>
<path d="M673.469 291.532H668.781V296.219H673.469V291.532Z" fill="#000793"/>
<path d="M700.969 337.469H705.5V332.938H700.969V337.469Z" fill="#000793"/>
<path d="M678 309.969V305.281H673.469V309.969H678Z" fill="white"/>
<path d="M682.531 305.281V300.75H678V305.281H682.531Z" fill="white"/>
<path d="M696.437 314.5V319.032H691.75V323.719H687.218V328.251H696.437V323.719H700.969V314.5H696.437Z" fill="white"/>
<path d="M687.219 328.25H678V332.938H691.75V328.25H687.218H687.219Z" fill="#D88600"/>
<path d="M696.437 300.75V296.218H678V300.75H696.437Z" fill="#D88600"/>
<path d="M678 300.75H673.469V305.281H678V300.75Z" fill="#D88600"/>
<path d="M673.469 309.969V305.281H668.781V323.719H673.469V309.969V309.969Z" fill="#D88600"/>
<path d="M673.469 323.719V328.25H678V323.719H673.469Z" fill="#D88600"/>
</g>
<g filter="url(#filter4_d_5_14558)">
<path d="M83.3314 8V11.6667V15.3333V19V22.6667V26.3333V30V33.6667V37.3333V41V44.6667V48.3333H94.3314V52H79.6647V48.3333V44.6667V41V37.3333V33.6667V30V26.3333V22.6667V19V15.3333V11.6667V8V4.33333H94.3314V8H83.3314ZM651.12 8V4.33333H665.787V8V11.6667V15.3333V19V22.6667V26.3333V30V33.6667V37.3333V41V44.6667V48.3333V52H651.12V48.3333H662.12V44.6667V41V37.3333V33.6667V30V26.3333V22.6667V19V15.3333V11.6667V8H651.12Z" fill="#004CFF"/>
<path d="M83.3314 8V7.5H82.8314V8H83.3314ZM83.3314 48.3333H82.8314V48.8333H83.3314V48.3333ZM94.3314 48.3333H94.8314V47.8333H94.3314V48.3333ZM94.3314 52V52.5H94.8314V52H94.3314ZM79.6647 52H79.1647V52.5H79.6647V52ZM79.6647 4.33333V3.83333H79.1647V4.33333H79.6647ZM94.3314 4.33333H94.8314V3.83333H94.3314V4.33333ZM94.3314 8V8.5H94.8314V8H94.3314ZM83.3314 8H82.8314V11.6667H83.3314H83.8314V8H83.3314ZM83.3314 11.6667H82.8314V15.3333H83.3314H83.8314V11.6667H83.3314ZM83.3314 15.3333H82.8314V19H83.3314H83.8314V15.3333H83.3314ZM83.3314 19H82.8314V22.6667H83.3314H83.8314V19H83.3314ZM83.3314 22.6667H82.8314V26.3333H83.3314H83.8314V22.6667H83.3314ZM83.3314 26.3333H82.8314V30H83.3314H83.8314V26.3333H83.3314ZM83.3314 30H82.8314V33.6667H83.3314H83.8314V30H83.3314ZM83.3314 33.6667H82.8314V37.3333H83.3314H83.8314V33.6667H83.3314ZM83.3314 37.3333H82.8314V41H83.3314H83.8314V37.3333H83.3314ZM83.3314 41H82.8314V44.6667H83.3314H83.8314V41H83.3314ZM83.3314 44.6667H82.8314V48.3333H83.3314H83.8314V44.6667H83.3314ZM83.3314 48.3333V48.8333H94.3314V48.3333V47.8333H83.3314V48.3333ZM94.3314 48.3333H93.8314V52H94.3314H94.8314V48.3333H94.3314ZM94.3314 52V51.5H79.6647V52V52.5H94.3314V52ZM79.6647 52H80.1647V48.3333H79.6647H79.1647V52H79.6647ZM79.6647 48.3333H80.1647V44.6667H79.6647H79.1647V48.3333H79.6647ZM79.6647 44.6667H80.1647V41H79.6647H79.1647V44.6667H79.6647ZM79.6647 41H80.1647V37.3333H79.6647H79.1647V41H79.6647ZM79.6647 37.3333H80.1647V33.6667H79.6647H79.1647V37.3333H79.6647ZM79.6647 33.6667H80.1647V30H79.6647H79.1647V33.6667H79.6647ZM79.6647 30H80.1647V26.3333H79.6647H79.1647V30H79.6647ZM79.6647 26.3333H80.1647V22.6667H79.6647H79.1647V26.3333H79.6647ZM79.6647 22.6667H80.1647V19H79.6647H79.1647V22.6667H79.6647ZM79.6647 19H80.1647V15.3333H79.6647H79.1647V19H79.6647ZM79.6647 15.3333H80.1647V11.6667H79.6647H79.1647V15.3333H79.6647ZM79.6647 11.6667H80.1647V8H79.6647H79.1647V11.6667H79.6647ZM79.6647 8H80.1647V4.33333H79.6647H79.1647V8H79.6647ZM79.6647 4.33333V4.83333H94.3314V4.33333V3.83333H79.6647V4.33333ZM94.3314 4.33333H93.8314V8H94.3314H94.8314V4.33333H94.3314ZM94.3314 8V7.5H83.3314V8V8.5H94.3314V8ZM651.12 8H650.62V8.5H651.12V8ZM651.12 4.33333V3.83333H650.62V4.33333H651.12ZM665.787 4.33333H666.287V3.83333H665.787V4.33333ZM665.787 52V52.5H666.287V52H665.787ZM651.12 52H650.62V52.5H651.12V52ZM651.12 48.3333V47.8333H650.62V48.3333H651.12ZM662.12 48.3333V48.8333H662.62V48.3333H662.12ZM662.12 8H662.62V7.5H662.12V8ZM651.12 8H651.62V4.33333H651.12H650.62V8H651.12ZM651.12 4.33333V4.83333H665.787V4.33333V3.83333H651.12V4.33333ZM665.787 4.33333H665.287V8H665.787H666.287V4.33333H665.787ZM665.787 8H665.287V11.6667H665.787H666.287V8H665.787ZM665.787 11.6667H665.287V15.3333H665.787H666.287V11.6667H665.787ZM665.787 15.3333H665.287V19H665.787H666.287V15.3333H665.787ZM665.787 19H665.287V22.6667H665.787H666.287V19H665.787ZM665.787 22.6667H665.287V26.3333H665.787H666.287V22.6667H665.787ZM665.787 26.3333H665.287V30H665.787H666.287V26.3333H665.787ZM665.787 30H665.287V33.6667H665.787H666.287V30H665.787ZM665.787 33.6667H665.287V37.3333H665.787H666.287V33.6667H665.787ZM665.787 37.3333H665.287V41H665.787H666.287V37.3333H665.787ZM665.787 41H665.287V44.6667H665.787H666.287V41H665.787ZM665.787 44.6667H665.287V48.3333H665.787H666.287V44.6667H665.787ZM665.787 48.3333H665.287V52H665.787H666.287V48.3333H665.787ZM665.787 52V51.5H651.12V52V52.5H665.787V52ZM651.12 52H651.62V48.3333H651.12H650.62V52H651.12ZM651.12 48.3333V48.8333H662.12V48.3333V47.8333H651.12V48.3333ZM662.12 48.3333H662.62V44.6667H662.12H661.62V48.3333H662.12ZM662.12 44.6667H662.62V41H662.12H661.62V44.6667H662.12ZM662.12 41H662.62V37.3333H662.12H661.62V41H662.12ZM662.12 37.3333H662.62V33.6667H662.12H661.62V37.3333H662.12ZM662.12 33.6667H662.62V30H662.12H661.62V33.6667H662.12ZM662.12 30H662.62V26.3333H662.12H661.62V30H662.12ZM662.12 26.3333H662.62V22.6667H662.12H661.62V26.3333H662.12ZM662.12 22.6667H662.62V19H662.12H661.62V22.6667H662.12ZM662.12 19H662.62V15.3333H662.12H661.62V19H662.12ZM662.12 15.3333H662.62V11.6667H662.12H661.62V15.3333H662.12ZM662.12 11.6667H662.62V8H662.12H661.62V11.6667H662.12ZM662.12 8V7.5H651.12V8V8.5H662.12V8Z" fill="#004CFF"/>
</g>
<g filter="url(#filter5_d_5_14558)">
<path d="M142.668 37.8333H138.501V42H155.168V46.1667H134.335V37.8333H138.501V33.6667H142.668V29.5H146.835V25.3333H151.001V12.8333H138.501V21.1667H134.335V12.8333H138.501V8.66667H151.001V12.8333H155.168V25.3333H151.001V29.5H146.835V33.6667H142.668V37.8333ZM182.152 12.8333H186.318V42H182.152V46.1667H169.652V42H165.485V12.8333H169.652V8.66667H182.152V12.8333H169.652V42H182.152V12.8333ZM204.969 37.8333H200.802V42H217.469V46.1667H196.635V37.8333H200.802V33.6667H204.969V29.5H209.135V25.3333H213.302V12.8333H200.802V21.1667H196.635V12.8333H200.802V8.66667H213.302V12.8333H217.469V25.3333H213.302V29.5H209.135V33.6667H204.969V37.8333ZM227.786 42V33.6667H231.952V42H244.452V25.3333H227.786V8.66667H248.619V12.8333H231.952V21.1667H244.452V25.3333H248.619V42H244.452V46.1667H231.952V42H227.786ZM258.936 50.3333V42H263.103V33.6667H267.27V25.3333H271.436V17H275.603V8.66667H279.77V17H275.603V25.3333H271.436V33.6667H267.27V42H263.103V50.3333H258.936ZM294.302 21.1667H290.135V17H294.302V12.8333H298.469V8.66667H302.635V46.1667H298.469V17H294.302V21.1667ZM333.802 12.8333H337.969V42H333.802V46.1667H321.302V42H317.135V12.8333H321.302V8.66667H333.802V12.8333H321.302V42H333.802V12.8333ZM348.286 50.3333V42H352.452V33.6667H356.619V25.3333H360.786V17H364.952V8.66667H369.119V17H364.952V25.3333H360.786V33.6667H356.619V42H352.452V50.3333H348.286ZM383.652 21.1667H379.485V17H383.652V12.8333H387.818V8.66667H391.985V46.1667H387.818V17H383.652V21.1667ZM420.969 29.5V25.3333H445.969V29.5H420.969ZM479.103 21.1667H474.936V17H479.103V12.8333H483.27V8.66667H487.436V46.1667H483.27V17H479.103V21.1667ZM510.27 37.8333H506.103V42H522.77V46.1667H501.936V37.8333H506.103V33.6667H510.27V29.5H514.436V25.3333H518.603V12.8333H506.103V21.1667H501.936V12.8333H506.103V8.66667H518.603V12.8333H522.77V25.3333H518.603V29.5H514.436V33.6667H510.27V37.8333ZM533.087 50.3333V42H537.253V33.6667H541.42V25.3333H545.587V17H549.753V8.66667H553.92V17H549.753V25.3333H545.587V33.6667H541.42V42H537.253V50.3333H533.087ZM564.286 42V37.8333H568.452V42H580.952V29.5H568.452V25.3333H572.619V21.1667H576.786V17H580.952V12.8333H564.286V8.66667H585.119V17H580.952V21.1667H576.786V25.3333H580.952V29.5H585.119V42H580.952V46.1667H568.452V42H564.286ZM599.603 21.1667H595.436V17H599.603V12.8333H603.77V8.66667H607.936V46.1667H603.77V17H599.603V21.1667Z" fill="#004CFF"/>
<path d="M142.668 37.8333V38.3333H143.168V37.8333H142.668ZM138.501 37.8333V37.3333H138.001V37.8333H138.501ZM138.501 42H138.001V42.5H138.501V42ZM155.168 42H155.668V41.5H155.168V42ZM155.168 46.1667V46.6667H155.668V46.1667H155.168ZM134.335 46.1667H133.835V46.6667H134.335V46.1667ZM134.335 37.8333V37.3333H133.835V37.8333H134.335ZM138.501 37.8333V38.3333H139.001V37.8333H138.501ZM138.501 33.6667V33.1667H138.001V33.6667H138.501ZM142.668 33.6667V34.1667H143.168V33.6667H142.668ZM142.668 29.5V29H142.168V29.5H142.668ZM146.835 29.5V30H147.335V29.5H146.835ZM146.835 25.3333V24.8333H146.335V25.3333H146.835ZM151.001 25.3333V25.8333H151.501V25.3333H151.001ZM151.001 12.8333H151.501V12.3333H151.001V12.8333ZM138.501 12.8333V12.3333H138.001V12.8333H138.501ZM138.501 21.1667V21.6667H139.001V21.1667H138.501ZM134.335 21.1667H133.835V21.6667H134.335V21.1667ZM134.335 12.8333V12.3333H133.835V12.8333H134.335ZM138.501 12.8333V13.3333H139.001V12.8333H138.501ZM138.501 8.66667V8.16667H138.001V8.66667H138.501ZM151.001 8.66667H151.501V8.16667H151.001V8.66667ZM151.001 12.8333H150.501V13.3333H151.001V12.8333ZM155.168 12.8333H155.668V12.3333H155.168V12.8333ZM155.168 25.3333V25.8333H155.668V25.3333H155.168ZM151.001 25.3333V24.8333H150.501V25.3333H151.001ZM151.001 29.5V30H151.501V29.5H151.001ZM146.835 29.5V29H146.335V29.5H146.835ZM146.835 33.6667V34.1667H147.335V33.6667H146.835ZM142.668 33.6667V33.1667H142.168V33.6667H142.668ZM142.668 37.8333V37.3333H138.501V37.8333V38.3333H142.668V37.8333ZM138.501 37.8333H138.001V42H138.501H139.001V37.8333H138.501ZM138.501 42V42.5H155.168V42V41.5H138.501V42ZM155.168 42H154.668V46.1667H155.168H155.668V42H155.168ZM155.168 46.1667V45.6667H134.335V46.1667V46.6667H155.168V46.1667ZM134.335 46.1667H134.835V37.8333H134.335H133.835V46.1667H134.335ZM134.335 37.8333V38.3333H138.501V37.8333V37.3333H134.335V37.8333ZM138.501 37.8333H139.001V33.6667H138.501H138.001V37.8333H138.501ZM138.501 33.6667V34.1667H142.668V33.6667V33.1667H138.501V33.6667ZM142.668 33.6667H143.168V29.5H142.668H142.168V33.6667H142.668ZM142.668 29.5V30H146.835V29.5V29H142.668V29.5ZM146.835 29.5H147.335V25.3333H146.835H146.335V29.5H146.835ZM146.835 25.3333V25.8333H151.001V25.3333V24.8333H146.835V25.3333ZM151.001 25.3333H151.501V12.8333H151.001H150.501V25.3333H151.001ZM151.001 12.8333V12.3333H138.501V12.8333V13.3333H151.001V12.8333ZM138.501 12.8333H138.001V21.1667H138.501H139.001V12.8333H138.501ZM138.501 21.1667V20.6667H134.335V21.1667V21.6667H138.501V21.1667ZM134.335 21.1667H134.835V12.8333H134.335H133.835V21.1667H134.335ZM134.335 12.8333V13.3333H138.501V12.8333V12.3333H134.335V12.8333ZM138.501 12.8333H139.001V8.66667H138.501H138.001V12.8333H138.501ZM138.501 8.66667V9.16667H151.001V8.66667V8.16667H138.501V8.66667ZM151.001 8.66667H150.501V12.8333H151.001H151.501V8.66667H151.001ZM151.001 12.8333V13.3333H155.168V12.8333V12.3333H151.001V12.8333ZM155.168 12.8333H154.668V25.3333H155.168H155.668V12.8333H155.168ZM155.168 25.3333V24.8333H151.001V25.3333V25.8333H155.168V25.3333ZM151.001 25.3333H150.501V29.5H151.001H151.501V25.3333H151.001ZM151.001 29.5V29H146.835V29.5V30H151.001V29.5ZM146.835 29.5H146.335V33.6667H146.835H147.335V29.5H146.835ZM146.835 33.6667V33.1667H142.668V33.6667V34.1667H146.835V33.6667ZM142.668 33.6667H142.168V37.8333H142.668H143.168V33.6667H142.668ZM186.318 12.8333H186.818V12.3333H186.318V12.8333ZM186.318 42V42.5H186.818V42H186.318ZM182.152 42V41.5H181.652V42H182.152ZM182.152 46.1667V46.6667H182.652V46.1667H182.152ZM169.652 46.1667H169.152V46.6667H169.652V46.1667ZM169.652 42H170.152V41.5H169.652V42ZM165.485 42H164.985V42.5H165.485V42ZM165.485 12.8333V12.3333H164.985V12.8333H165.485ZM169.652 12.8333V13.3333H170.152V12.8333H169.652ZM169.652 8.66667V8.16667H169.152V8.66667H169.652ZM182.152 8.66667H182.652V8.16667H182.152V8.66667ZM169.652 12.8333V12.3333H169.152V12.8333H169.652ZM169.652 42H169.152V42.5H169.652V42ZM182.152 42V42.5H182.652V42H182.152ZM182.152 12.8333V13.3333H186.318V12.8333V12.3333H182.152V12.8333ZM186.318 12.8333H185.818V42H186.318H186.818V12.8333H186.318ZM186.318 42V41.5H182.152V42V42.5H186.318V42ZM182.152 42H181.652V46.1667H182.152H182.652V42H182.152ZM182.152 46.1667V45.6667H169.652V46.1667V46.6667H182.152V46.1667ZM169.652 46.1667H170.152V42H169.652H169.152V46.1667H169.652ZM169.652 42V41.5H165.485V42V42.5H169.652V42ZM165.485 42H165.985V12.8333H165.485H164.985V42H165.485ZM165.485 12.8333V13.3333H169.652V12.8333V12.3333H165.485V12.8333ZM169.652 12.8333H170.152V8.66667H169.652H169.152V12.8333H169.652ZM169.652 8.66667V9.16667H182.152V8.66667V8.16667H169.652V8.66667ZM182.152 8.66667H181.652V12.8333H182.152H182.652V8.66667H182.152ZM182.152 12.8333V12.3333H169.652V12.8333V13.3333H182.152V12.8333ZM169.652 12.8333H169.152V42H169.652H170.152V12.8333H169.652ZM169.652 42V42.5H182.152V42V41.5H169.652V42ZM182.152 42H182.652V12.8333H182.152H181.652V42H182.152ZM204.969 37.8333V38.3333H205.469V37.8333H204.969ZM200.802 37.8333V37.3333H200.302V37.8333H200.802ZM200.802 42H200.302V42.5H200.802V42ZM217.469 42H217.969V41.5H217.469V42ZM217.469 46.1667V46.6667H217.969V46.1667H217.469ZM196.635 46.1667H196.135V46.6667H196.635V46.1667ZM196.635 37.8333V37.3333H196.135V37.8333H196.635ZM200.802 37.8333V38.3333H201.302V37.8333H200.802ZM200.802 33.6667V33.1667H200.302V33.6667H200.802ZM204.969 33.6667V34.1667H205.469V33.6667H204.969ZM204.969 29.5V29H204.469V29.5H204.969ZM209.135 29.5V30H209.635V29.5H209.135ZM209.135 25.3333V24.8333H208.635V25.3333H209.135ZM213.302 25.3333V25.8333H213.802V25.3333H213.302ZM213.302 12.8333H213.802V12.3333H213.302V12.8333ZM200.802 12.8333V12.3333H200.302V12.8333H200.802ZM200.802 21.1667V21.6667H201.302V21.1667H200.802ZM196.635 21.1667H196.135V21.6667H196.635V21.1667ZM196.635 12.8333V12.3333H196.135V12.8333H196.635ZM200.802 12.8333V13.3333H201.302V12.8333H200.802ZM200.802 8.66667V8.16667H200.302V8.66667H200.802ZM213.302 8.66667H213.802V8.16667H213.302V8.66667ZM213.302 12.8333H212.802V13.3333H213.302V12.8333ZM217.469 12.8333H217.969V12.3333H217.469V12.8333ZM217.469 25.3333V25.8333H217.969V25.3333H217.469ZM213.302 25.3333V24.8333H212.802V25.3333H213.302ZM213.302 29.5V30H213.802V29.5H213.302ZM209.135 29.5V29H208.635V29.5H209.135ZM209.135 33.6667V34.1667H209.635V33.6667H209.135ZM204.969 33.6667V33.1667H204.469V33.6667H204.969ZM204.969 37.8333V37.3333H200.802V37.8333V38.3333H204.969V37.8333ZM200.802 37.8333H200.302V42H200.802H201.302V37.8333H200.802ZM200.802 42V42.5H217.469V42V41.5H200.802V42ZM217.469 42H216.969V46.1667H217.469H217.969V42H217.469ZM217.469 46.1667V45.6667H196.635V46.1667V46.6667H217.469V46.1667ZM196.635 46.1667H197.135V37.8333H196.635H196.135V46.1667H196.635ZM196.635 37.8333V38.3333H200.802V37.8333V37.3333H196.635V37.8333ZM200.802 37.8333H201.302V33.6667H200.802H200.302V37.8333H200.802ZM200.802 33.6667V34.1667H204.969V33.6667V33.1667H200.802V33.6667ZM204.969 33.6667H205.469V29.5H204.969H204.469V33.6667H204.969ZM204.969 29.5V30H209.135V29.5V29H204.969V29.5ZM209.135 29.5H209.635V25.3333H209.135H208.635V29.5H209.135ZM209.135 25.3333V25.8333H213.302V25.3333V24.8333H209.135V25.3333ZM213.302 25.3333H213.802V12.8333H213.302H212.802V25.3333H213.302ZM213.302 12.8333V12.3333H200.802V12.8333V13.3333H213.302V12.8333ZM200.802 12.8333H200.302V21.1667H200.802H201.302V12.8333H200.802ZM200.802 21.1667V20.6667H196.635V21.1667V21.6667H200.802V21.1667ZM196.635 21.1667H197.135V12.8333H196.635H196.135V21.1667H196.635ZM196.635 12.8333V13.3333H200.802V12.8333V12.3333H196.635V12.8333ZM200.802 12.8333H201.302V8.66667H200.802H200.302V12.8333H200.802ZM200.802 8.66667V9.16667H213.302V8.66667V8.16667H200.802V8.66667ZM213.302 8.66667H212.802V12.8333H213.302H213.802V8.66667H213.302ZM213.302 12.8333V13.3333H217.469V12.8333V12.3333H213.302V12.8333ZM217.469 12.8333H216.969V25.3333H217.469H217.969V12.8333H217.469ZM217.469 25.3333V24.8333H213.302V25.3333V25.8333H217.469V25.3333ZM213.302 25.3333H212.802V29.5H213.302H213.802V25.3333H213.302ZM213.302 29.5V29H209.135V29.5V30H213.302V29.5ZM209.135 29.5H208.635V33.6667H209.135H209.635V29.5H209.135ZM209.135 33.6667V33.1667H204.969V33.6667V34.1667H209.135V33.6667ZM204.969 33.6667H204.469V37.8333H204.969H205.469V33.6667H204.969ZM227.786 42H227.286V42.5H227.786V42ZM227.786 33.6667V33.1667H227.286V33.6667H227.786ZM231.952 33.6667H232.452V33.1667H231.952V33.6667ZM231.952 42H231.452V42.5H231.952V42ZM244.452 42V42.5H244.952V42H244.452ZM244.452 25.3333H244.952V24.8333H244.452V25.3333ZM227.786 25.3333H227.286V25.8333H227.786V25.3333ZM227.786 8.66667V8.16667H227.286V8.66667H227.786ZM248.619 8.66667H249.119V8.16667H248.619V8.66667ZM248.619 12.8333V13.3333H249.119V12.8333H248.619ZM231.952 12.8333V12.3333H231.452V12.8333H231.952ZM231.952 21.1667H231.452V21.6667H231.952V21.1667ZM244.452 21.1667H244.952V20.6667H244.452V21.1667ZM244.452 25.3333H243.952V25.8333H244.452V25.3333ZM248.619 25.3333H249.119V24.8333H248.619V25.3333ZM248.619 42V42.5H249.119V42H248.619ZM244.452 42V41.5H243.952V42H244.452ZM244.452 46.1667V46.6667H244.952V46.1667H244.452ZM231.952 46.1667H231.452V46.6667H231.952V46.1667ZM231.952 42H232.452V41.5H231.952V42ZM227.786 42H228.286V33.6667H227.786H227.286V42H227.786ZM227.786 33.6667V34.1667H231.952V33.6667V33.1667H227.786V33.6667ZM231.952 33.6667H231.452V42H231.952H232.452V33.6667H231.952ZM231.952 42V42.5H244.452V42V41.5H231.952V42ZM244.452 42H244.952V25.3333H244.452H243.952V42H244.452ZM244.452 25.3333V24.8333H227.786V25.3333V25.8333H244.452V25.3333ZM227.786 25.3333H228.286V8.66667H227.786H227.286V25.3333H227.786ZM227.786 8.66667V9.16667H248.619V8.66667V8.16667H227.786V8.66667ZM248.619 8.66667H248.119V12.8333H248.619H249.119V8.66667H248.619ZM248.619 12.8333V12.3333H231.952V12.8333V13.3333H248.619V12.8333ZM231.952 12.8333H231.452V21.1667H231.952H232.452V12.8333H231.952ZM231.952 21.1667V21.6667H244.452V21.1667V20.6667H231.952V21.1667ZM244.452 21.1667H243.952V25.3333H244.452H244.952V21.1667H244.452ZM244.452 25.3333V25.8333H248.619V25.3333V24.8333H244.452V25.3333ZM248.619 25.3333H248.119V42H248.619H249.119V25.3333H248.619ZM248.619 42V41.5H244.452V42V42.5H248.619V42ZM244.452 42H243.952V46.1667H244.452H244.952V42H244.452ZM244.452 46.1667V45.6667H231.952V46.1667V46.6667H244.452V46.1667ZM231.952 46.1667H232.452V42H231.952H231.452V46.1667H231.952ZM231.952 42V41.5H227.786V42V42.5H231.952V42ZM258.936 50.3333H258.436V50.8333H258.936V50.3333ZM258.936 42V41.5H258.436V42H258.936ZM263.103 42V42.5H263.603V42H263.103ZM263.103 33.6667V33.1667H262.603V33.6667H263.103ZM267.27 33.6667V34.1667H267.77V33.6667H267.27ZM267.27 25.3333V24.8333H266.77V25.3333H267.27ZM271.436 25.3333V25.8333H271.936V25.3333H271.436ZM271.436 17V16.5H270.936V17H271.436ZM275.603 17V17.5H276.103V17H275.603ZM275.603 8.66667V8.16667H275.103V8.66667H275.603ZM279.77 8.66667H280.27V8.16667H279.77V8.66667ZM279.77 17V17.5H280.27V17H279.77ZM275.603 17V16.5H275.103V17H275.603ZM275.603 25.3333V25.8333H276.103V25.3333H275.603ZM271.436 25.3333V24.8333H270.936V25.3333H271.436ZM271.436 33.6667V34.1667H271.936V33.6667H271.436ZM267.27 33.6667V33.1667H266.77V33.6667H267.27ZM267.27 42V42.5H267.77V42H267.27ZM263.103 42V41.5H262.603V42H263.103ZM263.103 50.3333V50.8333H263.603V50.3333H263.103ZM258.936 50.3333H259.436V42H258.936H258.436V50.3333H258.936ZM258.936 42V42.5H263.103V42V41.5H258.936V42ZM263.103 42H263.603V33.6667H263.103H262.603V42H263.103ZM263.103 33.6667V34.1667H267.27V33.6667V33.1667H263.103V33.6667ZM267.27 33.6667H267.77V25.3333H267.27H266.77V33.6667H267.27ZM267.27 25.3333V25.8333H271.436V25.3333V24.8333H267.27V25.3333ZM271.436 25.3333H271.936V17H271.436H270.936V25.3333H271.436ZM271.436 17V17.5H275.603V17V16.5H271.436V17ZM275.603 17H276.103V8.66667H275.603H275.103V17H275.603ZM275.603 8.66667V9.16667H279.77V8.66667V8.16667H275.603V8.66667ZM279.77 8.66667H279.27V17H279.77H280.27V8.66667H279.77ZM279.77 17V16.5H275.603V17V17.5H279.77V17ZM275.603 17H275.103V25.3333H275.603H276.103V17H275.603ZM275.603 25.3333V24.8333H271.436V25.3333V25.8333H275.603V25.3333ZM271.436 25.3333H270.936V33.6667H271.436H271.936V25.3333H271.436ZM271.436 33.6667V33.1667H267.27V33.6667V34.1667H271.436V33.6667ZM267.27 33.6667H266.77V42H267.27H267.77V33.6667H267.27ZM267.27 42V41.5H263.103V42V42.5H267.27V42ZM263.103 42H262.603V50.3333H263.103H263.603V42H263.103ZM263.103 50.3333V49.8333H258.936V50.3333V50.8333H263.103V50.3333ZM294.302 21.1667V21.6667H294.802V21.1667H294.302ZM290.135 21.1667H289.635V21.6667H290.135V21.1667ZM290.135 17V16.5H289.635V17H290.135ZM294.302 17V17.5H294.802V17H294.302ZM294.302 12.8333V12.3333H293.802V12.8333H294.302ZM298.469 12.8333V13.3333H298.969V12.8333H298.469ZM298.469 8.66667V8.16667H297.969V8.66667H298.469ZM302.635 8.66667H303.135V8.16667H302.635V8.66667ZM302.635 46.1667V46.6667H303.135V46.1667H302.635ZM298.469 46.1667H297.969V46.6667H298.469V46.1667ZM298.469 17H298.969V16.5H298.469V17ZM294.302 17V16.5H293.802V17H294.302ZM294.302 21.1667V20.6667H290.135V21.1667V21.6667H294.302V21.1667ZM290.135 21.1667H290.635V17H290.135H289.635V21.1667H290.135ZM290.135 17V17.5H294.302V17V16.5H290.135V17ZM294.302 17H294.802V12.8333H294.302H293.802V17H294.302ZM294.302 12.8333V13.3333H298.469V12.8333V12.3333H294.302V12.8333ZM298.469 12.8333H298.969V8.66667H298.469H297.969V12.8333H298.469ZM298.469 8.66667V9.16667H302.635V8.66667V8.16667H298.469V8.66667ZM302.635 8.66667H302.135V46.1667H302.635H303.135V8.66667H302.635ZM302.635 46.1667V45.6667H298.469V46.1667V46.6667H302.635V46.1667ZM298.469 46.1667H298.969V17H298.469H297.969V46.1667H298.469ZM298.469 17V16.5H294.302V17V17.5H298.469V17ZM294.302 17H293.802V21.1667H294.302H294.802V17H294.302ZM337.969 12.8333H338.469V12.3333H337.969V12.8333ZM337.969 42V42.5H338.469V42H337.969ZM333.802 42V41.5H333.302V42H333.802ZM333.802 46.1667V46.6667H334.302V46.1667H333.802ZM321.302 46.1667H320.802V46.6667H321.302V46.1667ZM321.302 42H321.802V41.5H321.302V42ZM317.135 42H316.635V42.5H317.135V42ZM317.135 12.8333V12.3333H316.635V12.8333H317.135ZM321.302 12.8333V13.3333H321.802V12.8333H321.302ZM321.302 8.66667V8.16667H320.802V8.66667H321.302ZM333.802 8.66667H334.302V8.16667H333.802V8.66667ZM321.302 12.8333V12.3333H320.802V12.8333H321.302ZM321.302 42H320.802V42.5H321.302V42ZM333.802 42V42.5H334.302V42H333.802ZM333.802 12.8333V13.3333H337.969V12.8333V12.3333H333.802V12.8333ZM337.969 12.8333H337.469V42H337.969H338.469V12.8333H337.969ZM337.969 42V41.5H333.802V42V42.5H337.969V42ZM333.802 42H333.302V46.1667H333.802H334.302V42H333.802ZM333.802 46.1667V45.6667H321.302V46.1667V46.6667H333.802V46.1667ZM321.302 46.1667H321.802V42H321.302H320.802V46.1667H321.302ZM321.302 42V41.5H317.135V42V42.5H321.302V42ZM317.135 42H317.635V12.8333H317.135H316.635V42H317.135ZM317.135 12.8333V13.3333H321.302V12.8333V12.3333H317.135V12.8333ZM321.302 12.8333H321.802V8.66667H321.302H320.802V12.8333H321.302ZM321.302 8.66667V9.16667H333.802V8.66667V8.16667H321.302V8.66667ZM333.802 8.66667H333.302V12.8333H333.802H334.302V8.66667H333.802ZM333.802 12.8333V12.3333H321.302V12.8333V13.3333H333.802V12.8333ZM321.302 12.8333H320.802V42H321.302H321.802V12.8333H321.302ZM321.302 42V42.5H333.802V42V41.5H321.302V42ZM333.802 42H334.302V12.8333H333.802H333.302V42H333.802ZM348.286 50.3333H347.786V50.8333H348.286V50.3333ZM348.286 42V41.5H347.786V42H348.286ZM352.452 42V42.5H352.952V42H352.452ZM352.452 33.6667V33.1667H351.952V33.6667H352.452ZM356.619 33.6667V34.1667H357.119V33.6667H356.619ZM356.619 25.3333V24.8333H356.119V25.3333H356.619ZM360.786 25.3333V25.8333H361.286V25.3333H360.786ZM360.786 17V16.5H360.286V17H360.786ZM364.952 17V17.5H365.452V17H364.952ZM364.952 8.66667V8.16667H364.452V8.66667H364.952ZM369.119 8.66667H369.619V8.16667H369.119V8.66667ZM369.119 17V17.5H369.619V17H369.119ZM364.952 17V16.5H364.452V17H364.952ZM364.952 25.3333V25.8333H365.452V25.3333H364.952ZM360.786 25.3333V24.8333H360.286V25.3333H360.786ZM360.786 33.6667V34.1667H361.286V33.6667H360.786ZM356.619 33.6667V33.1667H356.119V33.6667H356.619ZM356.619 42V42.5H357.119V42H356.619ZM352.452 42V41.5H351.952V42H352.452ZM352.452 50.3333V50.8333H352.952V50.3333H352.452ZM348.286 50.3333H348.786V42H348.286H347.786V50.3333H348.286ZM348.286 42V42.5H352.452V42V41.5H348.286V42ZM352.452 42H352.952V33.6667H352.452H351.952V42H352.452ZM352.452 33.6667V34.1667H356.619V33.6667V33.1667H352.452V33.6667ZM356.619 33.6667H357.119V25.3333H356.619H356.119V33.6667H356.619ZM356.619 25.3333V25.8333H360.786V25.3333V24.8333H356.619V25.3333ZM360.786 25.3333H361.286V17H360.786H360.286V25.3333H360.786ZM360.786 17V17.5H364.952V17V16.5H360.786V17ZM364.952 17H365.452V8.66667H364.952H364.452V17H364.952ZM364.952 8.66667V9.16667H369.119V8.66667V8.16667H364.952V8.66667ZM369.119 8.66667H368.619V17H369.119H369.619V8.66667H369.119ZM369.119 17V16.5H364.952V17V17.5H369.119V17ZM364.952 17H364.452V25.3333H364.952H365.452V17H364.952ZM364.952 25.3333V24.8333H360.786V25.3333V25.8333H364.952V25.3333ZM360.786 25.3333H360.286V33.6667H360.786H361.286V25.3333H360.786ZM360.786 33.6667V33.1667H356.619V33.6667V34.1667H360.786V33.6667ZM356.619 33.6667H356.119V42H356.619H357.119V33.6667H356.619ZM356.619 42V41.5H352.452V42V42.5H356.619V42ZM352.452 42H351.952V50.3333H352.452H352.952V42H352.452ZM352.452 50.3333V49.8333H348.286V50.3333V50.8333H352.452V50.3333ZM383.652 21.1667V21.6667H384.152V21.1667H383.652ZM379.485 21.1667H378.985V21.6667H379.485V21.1667ZM379.485 17V16.5H378.985V17H379.485ZM383.652 17V17.5H384.152V17H383.652ZM383.652 12.8333V12.3333H383.152V12.8333H383.652ZM387.818 12.8333V13.3333H388.318V12.8333H387.818ZM387.818 8.66667V8.16667H387.318V8.66667H387.818ZM391.985 8.66667H392.485V8.16667H391.985V8.66667ZM391.985 46.1667V46.6667H392.485V46.1667H391.985ZM387.818 46.1667H387.318V46.6667H387.818V46.1667ZM387.818 17H388.318V16.5H387.818V17ZM383.652 17V16.5H383.152V17H383.652ZM383.652 21.1667V20.6667H379.485V21.1667V21.6667H383.652V21.1667ZM379.485 21.1667H379.985V17H379.485H378.985V21.1667H379.485ZM379.485 17V17.5H383.652V17V16.5H379.485V17ZM383.652 17H384.152V12.8333H383.652H383.152V17H383.652ZM383.652 12.8333V13.3333H387.818V12.8333V12.3333H383.652V12.8333ZM387.818 12.8333H388.318V8.66667H387.818H387.318V12.8333H387.818ZM387.818 8.66667V9.16667H391.985V8.66667V8.16667H387.818V8.66667ZM391.985 8.66667H391.485V46.1667H391.985H392.485V8.66667H391.985ZM391.985 46.1667V45.6667H387.818V46.1667V46.6667H391.985V46.1667ZM387.818 46.1667H388.318V17H387.818H387.318V46.1667H387.818ZM387.818 17V16.5H383.652V17V17.5H387.818V17ZM383.652 17H383.152V21.1667H383.652H384.152V17H383.652ZM420.969 29.5H420.469V30H420.969V29.5ZM420.969 25.3333V24.8333H420.469V25.3333H420.969ZM445.969 25.3333H446.469V24.8333H445.969V25.3333ZM445.969 29.5V30H446.469V29.5H445.969ZM420.969 29.5H421.469V25.3333H420.969H420.469V29.5H420.969ZM420.969 25.3333V25.8333H445.969V25.3333V24.8333H420.969V25.3333ZM445.969 25.3333H445.469V29.5H445.969H446.469V25.3333H445.969ZM445.969 29.5V29H420.969V29.5V30H445.969V29.5ZM479.103 21.1667V21.6667H479.603V21.1667H479.103ZM474.936 21.1667H474.436V21.6667H474.936V21.1667ZM474.936 17V16.5H474.436V17H474.936ZM479.103 17V17.5H479.603V17H479.103ZM479.103 12.8333V12.3333H478.603V12.8333H479.103ZM483.27 12.8333V13.3333H483.77V12.8333H483.27ZM483.27 8.66667V8.16667H482.77V8.66667H483.27ZM487.436 8.66667H487.936V8.16667H487.436V8.66667ZM487.436 46.1667V46.6667H487.936V46.1667H487.436ZM483.27 46.1667H482.77V46.6667H483.27V46.1667ZM483.27 17H483.77V16.5H483.27V17ZM479.103 17V16.5H478.603V17H479.103ZM479.103 21.1667V20.6667H474.936V21.1667V21.6667H479.103V21.1667ZM474.936 21.1667H475.436V17H474.936H474.436V21.1667H474.936ZM474.936 17V17.5H479.103V17V16.5H474.936V17ZM479.103 17H479.603V12.8333H479.103H478.603V17H479.103ZM479.103 12.8333V13.3333H483.27V12.8333V12.3333H479.103V12.8333ZM483.27 12.8333H483.77V8.66667H483.27H482.77V12.8333H483.27ZM483.27 8.66667V9.16667H487.436V8.66667V8.16667H483.27V8.66667ZM487.436 8.66667H486.936V46.1667H487.436H487.936V8.66667H487.436ZM487.436 46.1667V45.6667H483.27V46.1667V46.6667H487.436V46.1667ZM483.27 46.1667H483.77V17H483.27H482.77V46.1667H483.27ZM483.27 17V16.5H479.103V17V17.5H483.27V17ZM479.103 17H478.603V21.1667H479.103H479.603V17H479.103ZM510.27 37.8333V38.3333H510.77V37.8333H510.27ZM506.103 37.8333V37.3333H505.603V37.8333H506.103ZM506.103 42H505.603V42.5H506.103V42ZM522.77 42H523.27V41.5H522.77V42ZM522.77 46.1667V46.6667H523.27V46.1667H522.77ZM501.936 46.1667H501.436V46.6667H501.936V46.1667ZM501.936 37.8333V37.3333H501.436V37.8333H501.936ZM506.103 37.8333V38.3333H506.603V37.8333H506.103ZM506.103 33.6667V33.1667H505.603V33.6667H506.103ZM510.27 33.6667V34.1667H510.77V33.6667H510.27ZM510.27 29.5V29H509.77V29.5H510.27ZM514.436 29.5V30H514.936V29.5H514.436ZM514.436 25.3333V24.8333H513.936V25.3333H514.436ZM518.603 25.3333V25.8333H519.103V25.3333H518.603ZM518.603 12.8333H519.103V12.3333H518.603V12.8333ZM506.103 12.8333V12.3333H505.603V12.8333H506.103ZM506.103 21.1667V21.6667H506.603V21.1667H506.103ZM501.936 21.1667H501.436V21.6667H501.936V21.1667ZM501.936 12.8333V12.3333H501.436V12.8333H501.936ZM506.103 12.8333V13.3333H506.603V12.8333H506.103ZM506.103 8.66667V8.16667H505.603V8.66667H506.103ZM518.603 8.66667H519.103V8.16667H518.603V8.66667ZM518.603 12.8333H518.103V13.3333H518.603V12.8333ZM522.77 12.8333H523.27V12.3333H522.77V12.8333ZM522.77 25.3333V25.8333H523.27V25.3333H522.77ZM518.603 25.3333V24.8333H518.103V25.3333H518.603ZM518.603 29.5V30H519.103V29.5H518.603ZM514.436 29.5V29H513.936V29.5H514.436ZM514.436 33.6667V34.1667H514.936V33.6667H514.436ZM510.27 33.6667V33.1667H509.77V33.6667H510.27ZM510.27 37.8333V37.3333H506.103V37.8333V38.3333H510.27V37.8333ZM506.103 37.8333H505.603V42H506.103H506.603V37.8333H506.103ZM506.103 42V42.5H522.77V42V41.5H506.103V42ZM522.77 42H522.27V46.1667H522.77H523.27V42H522.77ZM522.77 46.1667V45.6667H501.936V46.1667V46.6667H522.77V46.1667ZM501.936 46.1667H502.436V37.8333H501.936H501.436V46.1667H501.936ZM501.936 37.8333V38.3333H506.103V37.8333V37.3333H501.936V37.8333ZM506.103 37.8333H506.603V33.6667H506.103H505.603V37.8333H506.103ZM506.103 33.6667V34.1667H510.27V33.6667V33.1667H506.103V33.6667ZM510.27 33.6667H510.77V29.5H510.27H509.77V33.6667H510.27ZM510.27 29.5V30H514.436V29.5V29H510.27V29.5ZM514.436 29.5H514.936V25.3333H514.436H513.936V29.5H514.436ZM514.436 25.3333V25.8333H518.603V25.3333V24.8333H514.436V25.3333ZM518.603 25.3333H519.103V12.8333H518.603H518.103V25.3333H518.603ZM518.603 12.8333V12.3333H506.103V12.8333V13.3333H518.603V12.8333ZM506.103 12.8333H505.603V21.1667H506.103H506.603V12.8333H506.103ZM506.103 21.1667V20.6667H501.936V21.1667V21.6667H506.103V21.1667ZM501.936 21.1667H502.436V12.8333H501.936H501.436V21.1667H501.936ZM501.936 12.8333V13.3333H506.103V12.8333V12.3333H501.936V12.8333ZM506.103 12.8333H506.603V8.66667H506.103H505.603V12.8333H506.103ZM506.103 8.66667V9.16667H518.603V8.66667V8.16667H506.103V8.66667ZM518.603 8.66667H518.103V12.8333H518.603H519.103V8.66667H518.603ZM518.603 12.8333V13.3333H522.77V12.8333V12.3333H518.603V12.8333ZM522.77 12.8333H522.27V25.3333H522.77H523.27V12.8333H522.77ZM522.77 25.3333V24.8333H518.603V25.3333V25.8333H522.77V25.3333ZM518.603 25.3333H518.103V29.5H518.603H519.103V25.3333H518.603ZM518.603 29.5V29H514.436V29.5V30H518.603V29.5ZM514.436 29.5H513.936V33.6667H514.436H514.936V29.5H514.436ZM514.436 33.6667V33.1667H510.27V33.6667V34.1667H514.436V33.6667ZM510.27 33.6667H509.77V37.8333H510.27H510.77V33.6667H510.27ZM533.087 50.3333H532.587V50.8333H533.087V50.3333ZM533.087 42V41.5H532.587V42H533.087ZM537.253 42V42.5H537.753V42H537.253ZM537.253 33.6667V33.1667H536.753V33.6667H537.253ZM541.42 33.6667V34.1667H541.92V33.6667H541.42ZM541.42 25.3333V24.8333H540.92V25.3333H541.42ZM545.587 25.3333V25.8333H546.087V25.3333H545.587ZM545.587 17V16.5H545.087V17H545.587ZM549.753 17V17.5H550.253V17H549.753ZM549.753 8.66667V8.16667H549.253V8.66667H549.753ZM553.92 8.66667H554.42V8.16667H553.92V8.66667ZM553.92 17V17.5H554.42V17H553.92ZM549.753 17V16.5H549.253V17H549.753ZM549.753 25.3333V25.8333H550.253V25.3333H549.753ZM545.587 25.3333V24.8333H545.087V25.3333H545.587ZM545.587 33.6667V34.1667H546.087V33.6667H545.587ZM541.42 33.6667V33.1667H540.92V33.6667H541.42ZM541.42 42V42.5H541.92V42H541.42ZM537.253 42V41.5H536.753V42H537.253ZM537.253 50.3333V50.8333H537.753V50.3333H537.253ZM533.087 50.3333H533.587V42H533.087H532.587V50.3333H533.087ZM533.087 42V42.5H537.253V42V41.5H533.087V42ZM537.253 42H537.753V33.6667H537.253H536.753V42H537.253ZM537.253 33.6667V34.1667H541.42V33.6667V33.1667H537.253V33.6667ZM541.42 33.6667H541.92V25.3333H541.42H540.92V33.6667H541.42ZM541.42 25.3333V25.8333H545.587V25.3333V24.8333H541.42V25.3333ZM545.587 25.3333H546.087V17H545.587H545.087V25.3333H545.587ZM545.587 17V17.5H549.753V17V16.5H545.587V17ZM549.753 17H550.253V8.66667H549.753H549.253V17H549.753ZM549.753 8.66667V9.16667H553.92V8.66667V8.16667H549.753V8.66667ZM553.92 8.66667H553.42V17H553.92H554.42V8.66667H553.92ZM553.92 17V16.5H549.753V17V17.5H553.92V17ZM549.753 17H549.253V25.3333H549.753H550.253V17H549.753ZM549.753 25.3333V24.8333H545.587V25.3333V25.8333H549.753V25.3333ZM545.587 25.3333H545.087V33.6667H545.587H546.087V25.3333H545.587ZM545.587 33.6667V33.1667H541.42V33.6667V34.1667H545.587V33.6667ZM541.42 33.6667H540.92V42H541.42H541.92V33.6667H541.42ZM541.42 42V41.5H537.253V42V42.5H541.42V42ZM537.253 42H536.753V50.3333H537.253H537.753V42H537.253ZM537.253 50.3333V49.8333H533.087V50.3333V50.8333H537.253V50.3333ZM564.286 42H563.786V42.5H564.286V42ZM564.286 37.8333V37.3333H563.786V37.8333H564.286ZM568.452 37.8333H568.952V37.3333H568.452V37.8333ZM568.452 42H567.952V42.5H568.452V42ZM580.952 42V42.5H581.452V42H580.952ZM580.952 29.5H581.452V29H580.952V29.5ZM568.452 29.5H567.952V30H568.452V29.5ZM568.452 25.3333V24.8333H567.952V25.3333H568.452ZM572.619 25.3333V25.8333H573.119V25.3333H572.619ZM572.619 21.1667V20.6667H572.119V21.1667H572.619ZM576.786 21.1667V21.6667H577.286V21.1667H576.786ZM576.786 17V16.5H576.286V17H576.786ZM580.952 17V17.5H581.452V17H580.952ZM580.952 12.8333H581.452V12.3333H580.952V12.8333ZM564.286 12.8333H563.786V13.3333H564.286V12.8333ZM564.286 8.66667V8.16667H563.786V8.66667H564.286ZM585.119 8.66667H585.619V8.16667H585.119V8.66667ZM585.119 17V17.5H585.619V17H585.119ZM580.952 17V16.5H580.452V17H580.952ZM580.952 21.1667V21.6667H581.452V21.1667H580.952ZM576.786 21.1667V20.6667H576.286V21.1667H576.786ZM576.786 25.3333H576.286V25.8333H576.786V25.3333ZM580.952 25.3333H581.452V24.8333H580.952V25.3333ZM580.952 29.5H580.452V30H580.952V29.5ZM585.119 29.5H585.619V29H585.119V29.5ZM585.119 42V42.5H585.619V42H585.119ZM580.952 42V41.5H580.452V42H580.952ZM580.952 46.1667V46.6667H581.452V46.1667H580.952ZM568.452 46.1667H567.952V46.6667H568.452V46.1667ZM568.452 42H568.952V41.5H568.452V42ZM564.286 42H564.786V37.8333H564.286H563.786V42H564.286ZM564.286 37.8333V38.3333H568.452V37.8333V37.3333H564.286V37.8333ZM568.452 37.8333H567.952V42H568.452H568.952V37.8333H568.452ZM568.452 42V42.5H580.952V42V41.5H568.452V42ZM580.952 42H581.452V29.5H580.952H580.452V42H580.952ZM580.952 29.5V29H568.452V29.5V30H580.952V29.5ZM568.452 29.5H568.952V25.3333H568.452H567.952V29.5H568.452ZM568.452 25.3333V25.8333H572.619V25.3333V24.8333H568.452V25.3333ZM572.619 25.3333H573.119V21.1667H572.619H572.119V25.3333H572.619ZM572.619 21.1667V21.6667H576.786V21.1667V20.6667H572.619V21.1667ZM576.786 21.1667H577.286V17H576.786H576.286V21.1667H576.786ZM576.786 17V17.5H580.952V17V16.5H576.786V17ZM580.952 17H581.452V12.8333H580.952H580.452V17H580.952ZM580.952 12.8333V12.3333H564.286V12.8333V13.3333H580.952V12.8333ZM564.286 12.8333H564.786V8.66667H564.286H563.786V12.8333H564.286ZM564.286 8.66667V9.16667H585.119V8.66667V8.16667H564.286V8.66667ZM585.119 8.66667H584.619V17H585.119H585.619V8.66667H585.119ZM585.119 17V16.5H580.952V17V17.5H585.119V17ZM580.952 17H580.452V21.1667H580.952H581.452V17H580.952ZM580.952 21.1667V20.6667H576.786V21.1667V21.6667H580.952V21.1667ZM576.786 21.1667H576.286V25.3333H576.786H577.286V21.1667H576.786ZM576.786 25.3333V25.8333H580.952V25.3333V24.8333H576.786V25.3333ZM580.952 25.3333H580.452V29.5H580.952H581.452V25.3333H580.952ZM580.952 29.5V30H585.119V29.5V29H580.952V29.5ZM585.119 29.5H584.619V42H585.119H585.619V29.5H585.119ZM585.119 42V41.5H580.952V42V42.5H585.119V42ZM580.952 42H580.452V46.1667H580.952H581.452V42H580.952ZM580.952 46.1667V45.6667H568.452V46.1667V46.6667H580.952V46.1667ZM568.452 46.1667H568.952V42H568.452H567.952V46.1667H568.452ZM568.452 42V41.5H564.286V42V42.5H568.452V42ZM599.603 21.1667V21.6667H600.103V21.1667H599.603ZM595.436 21.1667H594.936V21.6667H595.436V21.1667ZM595.436 17V16.5H594.936V17H595.436ZM599.603 17V17.5H600.103V17H599.603ZM599.603 12.8333V12.3333H599.103V12.8333H599.603ZM603.77 12.8333V13.3333H604.27V12.8333H603.77ZM603.77 8.66667V8.16667H603.27V8.66667H603.77ZM607.936 8.66667H608.436V8.16667H607.936V8.66667ZM607.936 46.1667V46.6667H608.436V46.1667H607.936ZM603.77 46.1667H603.27V46.6667H603.77V46.1667ZM603.77 17H604.27V16.5H603.77V17ZM599.603 17V16.5H599.103V17H599.603ZM599.603 21.1667V20.6667H595.436V21.1667V21.6667H599.603V21.1667ZM595.436 21.1667H595.936V17H595.436H594.936V21.1667H595.436ZM595.436 17V17.5H599.603V17V16.5H595.436V17ZM599.603 17H600.103V12.8333H599.603H599.103V17H599.603ZM599.603 12.8333V13.3333H603.77V12.8333V12.3333H599.603V12.8333ZM603.77 12.8333H604.27V8.66667H603.77H603.27V12.8333H603.77ZM603.77 8.66667V9.16667H607.936V8.66667V8.16667H603.77V8.66667ZM607.936 8.66667H607.436V46.1667H607.936H608.436V8.66667H607.936ZM607.936 46.1667V45.6667H603.77V46.1667V46.6667H607.936V46.1667ZM603.77 46.1667H604.27V17H603.77H603.27V46.1667H603.77ZM603.77 17V16.5H599.603V17V17.5H603.77V17ZM599.603 17H599.103V21.1667H599.603H600.103V17H599.603Z" fill="#004CFF"/>
</g>
<defs>
<filter id="filter0_dd_5_14558" x="163.818" y="455.229" width="100.109" height="104.159" filterUnits="userSpaceOnUse" color-interpolation-filters="sRGB">
<feFlood flood-opacity="0" result="BackgroundImageFix"/>
<feColorMatrix in="SourceAlpha" type="matrix" values="0 0 0 0 0 0 0 0 0 0 0 0 0 0 0 0 0 0 127 0" result="hardAlpha"/>
<feOffset dy="-7"/>
<feComposite in2="hardAlpha" operator="out"/>
<feColorMatrix type="matrix" values="0 0 0 0 0.939463 0 0 0 0 0.937042 0 0 0 0 1 0 0 0 0.7 0"/>
<feBlend mode="normal" in2="BackgroundImageFix" result="effect1_dropShadow_5_14558"/>
<feColorMatrix in="SourceAlpha" type="matrix" values="0 0 0 0 0 0 0 0 0 0 0 0 0 0 0 0 0 0 127 0" result="hardAlpha"/>
<feOffset dx="7"/>
<feComposite in2="hardAlpha" operator="out"/>
<feColorMatrix type="matrix" values="0 0 0 0 0 0 0 0 0 0.0201296 0 0 0 0 0.41467 0 0 0 1 0"/>
<feBlend mode="normal" in2="effect1_dropShadow_5_14558" result="effect2_dropShadow_5_14558"/>
<feBlend mode="normal" in="SourceGraphic" in2="effect2_dropShadow_5_14558" result="shape"/>
</filter>
<filter id="filter1_dd_5_14558" x="269.719" y="446.069" width="100" height="104" filterUnits="userSpaceOnUse" color-interpolation-filters="sRGB">
<feFlood flood-opacity="0" result="BackgroundImageFix"/>
<feColorMatrix in="SourceAlpha" type="matrix" values="0 0 0 0 0 0 0 0 0 0 0 0 0 0 0 0 0 0 127 0" result="hardAlpha"/>
<feOffset dy="-7"/>
<feComposite in2="hardAlpha" operator="out"/>
<feColorMatrix type="matrix" values="0 0 0 0 0.939463 0 0 0 0 0.937042 0 0 0 0 1 0 0 0 0.7 0"/>
<feBlend mode="normal" in2="BackgroundImageFix" result="effect1_dropShadow_5_14558"/>
<feColorMatrix in="SourceAlpha" type="matrix" values="0 0 0 0 0 0 0 0 0 0 0 0 0 0 0 0 0 0 127 0" result="hardAlpha"/>
<feOffset dx="7"/>
<feComposite in2="hardAlpha" operator="out"/>
<feColorMatrix type="matrix" values="0 0 0 0 0 0 0 0 0 0.0201296 0 0 0 0 0.41467 0 0 0 1 0"/>
<feBlend mode="normal" in2="effect1_dropShadow_5_14558" result="effect2_dropShadow_5_14558"/>
<feBlend mode="normal" in="SourceGraphic" in2="effect2_dropShadow_5_14558" result="shape"/>
</filter>
<filter id="filter2_dd_5_14558" x="386.441" y="456.385" width="100.137" height="107.546" filterUnits="userSpaceOnUse" color-interpolation-filters="sRGB">
<feFlood flood-opacity="0" result="BackgroundImageFix"/>
<feColorMatrix in="SourceAlpha" type="matrix" values="0 0 0 0 0 0 0 0 0 0 0 0 0 0 0 0 0 0 127 0" result="hardAlpha"/>
<feOffset dy="-7"/>
<feComposite in2="hardAlpha" operator="out"/>
<feColorMatrix type="matrix" values="0 0 0 0 0.939463 0 0 0 0 0.937042 0 0 0 0 1 0 0 0 0.7 0"/>
<feBlend mode="normal" in2="BackgroundImageFix" result="effect1_dropShadow_5_14558"/>
<feColorMatrix in="SourceAlpha" type="matrix" values="0 0 0 0 0 0 0 0 0 0 0 0 0 0 0 0 0 0 127 0" result="hardAlpha"/>
<feOffset dx="7"/>
<feComposite in2="hardAlpha" operator="out"/>
<feColorMatrix type="matrix" values="0 0 0 0 0 0 0 0 0 0.0201296 0 0 0 0 0.41467 0 0 0 1 0"/>
<feBlend mode="normal" in2="effect1_dropShadow_5_14558" result="effect2_dropShadow_5_14558"/>
<feBlend mode="normal" in="SourceGraphic" in2="effect2_dropShadow_5_14558" result="shape"/>
</filter>
<filter id="filter3_dd_5_14558" x="505.719" y="445" width="100" height="112" filterUnits="userSpaceOnUse" color-interpolation-filters="sRGB">
<feFlood flood-opacity="0" result="BackgroundImageFix"/>
<feColorMatrix in="SourceAlpha" type="matrix" values="0 0 0 0 0 0 0 0 0 0 0 0 0 0 0 0 0 0 127 0" result="hardAlpha"/>
<feOffset dy="-7"/>
<feComposite in2="hardAlpha" operator="out"/>
<feColorMatrix type="matrix" values="0 0 0 0 0.939463 0 0 0 0 0.937042 0 0 0 0 1 0 0 0 0.7 0"/>
<feBlend mode="normal" in2="BackgroundImageFix" result="effect1_dropShadow_5_14558"/>
<feColorMatrix in="SourceAlpha" type="matrix" values="0 0 0 0 0 0 0 0 0 0 0 0 0 0 0 0 0 0 127 0" result="hardAlpha"/>
<feOffset dx="7"/>
<feComposite in2="hardAlpha" operator="out"/>
<feColorMatrix type="matrix" values="0 0 0 0 0 0 0 0 0 0.0201296 0 0 0 0 0.41467 0 0 0 1 0"/>
<feBlend mode="normal" in2="effect1_dropShadow_5_14558" result="effect2_dropShadow_5_14558"/>
<feBlend mode="normal" in="SourceGraphic" in2="effect2_dropShadow_5_14558" result="shape"/>
</filter>
<filter id="filter4_d_5_14558" x="79.1647" y="3.83334" width="587.122" height="52.6667" filterUnits="userSpaceOnUse" color-interpolation-filters="sRGB">
<feFlood flood-opacity="0" result="BackgroundImageFix"/>
<feColorMatrix in="SourceAlpha" type="matrix" values="0 0 0 0 0 0 0 0 0 0 0 0 0 0 0 0 0 0 127 0" result="hardAlpha"/>
<feOffset dy="4"/>
<feComposite in2="hardAlpha" operator="out"/>
<feColorMatrix type="matrix" values="0 0 0 0 1 0 0 0 0 1 0 0 0 0 1 0 0 0 1 0"/>
<feBlend mode="normal" in2="BackgroundImageFix" result="effect1_dropShadow_5_14558"/>
<feBlend mode="normal" in="SourceGraphic" in2="effect1_dropShadow_5_14558" result="shape"/>
</filter>
<filter id="filter5_d_5_14558" x="133.835" y="8.16666" width="474.602" height="46.6667" filterUnits="userSpaceOnUse" color-interpolation-filters="sRGB">
<feFlood flood-opacity="0" result="BackgroundImageFix"/>
<feColorMatrix in="SourceAlpha" type="matrix" values="0 0 0 0 0 0 0 0 0 0 0 0 0 0 0 0 0 0 127 0" result="hardAlpha"/>
<feOffset dy="4"/>
<feComposite in2="hardAlpha" operator="out"/>
<feColorMatrix type="matrix" values="0 0 0 0 1 0 0 0 0 1 0 0 0 0 1 0 0 0 1 0"/>
<feBlend mode="normal" in2="BackgroundImageFix" result="effect1_dropShadow_5_14558"/>
<feBlend mode="normal" in="SourceGraphic" in2="effect1_dropShadow_5_14558" result="shape"/>
</filter>
<clipPath id="clip0_5_14558">
<rect width="55" height="55" fill="white" transform="translate(351.719 105)"/>
</clipPath>
<clipPath id="clip1_5_14558">
<rect width="55" height="55" fill="white" transform="translate(588.719 105)"/>
</clipPath>
<clipPath id="clip2_5_14558">
<rect width="55" height="55" fill="white" transform="translate(282.719 287)"/>
</clipPath>
<clipPath id="clip3_5_14558">
<rect width="55" height="55" fill="white" transform="translate(659.719 287)"/>
</clipPath>
</defs>
</svg>
