<svg width="79" height="137" viewBox="0 0 79 137" fill="none" xmlns="http://www.w3.org/2000/svg">
<mask id="mask0_167_1346" style="mask-type:alpha" maskUnits="userSpaceOnUse" x="0" y="0" width="79" height="137">
<rect width="79" height="137" fill="#D9D9D9"/>
</mask>
<g mask="url(#mask0_167_1346)">
<path d="M46.0095 6.23052L32.8704 12.461L19.7162 18.6773L13.1542 31.1383L6.57715 43.5851V93.4149L13.1542 105.862L19.7162 118.323L32.8704 124.539L46.0095 130.769H400.991L414.145 124.539L427.284 118.323L433.861 105.862L440.438 93.4149V43.5851L433.861 31.1383L427.284 18.6773L414.145 12.461L400.991 6.23052H46.0095Z" fill="#FF953E"/>
<path d="M78.9247 12.461H72.3477V18.6916H78.9247V12.461Z" fill="white"/>
<path d="M72.3327 12.461H65.7556V18.6916H72.3327V12.461Z" fill="white"/>
<path d="M65.7407 12.461H59.1636V18.6916H65.7407V12.461Z" fill="white"/>
<path d="M59.1635 12.461H52.5864V18.6916H59.1635V12.461Z" fill="white"/>
<path d="M52.5864 18.6773H46.0093V24.9078H52.5864V18.6773Z" fill="white"/>
<path d="M46.0243 18.6773H39.4473V24.9078H46.0243V18.6773Z" fill="white"/>
<path d="M39.4472 24.9078H32.8701V31.1383H39.4472V24.9078Z" fill="white"/>
<path d="M32.8703 24.9078H26.2932V31.1383H32.8703V24.9078Z" fill="white"/>
<path d="M32.8703 31.1383H26.2932V37.3688H32.8703V31.1383Z" fill="white"/>
<path d="M26.2931 37.3688H19.7161V43.5994H26.2931V37.3688Z" fill="white"/>
<g style="mix-blend-mode:color-burn">
<path d="M13.1542 74.7234H6.57715V80.9539H13.1542V74.7234Z" fill="#E2E2E2"/>
<path d="M13.1542 80.9539H6.57715V87.1844H13.1542V80.9539Z" fill="#E2E2E2"/>
<path d="M19.7314 87.1844H13.1543V93.4149H19.7314V87.1844Z" fill="#E2E2E2"/>
<path d="M26.2934 99.6312H19.7163V105.862H26.2934V99.6312Z" fill="#E2E2E2"/>
<path d="M32.8705 99.6312H26.2935V105.862H32.8705V99.6312Z" fill="#E2E2E2"/>
<path d="M39.4474 105.862H32.8704V112.092H39.4474V105.862Z" fill="#E2E2E2"/>
<path d="M46.0246 105.862H39.4475V112.092H46.0246V105.862Z" fill="#E2E2E2"/>
<path d="M52.5866 112.092H46.0095V118.323H52.5866V112.092Z" fill="#E2E2E2"/>
<path d="M59.1637 112.092H52.5867V118.323H59.1637V112.092Z" fill="#E2E2E2"/>
<path d="M65.7407 112.092H59.1636V118.323H65.7407V112.092Z" fill="#E2E2E2"/>
<path d="M72.3178 112.092H65.7407V118.323H72.3178V112.092Z" fill="#E2E2E2"/>
<path d="M78.8798 112.092H72.3027V118.323H78.8798V112.092Z" fill="#E2E2E2"/>
<path d="M85.457 112.092H78.8799V118.323H85.457V112.092Z" fill="#E2E2E2"/>
<path d="M19.7314 93.4149H13.1543V99.6455H19.7314V93.4149Z" fill="#E2E2E2"/>
<path d="M13.1542 80.9539H6.57715V87.1844H13.1542V80.9539Z" fill="#E2E2E2"/>
<path d="M13.1542 87.1844H6.57715V93.4149H13.1542V87.1844Z" fill="#E2E2E2"/>
<path d="M19.7314 93.4149H13.1543V99.6455H19.7314V93.4149Z" fill="#E2E2E2"/>
<path d="M26.2934 105.862H19.7163V112.092H26.2934V105.862Z" fill="#E2E2E2"/>
<path d="M32.8705 105.862H26.2935V112.092H32.8705V105.862Z" fill="#E2E2E2"/>
<path d="M39.4474 112.092H32.8704V118.323H39.4474V112.092Z" fill="#E2E2E2"/>
<path d="M46.0246 112.092H39.4475V118.323H46.0246V112.092Z" fill="#E2E2E2"/>
<path d="M52.5866 118.323H46.0095V124.553H52.5866V118.323Z" fill="#E2E2E2"/>
<path d="M59.1637 118.323H52.5867V124.553H59.1637V118.323Z" fill="#E2E2E2"/>
<path d="M65.7407 118.323H59.1636V124.553H65.7407V118.323Z" fill="#E2E2E2"/>
<path d="M72.3178 118.323H65.7407V124.553H72.3178V118.323Z" fill="#E2E2E2"/>
<path d="M78.8798 118.323H72.3027V124.553H78.8798V118.323Z" fill="#E2E2E2"/>
<path d="M85.457 118.323H78.8799V124.553H85.457V118.323Z" fill="#E2E2E2"/>
<path d="M19.7314 99.6312H13.1543V105.862H19.7314V99.6312Z" fill="#E2E2E2"/>
</g>
<g style="mix-blend-mode:color-burn">
<path d="M13.1542 87.1844H6.57715V93.4149H13.1542V87.1844Z" fill="#B8B8B8"/>
<path d="M13.1542 93.4149H6.57715V99.6455H13.1542V93.4149Z" fill="#B8B8B8"/>
<path d="M19.7314 99.6312H13.1543V105.862H19.7314V99.6312Z" fill="#B8B8B8"/>
<path d="M26.2934 112.092H19.7163V118.323H26.2934V112.092Z" fill="#B8B8B8"/>
<path d="M32.8705 112.092H26.2935V118.323H32.8705V112.092Z" fill="#B8B8B8"/>
<path d="M39.4474 118.323H32.8704V124.553H39.4474V118.323Z" fill="#B8B8B8"/>
<path d="M46.0246 118.323H39.4475V124.553H46.0246V118.323Z" fill="#B8B8B8"/>
<path d="M52.5866 124.539H46.0095V130.769H52.5866V124.539Z" fill="#B8B8B8"/>
<path d="M59.1637 124.539H52.5867V130.769H59.1637V124.539Z" fill="#B8B8B8"/>
<path d="M65.7407 124.539H59.1636V130.769H65.7407V124.539Z" fill="#B8B8B8"/>
<path d="M72.3178 124.539H65.7407V130.769H72.3178V124.539Z" fill="#B8B8B8"/>
<path d="M78.8798 124.539H72.3027V130.769H78.8798V124.539Z" fill="#B8B8B8"/>
<path d="M85.457 124.539H78.8799V130.769H85.457V124.539Z" fill="#B8B8B8"/>
<path d="M19.7314 105.862H13.1543V112.092H19.7314V105.862Z" fill="#B8B8B8"/>
</g>
<path d="M6.57708 43.5851H0V49.8156H6.57708V43.5851Z" fill="black"/>
<path d="M6.57708 49.8156H0V56.0461H6.57708V49.8156Z" fill="black"/>
<path d="M6.57708 56.0461H0V62.2766H6.57708V56.0461Z" fill="black"/>
<path d="M13.1542 37.3688H6.57715V43.5993H13.1542V37.3688Z" fill="black"/>
<path d="M13.1542 31.1383H6.57715V37.3688H13.1542V31.1383Z" fill="black"/>
<path d="M19.7314 24.9078H13.1543V31.1383H19.7314V24.9078Z" fill="black"/>
<path d="M26.2934 12.461H19.7163V18.6916H26.2934V12.461Z" fill="black"/>
<path d="M32.8705 12.461H26.2935V18.6916H32.8705V12.461Z" fill="black"/>
<path d="M39.4474 6.23052H32.8704V12.461H39.4474V6.23052Z" fill="black"/>
<path d="M46.0246 6.23052H39.4475V12.461H46.0246V6.23052Z" fill="black"/>
<path d="M52.5866 0H46.0095V6.23052H52.5866V0Z" fill="black"/>
<path d="M59.1637 0H52.5867V6.23052H59.1637V0Z" fill="black"/>
<path d="M65.7407 0H59.1636V6.23052H65.7407V0Z" fill="black"/>
<path d="M72.3178 0H65.7407V6.23052H72.3178V0Z" fill="black"/>
<path d="M78.8798 0H72.3027V6.23052H78.8798V0Z" fill="black"/>
<path d="M85.457 0H78.8799V6.23052H85.457V0Z" fill="black"/>
<path d="M19.7314 18.6773H13.1543V24.9078H19.7314V18.6773Z" fill="black"/>
<path d="M13.1542 68.4929H6.57715V74.7234H13.1542V68.4929Z" fill="black"/>
<path d="M13.1542 74.7234H6.57715V80.9539H13.1542V74.7234Z" fill="black"/>
<path d="M19.7314 80.9539H13.1543V87.1844H19.7314V80.9539Z" fill="black"/>
<path d="M26.2934 93.4149H19.7163V99.6455H26.2934V93.4149Z" fill="black"/>
<path d="M32.8705 93.4149H26.2935V99.6455H32.8705V93.4149Z" fill="black"/>
<path d="M39.4474 99.6312H32.8704V105.862H39.4474V99.6312Z" fill="black"/>
<path d="M46.0246 99.6312H39.4475V105.862H46.0246V99.6312Z" fill="black"/>
<path d="M52.5866 105.862H46.0095V112.092H52.5866V105.862Z" fill="black"/>
<path d="M59.1637 105.862H52.5867V112.092H59.1637V105.862Z" fill="black"/>
<path d="M65.7407 105.862H59.1636V112.092H65.7407V105.862Z" fill="black"/>
<path d="M72.3178 105.862H65.7407V112.092H72.3178V105.862Z" fill="black"/>
<path d="M78.8798 105.862H72.3027V112.092H78.8798V105.862Z" fill="black"/>
<path d="M85.457 105.862H78.8799V112.092H85.457V105.862Z" fill="black"/>
<path d="M19.7314 87.1844H13.1543V93.4149H19.7314V87.1844Z" fill="black"/>
<path d="M13.1542 93.4149H6.57715V99.6455H13.1542V93.4149Z" fill="black"/>
<path d="M13.1542 99.6312H6.57715V105.862H13.1542V99.6312Z" fill="black"/>
<path d="M19.7311 105.862H13.1541V112.092H19.7311V105.862Z" fill="black"/>
<path d="M26.2931 118.323H19.7161V124.553H26.2931V118.323Z" fill="black"/>
<path d="M32.8703 118.323H26.2932V124.553H32.8703V118.323Z" fill="black"/>
<path d="M39.4474 124.539H32.8704V130.769H39.4474V124.539Z" fill="black"/>
<path d="M46.0243 124.539H39.4473V130.769H46.0243V124.539Z" fill="black"/>
<path d="M52.5864 130.769H46.0093V137H52.5864V130.769Z" fill="black"/>
<path d="M59.1635 130.769H52.5864V137H59.1635V130.769Z" fill="black"/>
<path d="M65.7407 130.769H59.1636V137H65.7407V130.769Z" fill="black"/>
<path d="M72.3327 130.769H65.7556V137H72.3327V130.769Z" fill="black"/>
<path d="M78.925 130.769H72.3479V137H78.925V130.769Z" fill="black"/>
<path d="M85.517 130.769H78.9399V137H85.517V130.769Z" fill="black"/>
<path d="M6.57708 87.1844H0V93.4149H6.57708V87.1844Z" fill="black"/>
<path d="M6.57708 80.9539H0V87.1844H6.57708V80.9539Z" fill="black"/>
<path d="M6.57708 74.7234H0V80.9539H6.57708V74.7234Z" fill="black"/>
<path d="M6.57708 68.4929H0V74.7234H6.57708V68.4929Z" fill="black"/>
<path d="M6.57708 62.2766H0V68.5071H6.57708V62.2766Z" fill="black"/>
<path d="M19.7311 112.092H13.1541V118.323H19.7311V112.092Z" fill="black"/>
<g style="mix-blend-mode:screen" opacity="0.28">
<path d="M19.7314 31.1383H13.1543V37.3688H19.7314V31.1383Z" fill="white"/>
<path d="M26.2934 31.1383H19.7163V37.3688H26.2934V31.1383Z" fill="white"/>
<path d="M19.7314 37.3688H13.1543V43.5994H19.7314V37.3688Z" fill="white"/>
<path d="M19.7314 43.5851H13.1543V49.8156H19.7314V43.5851Z" fill="white"/>
<path d="M13.1542 43.5851H6.57715V49.8156H13.1542V43.5851Z" fill="white"/>
<path d="M13.1542 49.8156H6.57715V56.0461H13.1542V49.8156Z" fill="white"/>
<path d="M13.1542 56.0461H6.57715V62.2766H13.1542V56.0461Z" fill="white"/>
<path d="M13.1542 62.2766H6.57715V68.5071H13.1542V62.2766Z" fill="white"/>
<path d="M26.2934 18.6773H19.7163V24.9078H26.2934V18.6773Z" fill="white"/>
<path d="M26.2934 24.9078H19.7163V31.1383H26.2934V24.9078Z" fill="white"/>
<path d="M32.8703 18.6773H26.2932V24.9078H32.8703V18.6773Z" fill="white"/>
<path d="M39.4777 18.6773H32.9006V24.9078H39.4777V18.6773Z" fill="white"/>
<path d="M39.4474 12.461H32.8704V18.6916H39.4474V12.461Z" fill="white"/>
<path d="M46.0246 12.461H39.4475V18.6916H46.0246V12.461Z" fill="white"/>
<path d="M52.5866 6.23052H46.0095V12.461H52.5866V6.23052Z" fill="white"/>
<path d="M52.5866 12.461H46.0095V18.6916H52.5866V12.461Z" fill="white"/>
<path d="M59.1635 6.23052H52.5864V12.461H59.1635V6.23052Z" fill="white"/>
<path d="M65.7407 6.23052H59.1636V12.461H65.7407V6.23052Z" fill="white"/>
<path d="M72.3178 6.23052H65.7407V12.461H72.3178V6.23052Z" fill="white"/>
<path d="M78.8798 6.23052H72.3027V12.461H78.8798V6.23052Z" fill="white"/>
<path d="M85.457 6.23052H78.8799V12.461H85.457V6.23052Z" fill="white"/>
</g>
<g style="mix-blend-mode:color-burn">
<path d="M19.7311 74.7234H13.1541V80.9539H19.7311V74.7234Z" fill="#B8B8B8"/>
<path d="M26.2931 87.1844H19.7161V93.4149H26.2931V87.1844Z" fill="#B8B8B8"/>
<path d="M26.2931 80.9539H19.7161V87.1844H26.2931V80.9539Z" fill="#B8B8B8"/>
<path d="M32.8703 87.1844H26.2932V93.4149H32.8703V87.1844Z" fill="#B8B8B8"/>
<path d="M39.4472 93.4149H32.8701V99.6455H39.4472V93.4149Z" fill="#B8B8B8"/>
<path d="M46.0243 93.4149H39.4473V99.6455H46.0243V93.4149Z" fill="#B8B8B8"/>
<path d="M52.5864 99.6312H46.0093V105.862H52.5864V99.6312Z" fill="#B8B8B8"/>
<path d="M59.1635 99.6312H52.5864V105.862H59.1635V99.6312Z" fill="#B8B8B8"/>
<path d="M65.7404 99.6312H59.1633V105.862H65.7404V99.6312Z" fill="#B8B8B8"/>
<path d="M72.3176 99.6312H65.7405V105.862H72.3176V99.6312Z" fill="#B8B8B8"/>
<path d="M78.8796 99.6312H72.3025V105.862H78.8796V99.6312Z" fill="#B8B8B8"/>
<path d="M85.4567 99.6312H78.8796V105.862H85.4567V99.6312Z" fill="#B8B8B8"/>
</g>
</g>
</svg>
