<svg width="78" height="137" viewBox="0 0 78 137" fill="none" xmlns="http://www.w3.org/2000/svg">
<mask id="mask0_167_1347" style="mask-type:alpha" maskUnits="userSpaceOnUse" x="0" y="0" width="78" height="137">
<rect width="78" height="137" fill="#D9D9D9"/>
</mask>
<g mask="url(#mask0_167_1347)">
<path d="M-322.991 6.23052L-336.13 12.461L-349.284 18.6773L-355.846 31.1383L-362.423 43.5851V93.4149L-355.846 105.862L-349.284 118.323L-336.13 124.539L-322.991 130.769H31.9908L45.1449 124.539L58.284 118.323L64.861 105.862L71.4381 93.4149V43.5851L64.861 31.1383L58.284 18.6773L45.1449 12.461L31.9908 6.23052H-322.991Z" fill="#FF953E"/>
<path d="M71.4379 74.7234H64.8608V80.9539H71.4379V74.7234Z" fill="#FF8018"/>
<path d="M71.4379 80.9539H64.8608V87.1844H71.4379V80.9539Z" fill="#FF8018"/>
<path d="M64.8612 87.1844H58.2842V93.4149H64.8612V87.1844Z" fill="#FF8018"/>
<path d="M58.2841 99.6312H51.707V105.862H58.2841V99.6312Z" fill="#FF8018"/>
<path d="M51.7221 99.6312H45.145V105.862H51.7221V99.6312Z" fill="#FF8018"/>
<path d="M45.145 105.862H38.5679V112.092H45.145V105.862Z" fill="#FF8018"/>
<path d="M38.5678 105.862H31.9907V112.092H38.5678V105.862Z" fill="#FF8018"/>
<path d="M31.9907 112.092H25.4136V118.323H31.9907V112.092Z" fill="#FF8018"/>
<path d="M25.4135 112.092H18.8364V118.323H25.4135V112.092Z" fill="#FF8018"/>
<path d="M18.8515 112.092H12.2744V118.323H18.8515V112.092Z" fill="#FF8018"/>
<path d="M12.2743 112.092H5.69727V118.323H12.2743V112.092Z" fill="#FF8018"/>
<path d="M5.69744 112.092H-0.879639V118.323H5.69744V112.092Z" fill="#FF8018"/>
<path d="M64.8612 93.4149H58.2842V99.6455H64.8612V93.4149Z" fill="#FF8018"/>
<path d="M71.4379 80.9539H64.8608V87.1844H71.4379V80.9539Z" fill="#FF8018"/>
<path d="M71.4379 87.1844H64.8608V93.4149H71.4379V87.1844Z" fill="#FF8018"/>
<path d="M64.8612 93.4149H58.2842V99.6455H64.8612V93.4149Z" fill="#FF8018"/>
<path d="M58.2841 105.862H51.707V112.092H58.2841V105.862Z" fill="#FF8018"/>
<path d="M51.7221 105.862H45.145V112.092H51.7221V105.862Z" fill="#FF8018"/>
<path d="M45.145 112.092H38.5679V118.323H45.145V112.092Z" fill="#FF8018"/>
<path d="M38.5678 112.092H31.9907V118.323H38.5678V112.092Z" fill="#FF8018"/>
<path d="M31.9907 118.323H25.4136V124.553H31.9907V118.323Z" fill="#FF8018"/>
<path d="M25.4135 118.323H18.8364V124.553H25.4135V118.323Z" fill="#FF8018"/>
<path d="M18.8515 118.323H12.2744V124.553H18.8515V118.323Z" fill="#FF8018"/>
<path d="M12.2743 118.323H5.69727V124.553H12.2743V118.323Z" fill="#FF8018"/>
<path d="M5.69744 118.323H-0.879639V124.553H5.69744V118.323Z" fill="#FF8018"/>
<path d="M64.8612 99.6312H58.2842V105.862H64.8612V99.6312Z" fill="#FF8018"/>
<path d="M71.4379 87.1844H64.8608V93.4149H71.4379V87.1844Z" fill="#E66800"/>
<path d="M71.4379 93.4149H64.8608V99.6455H71.4379V93.4149Z" fill="#E66800"/>
<path d="M64.8612 99.6312H58.2842V105.862H64.8612V99.6312Z" fill="#E66800"/>
<path d="M58.2841 112.092H51.707V118.323H58.2841V112.092Z" fill="#E66800"/>
<path d="M51.7221 112.092H45.145V118.323H51.7221V112.092Z" fill="#E66800"/>
<path d="M45.145 118.323H38.5679V124.553H45.145V118.323Z" fill="#E66800"/>
<path d="M38.5678 118.323H31.9907V124.553H38.5678V118.323Z" fill="#E66800"/>
<path d="M31.9907 124.539H25.4136V130.769H31.9907V124.539Z" fill="#E66800"/>
<path d="M25.4135 124.539H18.8364V130.769H25.4135V124.539Z" fill="#E66800"/>
<path d="M18.8515 124.539H12.2744V130.769H18.8515V124.539Z" fill="#E66800"/>
<path d="M12.2743 124.539H5.69727V130.769H12.2743V124.539Z" fill="#E66800"/>
<path d="M5.69744 124.539H-0.879639V130.769H5.69744V124.539Z" fill="#E66800"/>
<path d="M64.8612 105.862H58.2842V112.092H64.8612V105.862Z" fill="#E66800"/>
<path d="M78.015 43.5851H71.438V49.8156H78.015V43.5851Z" fill="black"/>
<path d="M78.015 49.8156H71.438V56.0461H78.015V49.8156Z" fill="black"/>
<path d="M78.015 56.0461H71.438V62.2766H78.015V56.0461Z" fill="black"/>
<path d="M71.4379 93.4149H64.8608V99.6455H71.4379V93.4149Z" fill="black"/>
<path d="M71.4379 99.6312H64.8608V105.862H71.4379V99.6312Z" fill="black"/>
<path d="M64.8607 105.862H58.2837V112.092H64.8607V105.862Z" fill="black"/>
<path d="M58.2841 118.323H51.707V124.553H58.2841V118.323Z" fill="black"/>
<path d="M51.7216 118.323H45.1445V124.553H51.7216V118.323Z" fill="black"/>
<path d="M45.145 124.539H38.5679V130.769H45.145V124.539Z" fill="black"/>
<path d="M38.5678 124.539H31.9907V130.769H38.5678V124.539Z" fill="black"/>
<path d="M31.9907 130.769H25.4136V137H31.9907V130.769Z" fill="black"/>
<path d="M25.4135 130.769H18.8364V137H25.4135V130.769Z" fill="black"/>
<path d="M18.8515 130.769H12.2744V137H18.8515V130.769Z" fill="black"/>
<path d="M12.2743 130.769H5.69727V137H12.2743V130.769Z" fill="black"/>
<path d="M5.69744 130.769H-0.879639V137H5.69744V130.769Z" fill="black"/>
<path d="M78.015 87.1844H71.438V93.4149H78.015V87.1844Z" fill="black"/>
<path d="M78.015 80.9539H71.438V87.1844H78.015V80.9539Z" fill="black"/>
<path d="M78.015 74.7234H71.438V80.9539H78.015V74.7234Z" fill="black"/>
<path d="M78.015 68.4929H71.438V74.7234H78.015V68.4929Z" fill="black"/>
<path d="M78.015 62.2766H71.438V68.5071H78.015V62.2766Z" fill="black"/>
<path d="M64.8607 112.092H58.2837V118.323H64.8607V112.092Z" fill="black"/>
<path d="M71.4379 37.3688H64.8608V43.5993H71.4379V37.3688Z" fill="black"/>
<path d="M71.4379 31.1383H64.8608V37.3688H71.4379V31.1383Z" fill="black"/>
<path d="M64.8612 24.9078H58.2842V31.1383H64.8612V24.9078Z" fill="black"/>
<path d="M58.2841 12.461H51.707V18.6916H58.2841V12.461Z" fill="black"/>
<path d="M51.7221 12.461H45.145V18.6916H51.7221V12.461Z" fill="black"/>
<path d="M45.145 6.23052H38.5679V12.461H45.145V6.23052Z" fill="black"/>
<path d="M38.5678 6.23052H31.9907V12.461H38.5678V6.23052Z" fill="black"/>
<path d="M31.9907 0H25.4136V6.23052H31.9907V0Z" fill="black"/>
<path d="M25.4135 0H18.8364V6.23052H25.4135V0Z" fill="black"/>
<path d="M18.8515 0H12.2744V6.23052H18.8515V0Z" fill="black"/>
<path d="M12.2743 0H5.69727V6.23052H12.2743V0Z" fill="black"/>
<path d="M5.69744 0H-0.879639V6.23052H5.69744V0Z" fill="black"/>
<path d="M64.8612 18.6773H58.2842V24.9078H64.8612V18.6773Z" fill="black"/>
<path d="M71.4379 68.4929H64.8608V74.7234H71.4379V68.4929Z" fill="black"/>
<path d="M71.4379 74.7234H64.8608V80.9539H71.4379V74.7234Z" fill="black"/>
<path d="M64.8612 80.9539H58.2842V87.1844H64.8612V80.9539Z" fill="black"/>
<path d="M58.2841 93.4149H51.707V99.6455H58.2841V93.4149Z" fill="black"/>
<path d="M51.7221 93.4149H45.145V99.6455H51.7221V93.4149Z" fill="black"/>
<path d="M45.145 99.6312H38.5679V105.862H45.145V99.6312Z" fill="black"/>
<path d="M38.5678 99.6312H31.9907V105.862H38.5678V99.6312Z" fill="black"/>
<path d="M31.9907 105.862H25.4136V112.092H31.9907V105.862Z" fill="black"/>
<path d="M25.4135 105.862H18.8364V112.092H25.4135V105.862Z" fill="black"/>
<path d="M18.8515 105.862H12.2744V112.092H18.8515V105.862Z" fill="black"/>
<path d="M12.2743 105.862H5.69727V112.092H12.2743V105.862Z" fill="black"/>
<path d="M5.69744 105.862H-0.879639V112.092H5.69744V105.862Z" fill="black"/>
<path d="M64.8612 87.1844H58.2842V93.4149H64.8612V87.1844Z" fill="black"/>
<g style="mix-blend-mode:screen" opacity="0.28">
<path d="M64.8612 31.1383H58.2842V37.3688H64.8612V31.1383Z" fill="white"/>
<path d="M64.8612 37.3688H58.2842V43.5994H64.8612V37.3688Z" fill="white"/>
<path d="M71.4379 43.5851H64.8608V49.8156H71.4379V43.5851Z" fill="white"/>
<path d="M71.4379 49.8156H64.8608V56.0461H71.4379V49.8156Z" fill="white"/>
<path d="M71.4379 56.0461H64.8608V62.2766H71.4379V56.0461Z" fill="white"/>
<path d="M71.4379 62.2766H64.8608V68.5071H71.4379V62.2766Z" fill="white"/>
<path d="M58.2841 18.6773H51.707V24.9078H58.2841V18.6773Z" fill="white"/>
<path d="M58.2841 24.9078H51.707V31.1383H58.2841V24.9078Z" fill="white"/>
<path d="M51.7221 18.6773H45.145V24.9078H51.7221V18.6773Z" fill="white"/>
<path d="M45.145 12.461H38.5679V18.6916H45.145V12.461Z" fill="white"/>
<path d="M38.5678 12.461H31.9907V18.6916H38.5678V12.461Z" fill="white"/>
<path d="M31.9907 6.23052H25.4136V12.461H31.9907V6.23052Z" fill="white"/>
<path d="M25.4135 6.23052H18.8364V12.461H25.4135V6.23052Z" fill="white"/>
<path d="M18.8515 6.23052H12.2744V12.461H18.8515V6.23052Z" fill="white"/>
<path d="M12.2743 6.23052H5.69727V12.461H12.2743V6.23052Z" fill="white"/>
<path d="M5.69744 6.23052H-0.879639V12.461H5.69744V6.23052Z" fill="white"/>
</g>
<path d="M64.8607 74.7234H58.2837V80.9539H64.8607V74.7234Z" fill="#FF8018"/>
<path d="M58.2836 87.1844H51.7065V93.4149H58.2836V87.1844Z" fill="#FF8018"/>
<path d="M58.2836 80.9539H51.7065V87.1844H58.2836V80.9539Z" fill="#FF8018"/>
<path d="M51.7216 87.1844H45.1445V93.4149H51.7216V87.1844Z" fill="#FF8018"/>
<path d="M45.1445 93.4149H38.5674V99.6455H45.1445V93.4149Z" fill="#FF8018"/>
<path d="M38.5678 93.4149H31.9907V99.6455H38.5678V93.4149Z" fill="#FF8018"/>
<path d="M31.9907 99.6312H25.4136V105.862H31.9907V99.6312Z" fill="#FF8018"/>
<path d="M25.4135 99.6312H18.8364V105.862H25.4135V99.6312Z" fill="#FF8018"/>
<path d="M18.8515 99.6312H12.2744V105.862H18.8515V99.6312Z" fill="#FF8018"/>
<path d="M12.2743 99.6312H5.69727V105.862H12.2743V99.6312Z" fill="#FF8018"/>
<path d="M5.6972 99.6312H-0.879883V105.862H5.6972V99.6312Z" fill="#FF8018"/>
<g style="mix-blend-mode:screen" opacity="0.28">
<path d="M64.8607 68.4929H58.2837V74.7234H64.8607V68.4929Z" fill="white"/>
<path d="M58.2841 74.7234H51.707V80.9539H58.2841V74.7234Z" fill="white"/>
<path d="M51.7221 80.9539H45.145V87.1844H51.7221V80.9539Z" fill="white"/>
<path d="M45.145 87.1844H38.5679V93.4149H45.145V87.1844Z" fill="white"/>
<path d="M38.5678 87.1844H31.9907V93.4149H38.5678V87.1844Z" fill="white"/>
<path d="M31.9907 93.4149H25.4136V99.6455H31.9907V93.4149Z" fill="white"/>
<path d="M25.4135 93.4149H18.8364V99.6455H25.4135V93.4149Z" fill="white"/>
<path d="M18.8515 93.4149H12.2744V99.6455H18.8515V93.4149Z" fill="white"/>
<path d="M12.2743 93.4149H5.69727V99.6455H12.2743V93.4149Z" fill="white"/>
<path d="M5.69744 93.4149H-0.879639V99.6455H5.69744V93.4149Z" fill="white"/>
</g>
</g>
</svg>
