<svg viewBox="0 0 163 164" fill="none" xmlns="http://www.w3.org/2000/svg">
<g clip-path="url(#clip0_112_12539)">
<path d="M81.5 127.141V119.769H96.3372V97.4639H96.3753V75.4431H118.641V97.5776H111.136V127.065H103.727V134.532H74.0338V127.141H81.5Z" fill="#96D400"/>
<path d="M14.8182 60.7182V68.128H22.2273V75.5378H29.6364V82.9096H37.0455V90.2814H59.2727H66.6818V68.1659H74.129V60.794H81.5V38.6785H88.9091V31.3066H148.182V38.6785H163V68.1659H103.727V90.2814H96.3753V119.769H81.5V127.141H74.148V141.884H66.6818V149.256H59.2727V141.884V134.513H37.0455V112.397H29.6364V105.025H22.2273V90.2814H14.8182V83.0044H7.35196V60.7182H14.8182Z" fill="#52A316"/>
<path d="M155.419 53.5171H163V45.9747H155.419V53.5171Z" fill="#2C4C13"/>
<path d="M133.192 53.5171H140.773V45.9747H133.192V53.5171Z" fill="#2C4C13"/>
<path d="M103.727 60.7939H111.136V46.0502H103.727V60.7939Z" fill="#2C4C13"/>
<path d="M96.3372 60.7939H105.67V53.3842H96.3372V60.7939Z" fill="#2C4C13"/>
<path d="M103.727 75.5378H155.591V68.166H103.727V75.5378Z" fill="#428113"/>
<path d="M118.545 105.025H125.955V90.2814H118.545V105.025Z" fill="#428113"/>
<path d="M88.9091 105.025H96.3182V90.2814H88.9091V105.025Z" fill="#428113"/>
<path d="M81.5 97.6533H88.9091V82.9096H81.5V97.6533Z" fill="#428113"/>
<path d="M81.5 46.0503H88.9091V38.6784H81.5V46.0503Z" fill="#428113"/>
<path d="M74.0909 60.9077H81.5V46.0503H74.0909V60.9077Z" fill="#428113"/>
<path d="M66.4533 75.5378H74.148V60.7373H66.4533V75.5378Z" fill="#428113"/>
<path d="M59.2727 90.2815H66.6818V75.5378H59.2727V90.2815Z" fill="#428113"/>
<path d="M-3.33786e-06 82.9097H7.40909L7.40909 53.3844H-3.33786e-06L-3.33786e-06 82.9097Z" fill="#428113"/>
<path d="M7.40908 90.2815H14.8182L14.8182 82.9096H7.40908L7.40908 90.2815Z" fill="#428113"/>
<path d="M14.8182 105.025H22.2273L22.2273 90.2814H14.8182L14.8182 105.025Z" fill="#428113"/>
<path d="M22.2273 112.397H29.6364V105.025H22.2273V112.397Z" fill="#428113"/>
<path d="M29.6363 127.141H37.0454V112.397H29.6363V127.141Z" fill="#428113"/>
<path d="M37.0455 134.512H51.8636V127.141H37.0455V134.512Z" fill="#428113"/>
<path d="M51.8636 164H59.2727L59.2727 134.512H51.8636V164Z" fill="#428113"/>
<path d="M59.2727 164H66.6818V156.628H59.2727V164Z" fill="#428113"/>
<path d="M81.5 164H96.3182V156.628H81.5V164Z" fill="#428113"/>
<path d="M81.5 164H88.9091V134.512H81.5V164Z" fill="#428113"/>
<path d="M81.5 141.903H103.727V134.513H81.5V141.903Z" fill="#428113"/>
<path d="M81.5 149.256H96.3182V141.903H81.5V149.256Z" fill="#428113"/>
<path d="M100.966 36.2529L136.468 36.2529V28.5021L100.966 28.5021V36.2529Z" fill="#E83030"/>
<path d="M118.717 28.9947H133.421L126.069 16.3166L118.717 3.65747L111.365 16.3166L104.013 28.9947H118.717Z" fill="#FFD400"/>
<path d="M114.717 7.97827L122.736 7.97827V-3.8147e-06L114.717 -3.8147e-06V7.97827Z" fill="white"/>
</g>
<defs>
<clipPath id="clip0_112_12539">
<rect width="163" height="164" fill="white"/>
</clipPath>
</defs>
</svg>
