<svg viewBox="0 0 99 138" fill="none" xmlns="http://www.w3.org/2000/svg">
<path d="M26.1943 130.959H32.7429V137.507H26.1943V130.959Z" fill="#5E3346"/>
<path d="M58.9373 130.959H65.4858V137.507H58.9373V130.959Z" fill="#5E3346"/>
<path d="M26.1943 124.411H32.7429V130.959H26.1943V124.411Z" fill="#90471D"/>
<path d="M58.9373 124.411H65.4858V130.959H58.9373V124.411Z" fill="#90471D"/>
<path d="M26.1943 117.863H65.4858V124.411H26.1943V117.863Z" fill="#83381B"/>
<path d="M13.0972 104.767H19.6458V117.863H13.0972V104.767Z" fill="#E69D6A"/>
<path d="M26.1943 111.315H52.3887V117.863H26.1943V111.315Z" fill="#5E3346"/>
<path d="M58.9373 104.767H65.4858V98.2191H72.0344V104.767H78.583V117.863H58.9373V104.767Z" fill="#F1EEE9"/>
<path d="M26.1943 104.767H52.3887V111.315H26.1943V104.767Z" fill="#90471D"/>
<path d="M52.3887 104.767H58.9373V117.863H52.3887V104.767Z" fill="#E69D6A"/>
<path d="M19.6458 98.2191H26.1943V117.863H19.6458V98.2191Z" fill="#F1EEE9"/>
<path d="M26.1943 98.2191H65.4858V104.767H26.1943V98.2191Z" fill="#83381B"/>
<path d="M65.4858 91.6714H72.0344V98.2193H65.4858V91.6714Z" fill="#DB8153"/>
<path d="M72.0344 72.0274H85.1316V78.5754H78.583V91.6712H72.0344V72.0274Z" fill="#DB8153"/>
<path d="M78.583 78.5756H85.1316V85.1235H78.583V78.5756Z" fill="#83381B"/>
<path d="M45.8401 78.5756V85.1235H32.7429V78.5756H26.1943V65.4797H52.3887V78.5756H45.8401Z" fill="#F1EEE9"/>
<path d="M58.9373 58.9316H65.4858V72.0275H58.9373V58.9316Z" fill="#1F1119"/>
<path d="M78.583 65.4797H85.1316V72.0276H78.583V65.4797Z" fill="#E69D6A"/>
<path d="M13.0972 58.9316H19.6458V72.0275H13.0972V58.9316Z" fill="#1F1119"/>
<path d="M65.4858 52.3835H72.0344V58.9314H65.4858V52.3835Z" fill="#DB8153"/>
<path d="M1.90735e-06 45.8358H6.54858V52.3837H1.90735e-06V45.8358Z" fill="#83381B"/>
<path d="M45.8401 45.8358V52.3837H65.4858V58.9316H58.9373V72.0275H65.4858V58.9316H72.0344V91.6714H65.4858V98.2193H13.0972V91.6714H6.5486V45.8358H45.8401ZM52.3887 65.4796H26.1943V78.5755H32.7429V85.1234H45.8401V78.5755H52.3887V65.4796ZM13.0972 72.0275H19.6458V58.9316H13.0972V72.0275Z" fill="#E69D6A"/>
<path d="M45.8401 45.8358H65.4858V52.3837H45.8401V45.8358Z" fill="#DB8153"/>
<path d="M85.1316 45.8358H91.6802V52.3837H85.1316V45.8358Z" fill="#90471D"/>
<path d="M26.1943 39.2876H45.8401V45.8355H26.1943V39.2876Z" fill="#DB8153"/>
<path d="M6.54859 26.1918H26.1943V32.7397H19.6458V39.2877H6.54859V45.8356H7.62939e-06V32.7397H6.54859V26.1918Z" fill="#90471D"/>
<path d="M45.8401 26.1918V32.7397H72.0344V39.2877H85.1316V52.3836H91.6802V78.5753H85.1316V65.4794H78.583V72.0274H72.0344V52.3836H65.4858V45.8356H45.8401V39.2877H26.1944V45.8356H6.54861V39.2877H19.6458V32.7397H26.1944V26.1918H45.8401Z" fill="#83381B"/>
<path d="M65.4858 26.1918H72.0344V19.6439H78.583V26.1918H85.1316V39.2877H72.0344V32.7398H45.8401V26.1918H13.0972V19.6439H26.1943V13.0959H65.4858V26.1918Z" fill="#5E3346"/>
<path d="M78.583 13.0962V6.54822H85.1316V13.0962H91.6802V19.6441H72.0344V26.1921H65.4858V13.0962H78.583Z" fill="#B22724"/>
<path d="M91.6802 13.096H85.1316V6.54807H78.583V13.096H65.4858V6.54807H72.0344V0.00012207H91.6802V6.54807H98.2288V19.644H91.6802V13.096Z" fill="#CC3429"/>
</svg>
