<svg viewBox="0 0 138 151" fill="none" xmlns="http://www.w3.org/2000/svg">
<path d="M26.1209 143.651V130.592H32.6511V143.651H45.7116V124.062H39.1813V117.532H58.772V143.651H71.8324V137.121H78.3626V143.651H84.8928V150.18H19.5907V143.651H26.1209Z" fill="#CC378E"/>
<path d="M32.6512 137.121H45.7117V143.651H32.6512V137.121Z" fill="#B53190"/>
<path d="M58.7721 137.121H71.8325V143.651H58.7721V137.121Z" fill="#B53190"/>
<path d="M32.6512 130.591H39.1814V137.121H32.6512V130.591Z" fill="#E69865"/>
<path d="M65.3023 130.591H71.8325V137.121H65.3023V130.591Z" fill="#E69865"/>
<path d="M71.8323 130.591H78.3625V137.121H71.8323V130.591Z" fill="#B53190"/>
<path d="M26.1209 124.062H32.6511V130.592H26.1209V124.062Z" fill="#E69865"/>
<path d="M71.8323 124.062H78.3625V130.592H71.8323V124.062Z" fill="#E69865"/>
<path d="M32.6512 117.532H39.1815V124.062H45.7117V137.121H39.1815V130.592H32.6512V117.532Z" fill="#F2AE80"/>
<path d="M65.3023 117.532H71.8325V130.592H65.3023V137.121H58.7721V124.062H65.3023V117.532Z" fill="#F2AE80"/>
<path d="M71.8323 111.003H78.3625V124.062H71.8323V111.003Z" fill="#CC378E"/>
<path d="M71.8325 111.003V117.532H65.3023V124.062H58.7721V117.532H32.6512V124.062H26.121V111.003H71.8325Z" fill="#B53190"/>
<path d="M71.8323 104.473H78.3625V111.003H71.8323V104.473Z" fill="#E69865"/>
<path d="M78.3626 104.473H84.8928V91.414H91.423V97.9436H97.9532V104.473H104.483V111.003H97.9532V117.532H78.3626V104.473Z" fill="#D4730D"/>
<path d="M78.3626 91.414H84.8928V104.473H78.3626V91.414Z" fill="#E69865"/>
<path d="M6.24657e-05 84.8845H6.53027V91.4141H6.24657e-05V84.8845Z" fill="#E68C0E"/>
<path d="M6.53046 71.8255H13.0607V104.473H19.5909V111.003H26.1211V117.533H6.53046V111.003H0.000249863V91.4142H6.53046V71.8255Z" fill="#D4730D"/>
<path d="M52.2418 91.4141V97.9437H39.1813V91.4141H32.6511V78.355H58.772V91.4141H52.2418Z" fill="#F1EEE9"/>
<path d="M84.8929 84.8845H91.4231V91.4141H84.8929V84.8845Z" fill="#E69865"/>
<path d="M19.5907 84.8844H26.1209V65.2957H71.8324V71.8252H65.3022V84.8844H71.8324V71.8252H78.3626V84.8844H84.8928V91.414H78.3626V104.473H71.8324V111.003H19.5907V104.473H13.0605V78.3548H19.5907V84.8844ZM58.772 78.3548H32.6511V91.414H39.1813V97.9435H52.2418V91.414H58.772V78.3548Z" fill="#F2AE80"/>
<path d="M65.3023 71.8255H71.8325V84.8847H65.3023V71.8255Z" fill="#1F1119"/>
<path d="M78.3626 65.2957H84.8928V84.8844H78.3626V65.2957Z" fill="#D4730D"/>
<path d="M84.8929 78.355H91.4231V84.8846H84.8929V78.355Z" fill="#F2AE80"/>
<path d="M13.0604 71.8255H19.5906V78.3551H13.0604V71.8255Z" fill="#E69865"/>
<path d="M19.5909 71.8255H26.1211V84.8847H19.5909V71.8255Z" fill="#1F1119"/>
<path d="M13.0604 65.2957H19.5906V71.8252H13.0604V65.2957Z" fill="#D4730D"/>
<path d="M19.5909 65.2957H26.1211V71.8252H19.5909V65.2957Z" fill="#E69865"/>
<path d="M71.8323 65.2957H78.3625V71.8252H71.8323V65.2957Z" fill="#E69865"/>
<path d="M39.1815 58.7661H71.8325V65.2957H39.1815V58.7661Z" fill="#E69865"/>
<path d="M71.8323 58.7661H78.3625V65.2957H71.8323V58.7661Z" fill="#D4730D"/>
<path d="M39.1815 58.7663V65.2959H19.5908V58.7663H32.6513V52.2367H45.7117V45.7072H58.7721V52.2367H71.8325V58.7663H39.1815Z" fill="#D4730D"/>
<path d="M91.4229 52.2366H97.9531V58.7662H91.4229V52.2366Z" fill="#F2AB1D"/>
<path d="M6.53034 45.7072H13.0605V52.2367H6.53034V45.7072Z" fill="#F2AB1D"/>
<path d="M26.1209 45.7069V39.1773H45.7115V32.6478H71.8323V39.1773H84.8928V45.7069H91.423V58.7661H97.9532V91.414H104.483V104.473H97.9532V97.9435H91.423V78.3548H84.8928V65.2957H78.3626V58.7661H71.8323V52.2365H58.7719V45.7069H45.7115V52.2365H32.6511V58.7661H19.5907V65.2957H13.0604V71.8252H6.53024V52.2365H13.0604V45.7069H26.1209Z" fill="#E68C0E"/>
<path d="M84.8929 39.1777H91.4231V45.7072H84.8929V39.1777Z" fill="#F2AB1D"/>
<path d="M71.8324 32.6478H84.8928V39.1773H71.8324V32.6478Z" fill="#F2AB1D"/>
<path d="M71.8325 26.1183V32.6479H45.7117V39.1774H26.121V45.707H13.0606V39.1774H19.5908V32.6479H32.6513V26.1183H71.8325Z" fill="#F2AB1D"/>
<path d="M130.604 26.1181H124.074V32.6477H117.544V39.1773H111.014V32.6477H104.483V26.1181H97.9533V19.5886H91.423V6.52942H97.9533V13.059H137.135V19.5886H130.604V26.1181Z" fill="#E080BA"/>
<path d="M91.4231 39.1774H84.8929V32.6478H71.8325V26.1182H58.772V19.5887H65.3023V13.0591H71.8325V6.52952H78.3627V-6.10352e-05H91.4231V39.1774Z" fill="#CC378E"/>
</svg>
