<svg viewBox="0 0 123 173" fill="none" xmlns="http://www.w3.org/2000/svg">
<path d="M57.6723 165.792H64.8813V173H57.6723V165.792Z" fill="#221F24"/>
<path d="M21.6272 165.792H28.8362V173H21.6272V165.792Z" fill="#221F24"/>
<path d="M21.6272 151.375V165.792H28.8362V158.583H57.6723V165.792H64.8813V151.375H21.6272Z" fill="#374C75"/>
<path d="M79.2995 129.75H86.5085V144.167H79.2995V129.75Z" fill="#DB8153"/>
<path d="M0.000197887 129.75H7.20923V144.167H0.000197887V129.75Z" fill="#E69D6A"/>
<path d="M64.8815 129.75V136.958H21.6273V129.75H7.20925V144.167H21.6273V151.375H64.8815V144.167H79.2996V129.75H64.8815Z" fill="#312D36"/>
<path d="M21.6272 129.75H64.8813V136.958H21.6272V129.75Z" fill="#221F24"/>
<path d="M14.4182 122.542H21.6272V129.75H14.4182V122.542Z" fill="#DB8153"/>
<path d="M7.20918 122.541H14.4182V100.917H0.000151634V108.125H7.20918V122.541Z" fill="#DB8153"/>
<path d="M0.000197887 108.125H7.20923V115.333H0.000197887V108.125Z" fill="#615D5D"/>
<path d="M43.2543 108.125V115.333H57.6723V108.125H64.8813V93.7085H36.0452V108.125H43.2543Z" fill="#F1EEE9"/>
<path d="M72.0905 86.5H79.2996V100.917H72.0905V86.5Z" fill="#1F1119"/>
<path d="M21.6272 86.5H28.8362V100.917H21.6272V86.5Z" fill="#1F1119"/>
<path d="M7.20906 100.917H14.4181V86.5H21.6271V79.2917H108.135V72.0833H7.20906V64.875H3.05176e-05V93.7083H7.20906V100.917Z" fill="#615D5D"/>
<path d="M0.000197887 93.7085H7.20923V100.917H0.000197887V93.7085Z" fill="#E69D6A"/>
<path d="M79.2995 86.5H86.5085V122.542H79.2995V129.75H21.6273V122.542H14.4182V93.7083H21.6273V100.917H28.8363V86.5H72.0905V100.917H79.2995V86.5ZM36.0453 108.125H43.2544V115.333H57.6724V108.125H64.8815V93.7083H36.0453V108.125Z" fill="#E69D6A"/>
<path d="M14.4182 86.5H21.6272V93.7083H14.4182V86.5Z" fill="#DB8153"/>
<path d="M21.6273 79.2915H86.5085V86.4998H21.6273V79.2915Z" fill="#DB8153"/>
<path d="M108.136 64.875H115.345V72.0833H108.136V64.875Z" fill="#615D5D"/>
<path d="M122.554 50.4583V64.875H108.136V72.0833H7.20923V64.875H0.000198364V7.20833H7.20923V21.625H14.4183V7.20833H7.20923V0H21.6273V21.625H57.6724V0H72.0905V7.20833H64.8815V21.625H72.0905V7.20833H79.2995V36.0417H100.927V43.25H108.136V50.4583H122.554ZM57.6724 28.8333V43.25H64.8815V28.8333H57.6724ZM21.6273 28.8333V43.25H28.8363V28.8333H21.6273Z" fill="#7D7878"/>
<path d="M100.927 36.0415V43.2498H108.136V50.4582H122.554V36.0415H100.927Z" fill="#312D36"/>
<path d="M57.6723 28.8335H64.8813V43.2502H57.6723V28.8335Z" fill="#312D36"/>
<path d="M21.6272 28.8335H28.8362V43.2502H21.6272V28.8335Z" fill="#312D36"/>
<path d="M7.20918 7.2085H14.4182V21.6252H7.20918V7.2085Z" fill="#615D5D"/>
<path d="M64.8813 7.2085H72.0903V21.6252H64.8813V7.2085Z" fill="#615D5D"/>
</svg>
